<?xml version="1.0" encoding="utf-8"?>
<!-- Generator: Adobe Illustrator 23.0.3, SVG Export Plug-In . SVG Version: 6.00 Build 0)  -->
<svg version="1.1" id="レイヤー_1" xmlns="http://www.w3.org/2000/svg" xmlns:xlink="http://www.w3.org/1999/xlink" x="0px"
	 y="0px" viewBox="0 0 238.3 176.6" style="enable-background:new 0 0 238.3 176.6;" xml:space="preserve">
<style type="text/css">
	.st0{fill:url(#SVGID_1_);}
	.st1{fill:url(#SVGID_2_);}
	.st2{fill:url(#SVGID_3_);}
	.st3{fill:url(#SVGID_4_);}
	.st4{fill:url(#SVGID_5_);}
	.st5{fill:url(#SVGID_6_);}
	.st6{fill:url(#SVGID_7_);}
	.st7{fill:url(#SVGID_8_);}
	.st8{fill:url(#SVGID_9_);}
	.st9{fill:url(#SVGID_10_);}
	.st10{fill:url(#SVGID_11_);}
	.st11{fill:url(#SVGID_12_);}
</style>
<radialGradient id="SVGID_1_" cx="13.4279" cy="115.2811" r="5.5831" gradientUnits="userSpaceOnUse">
	<stop  offset="0" style="stop-color:#A62126"/>
	<stop  offset="1" style="stop-color:#821D22"/>
</radialGradient>
<path class="st0" d="M20.1,112.2c-3.8-1.1-7-2.3-9.9,0.8c-0.6,0.7-2.3,0.6-2.8,1.3c-1.7,2.2,0.4,3.9,1.8,4.8
	c1.1,0.7,3.6,0.3,4.8-0.5c1.6-1.1,2.4-3.1,3.6-4.7C18.1,113.4,18.9,113.1,20.1,112.2z"/>
<radialGradient id="SVGID_2_" cx="93.1869" cy="133.5485" r="41.5027" gradientUnits="userSpaceOnUse">
	<stop  offset="0" style="stop-color:#A62126"/>
	<stop  offset="1" style="stop-color:#821D22"/>
</radialGradient>
<path class="st1" d="M127.5,161.6c-4-2-4.4-4-2.1-7.8c2-3.3,5.5-6,5.3-10.7c-0.1-2.6,1.3-5.2,2.1-7.9c-0.4,0-1.9,0-3.1,0
	c-0.4-5.3-0.7-10.2-1-14.9c1.4-1.1,2.9-2.2,4.4-3.3c-0.4-0.4-0.8-0.9-1.2-1.3c-1.8,0.9-3.6,1.8-6.2,3.1c0.5-2.1,0.7-3.1,0.6-2.9
	c-2.3-1.4-4.3-2.2-5.8-3.6c-1.4-1.2-2.1-3-3.3-4.3c-3.2-3.5-2.3-6.1,1.4-8.5c1.9-1.2,3.6-2.7,5.3-4c-0.4-0.5-0.8-1-1.2-1.5
	c-3.5,2.5-6.8,6.5-10.5,7c-3.9,0.5-8.3-2.4-12.3-3.7c0.2-2.8,0.4-4.7,0.5-6.7c-4.7,7.9-11.7,9.7-16.6,5.1c-1.4,1.9-2.5,4.3-4.3,5.4
	c-1.9,1.2-4.5,1.2-6.6,1.6c-0.3,1.2-0.5,3.8-0.9,3.9c-2,0.2-4.1-0.4-6.3-0.7c2.6,3.1,0.5,5.2-1.7,7.8c-2.4,2.9-4.7,6.3-5.6,9.8
	c-1,3.7-2.1,5.6-4.9,4.7c0.4,2.1,1.3,4.2,1.3,6.3c-0.1,5.3,1.5,10,5.4,13.5c3.1,2.8,2.6,4.8-0.1,7.3c-2.4,2.3-4.5,4.8-6.8,7.3
	c0.5,0.5,1,1,1.5,1.4c3.4-3.7,6.8-7.5,10.6-11.7c3,3.6,5.6,6.6,8.2,9.6c2.8,3.2,2.5,5.8-1.2,8.2c-1.9,1.2-3.5,2.8-5.2,4.3
	c0.5,0.6,1,1.1,1.4,1.7c2.1-1.8,4.3-3.6,6.2-5.6c2.2-2.2,4.5-3.2,7.6-1.7c2.6,1.3,5.5,2.2,8.1,3.2c-0.3,1.6-0.5,2.8-0.9,4.6
	c6-5.9,13.8-7.8,18-2.8c0.6-6.5,2.2-7.5,9.8-6.5c0.5-2.1,0.9-4.1,1.4-6.1c2.1,1.1,4.6,1.8,6.3,3.4c2.2,2,3.9,4.7,6,7.4
	C133.8,166.4,133.3,164.5,127.5,161.6z"/>
<radialGradient id="SVGID_3_" cx="56.374" cy="2.9086" r="3.039" gradientUnits="userSpaceOnUse">
	<stop  offset="0" style="stop-color:#A62126"/>
	<stop  offset="1" style="stop-color:#821D22"/>
</radialGradient>
<path class="st2" d="M59.5,5.3C59.4,2.5,59,0,55.7,0c-2.1,0-2.9,1.8-2.3,3.6C54.4,6.7,56.9,5.8,59.5,5.3z"/>
<radialGradient id="SVGID_4_" cx="36.7987" cy="60.8811" r="14.462" gradientUnits="userSpaceOnUse">
	<stop  offset="0" style="stop-color:#A62126"/>
	<stop  offset="1" style="stop-color:#821D22"/>
</radialGradient>
<path class="st3" d="M48,57.1c-2.4-2-5.3-3.6-7.9-5.3c-1.4,1.3-2.6,2.5-4.1,3.9c-1.8-5.2-6.6-7.2-11.4-5.4c-4,1.5-6.4,6.9-3.9,10.1
	c1.3,1.7,3.8,3.2,6,3.6c1.9,0.3,4.2-1.1,6.5-1.8c1.8,6.5,2.9,7.3,10.8,8.2c0.6,0.1,1.3,0.3,1.8,0.5c0.6,0.3,1.1,0.7,2,1.3
	c0.8-1.7,1.4-3.3,2.4-4.7c0.9-1.3,2.1-2.4,3.6-3.9C54.3,60,50.3,59.1,48,57.1z"/>
<radialGradient id="SVGID_5_" cx="187.2932" cy="83.069" r="8.9283" gradientUnits="userSpaceOnUse">
	<stop  offset="0" style="stop-color:#A62126"/>
	<stop  offset="1" style="stop-color:#821D22"/>
</radialGradient>
<path class="st4" d="M190.3,90.7c3.1,0.1,6-1.6,6.8-4.3c0.9-2.8,0.2-5.1-2.7-6.9c-1.7-1-3.1-2.3-5.4-1.7c-0.7,0.2-1.7-0.7-2.5-1.2
	c-3.7-2.3-7.5-1.4-9.1,2.4c-0.1,0.3-0.1,0.8,0,1.2C178.1,84,186.4,90.6,190.3,90.7z"/>
<radialGradient id="SVGID_6_" cx="57.0441" cy="43.4989" r="3.0499" gradientUnits="userSpaceOnUse">
	<stop  offset="0" style="stop-color:#A62126"/>
	<stop  offset="1" style="stop-color:#821D22"/>
</radialGradient>
<path class="st5" d="M57.2,40.4c-1,1-2.1,1.9-3.1,2.9c1,0.9,2.1,1.9,3.8,3.4c1.1-1.5,2.4-2.7,2.1-3.2C59.4,42.2,58.1,41.4,57.2,40.4
	z"/>
<radialGradient id="SVGID_7_" cx="38.6979" cy="132.1792" r="2.7168" gradientUnits="userSpaceOnUse">
	<stop  offset="0" style="stop-color:#A62126"/>
	<stop  offset="1" style="stop-color:#821D22"/>
</radialGradient>
<path class="st6" d="M36.4,131.9c-0.2,0.7,1.1,1.8,2.1,3.4c1.3-1.6,2.6-2.6,2.4-3.3c-0.2-1.1-1.5-1.9-2.3-2.9
	C37.9,130,36.6,130.9,36.4,131.9z"/>
<radialGradient id="SVGID_8_" cx="53.4408" cy="72.6642" r="2.3476" gradientUnits="userSpaceOnUse">
	<stop  offset="0" style="stop-color:#A62126"/>
	<stop  offset="1" style="stop-color:#821D22"/>
</radialGradient>
<path class="st7" d="M54.6,74.7c0.8-0.3,1.6-2.2,1.3-2.9c-1.1-2-2.9-1.4-4.9-0.1C51.9,73.2,51.9,75.6,54.6,74.7z"/>
<radialGradient id="SVGID_9_" cx="51.3383" cy="13.546" r="2.481" gradientUnits="userSpaceOnUse">
	<stop  offset="0" style="stop-color:#A62126"/>
	<stop  offset="1" style="stop-color:#821D22"/>
</radialGradient>
<path class="st8" d="M54.3,13.6c-0.8-0.7-1.5-1.7-2.3-1.9c-0.8-0.1-1.8,0.7-3.6,1.6c1.8,1.1,2.7,2.2,3.5,2.1
	C52.7,15.3,53.5,14.2,54.3,13.6z"/>
<radialGradient id="SVGID_10_" cx="78.5737" cy="19.4521" r="2.3922" gradientUnits="userSpaceOnUse">
	<stop  offset="0" style="stop-color:#A62126"/>
	<stop  offset="1" style="stop-color:#821D22"/>
</radialGradient>
<path class="st9" d="M81.1,19c0.1-0.5-1.4-1.9-1.7-1.8c-1,0.4-1.8,1.3-3.3,2.4c1.5,1,2.3,1.5,3.2,2.1C79.9,20.8,80.9,20,81.1,19z"/>
<radialGradient id="SVGID_11_" cx="222.6419" cy="71.8876" r="14.3891" gradientUnits="userSpaceOnUse">
	<stop  offset="0" style="stop-color:#A62126"/>
	<stop  offset="1" style="stop-color:#821D22"/>
</radialGradient>
<path class="st10" d="M210.2,76.7c1.6,2,3.8,3.5,6.3,5.7c-1.6,1.1-2.7,1.8-3.8,2.6c2.4-0.6,4.5-1.8,6.2-1.4c2.2,0.6,4.2,1.4,6.5,0.4
	c0.4-0.2,0.8-0.1,1.3-0.1c2.7,0.1,4.8-1,6.5-3.3c1.4,1.1,2.8,2.2,4.2,3.4c0.3-0.3,0.6-0.5,0.9-0.8c-1.1-1.2-2.2-2.4-3.3-3.7
	c1.1-2.2,2.2-4.6,3-6.1c-0.5-1.5-0.9-2.1-1-2.8c-0.4-2.2-1.2-3.8-3.1-5.5c-2.3-2.1-4.2-4.2-7.5-4.9c-0.5-0.1-0.8-1.2-0.9-1.3
	c-1.5,0.5-2.8,1.3-4.1,1.2c-3.2-0.2-5,1.9-7.8,3.2c-1.1-1-2.4-2.1-3.6-3.2c-0.2,0.2-0.3,0.3-0.5,0.5c1,1.2,2.1,2.3,3.1,3.5
	c-1.8,2.2-3.4,4.3-5.4,6.9C207.8,72.4,208.7,74.8,210.2,76.7z"/>
<radialGradient id="SVGID_12_" cx="3.08" cy="134.6724" r="2.3034" gradientUnits="userSpaceOnUse">
	<stop  offset="0" style="stop-color:#A62126"/>
	<stop  offset="1" style="stop-color:#821D22"/>
</radialGradient>
<path class="st11" d="M0.2,135.7c-0.8-2.7,1.8-1.9,3.3-2.1c2.1-0.3,2.9,0.7,2.7,2.1C4,135.7,2.2,135.7,0.2,135.7z"/>
</svg>
