<?xml version="1.0" encoding="utf-8"?>
<!-- Generator: Adobe Illustrator 23.0.2, SVG Export Plug-In . SVG Version: 6.00 Build 0)  -->
<svg version="1.1" id="レイヤー_1" xmlns="http://www.w3.org/2000/svg" xmlns:xlink="http://www.w3.org/1999/xlink" x="0px"
	 y="0px" viewBox="0 0 228.3 244.3" style="enable-background:new 0 0 228.3 244.3;" xml:space="preserve">
<style type="text/css">
	.st0{fill:url(#SVGID_1_);}
	.st1{fill:url(#SVGID_2_);}
	.st2{fill:url(#SVGID_3_);}
	.st3{fill:url(#SVGID_4_);}
	.st4{fill:url(#SVGID_5_);}
	.st5{fill:url(#SVGID_6_);}
	.st6{fill:url(#SVGID_7_);}
</style>
<radialGradient id="SVGID_1_" cx="152.9312" cy="168.1872" r="75.7149" gradientUnits="userSpaceOnUse">
	<stop  offset="0" style="stop-color:#9D2325"/>
	<stop  offset="1" style="stop-color:#7D1D21"/>
</radialGradient>
<path class="st0" d="M217.6,164.3c-10.8-1.6-10.7-1.6-10.1-11.6c0.1-1.4-0.4-2.9-1-4.2c-2.2-4.5-4.3-9.1-6.9-13.4
	c-1.1-1.9-2.8-4.1-4.7-4.7c-4.9-1.6-6.5-3.5-5.5-8.2c1.5-7,1.5-7-6.1-7.3c-4.2-0.1-5.8-1.4-5.1-4.1c1.7-0.8,3.5-1.4,5.5-1.7
	c1.4-0.3,3.3-1.6,3.7-2.9c0.4-1.3-0.3-3.3-1.2-4.6c-1.2-1.7-3-3.1-4.6-4.5c-1.7-1.6-3.5-1.4-5.1,0c-1.6,1.4-1.8,2.8-0.3,4.5
	c1.2,1.4,1.8,2.6,1.9,3.8c-4.2,3.5-7.6,6.4-10.4,8.7c-2.8-3.4-4.6-6-6.9-8c-0.3-0.3-3.4,2.2-5.3,3.6c-2.5,0.8-5.5,1.9-8.5,2.7
	c-1.1,0.3-3.3,0.3-3.6-0.1c-2.9-5.9-6.7-1.8-10.2-0.9c-1.4,0.4-3,1.4-4.1,1c-4.5-1.5-6.7-0.6-8.7,3.7c-1.2,2.5-2.7,4.8-4.2,7.3
	c-2-1.1-3.7-2.1-5.3-3c0.7-0.4,1.4-0.9,2-1.2c-0.8-0.8-1.5-2.1-2.5-2.4c-2.6-0.7-6-0.1-8-1.4c-4.1-2.7-7.8-6.2-11.3-9.7
	c-4.4-4.4-8.5-9.1-12.7-13.6c-0.3,0.2-0.6,0.4-0.9,0.6c0.9,1.3,1.6,2.6,2.6,3.8c5.3,5.8,10.6,11.5,15.9,17.3
	c3.3,3.6,7.9,4.8,12.3,6.4c0,0.1,0.1,0.2,0.1,0.4c-2.5,1.6-5.4,2.9-7.5,4.9c-1.3,1.2-1.5,3.6-2.5,6.3c-3.2,1.1-7.9,2.3-6.1,8.5
	c0.2,0.8-3,2.5-4.8,3.7c-1.8,1.3-5.3,2.5-5.3,3.6c0.2,3,2.8,4.3,6.2,3.7c0.9-0.1,1.9,0.4,3,1.8c-1.1,0.4-2.3,0.6-3.3,1.1
	c-1.7,0.8-3.2,1.8-4.9,2.7c1.4,1.2,2.8,2.4,4.2,3.6c0.4,0.3,0.9,0.4,1.6,0.7c-0.1,5.6-0.9,10.8-7,13.9c-3,1.5-1.2,3.3,0.5,4.7
	c3.8,3.2,7.9,6.1,11.2,9.7c1.6,1.7,2.3,4.6,2.3,6.9c-0.1,3,0.2,4.8,3.9,5.1c5.6,0.5,11.1,7.8,10,12.9c-1.7,8.4,6.3,15.9,15.3,14.3
	c4.2-0.8,4.8-3.8,5.5-7c0.4-1.7,2-3.3,3.5-4.6c0.4-0.3,2.4,0.4,3.1,1.1c0.4,0.4-0.2,1.8-0.5,2.7c-0.7,2.1-1.8,4.1-2.3,6.2
	c-0.8,3.3-1.5,6.8-1.7,10.2c-0.1,2.1,0.4,4.9,1.8,6.1c1.2,1.1,5,1.2,6.2,0.2c2-1.7,3.5-4.5,3.9-7c0.9-5.2,1-10.6,1.6-15.9
	c0.1-0.5,1.2-1,2.1-1.7c0.7,1,1.2,1.6,1.5,2.3c2.7,5,7.3,5.6,10.8,1.2c2.8-3.4,4.6-5.8,9.7-2.4c3.2,2.1,5.5-1.3,6.3-4
	c2.3-8.1,2.8-8.3,11-8.3c2.2,0,4.7-2.4,6.7-4.1c1.6-1.3,2.8-3,3.9-4.6c1.9-2.7,4.1-3.1,7.3-2.3c1.9,0.5,4.2-0.3,6.4-0.5
	c-1.1-1.9-2.1-3.8-3.3-5.6c-0.3-0.5-1.4-0.6-1.7-1.1c-2-3.3-4.8-6.6-5.6-10.2c-0.6-2.7,7.6-6.9,12.1-7.3c4.8-0.4,9.5-1.2,14.3-1.8
	c0.1-0.7,0.3-1.4,0.4-2.1c-2-1-3.9-2.2-6-3C220.8,164.6,219.2,164.6,217.6,164.3z"/>
<radialGradient id="SVGID_2_" cx="35.668" cy="166.2912" r="34.1977" gradientUnits="userSpaceOnUse">
	<stop  offset="0" style="stop-color:#9D2325"/>
	<stop  offset="1" style="stop-color:#7D1D21"/>
</radialGradient>
<path class="st1" d="M66.2,182.7c0.9-0.5,2-0.9,2.7-1.6c0.9-0.8,1.5-1.9,2.2-2.9c-1.4-0.7-2.7-1.9-4.2-2.1c-1.2-0.2-2.6,0.7-4.4,1.2
	c-0.4-3.6-1-7.1-1-10.5c0.1-2.7,1.3-3.2,4.8-2.8c0,2,0,4.1,0,6.3c3-0.1,4.9-0.9,4.8-3.9c-0.1-3.7-1.9-5.8-4.8-5.9
	c-1.6-0.1-4-0.4-4.5-1.3c-0.6-1,0.6-2.9,1.1-4.4c0.2-0.7,0.9-1.2,1-1.9c0.3-1.5,0.9-3.3,0.3-4.4c-0.5-0.9-2.7-1-4.1-1.4
	c-0.6-0.1-1.2,0-2.6,0.1c0.7-1.2,1.2-1.8,1.5-2.6c1-2.2,2.4-4.3,2.9-6.6c0.6-2.8-2.1-5.1-4.7-4.3c-3.8,1.3-7.4,2.8-11.1,4.3
	c-0.1,0-0.2,0.1-0.3,0.1c-3.8,2.4-8.7,1.1-14.1-0.7c-1.3-0.4-2,5.2-3.4,6.2c-2.9,1.9-3.2,7.4-9.6,2.8c-3.1-2.2-8.1,0.4-11.6,1.8
	c-5-6.4-10.5-13.3-3.9,6c-1,2.3-1.4,4.9-1.8,7.4c-0.2,1.2,0.2,2.4,0.3,3.6c0,1.7-0.1,3.3-0.1,5c-0.1,4,0.7,7.7,3.9,10.5
	c3.1,2.7,5.8,6,10.7,6.1c0.9,0,2.1,1.6,2.6,2.6c2.1,4.3,4.1,5.6,8.9,4.5c3.4-0.7,6.1,0.3,9,1.5c2,0.8,4.3,0.9,6.5,1.2
	c1.5,0.2,3,0.1,4.5-0.1c2.5-0.4,5.3-0.6,7.2-1.9c2.4-1.6,3.2-0.5,4.3,1c0.4,0.5,0.3,1.4,0.7,1.7c1.1,0.6,2.3,1,3.5,1.5
	c0.3-1,1-2,0.8-2.9c-0.2-1.1-1-2.2-1.9-3c-1.6-1.5-3.5-2.7-5.1-4.3c-1.4-1.4-2.3-3-0.4-4.9c1.8-1.8,3.6-1.6,5.4-0.2
	c1.5,1.3,2.9,2.7,4.3,4.1c0.6,0.6,1.2,1.4,1.9,1.5c0.9,0.1,2.1-0.2,2.8-0.7c0.3-0.2,0-1.7-0.5-2.2C69.5,185.2,68.1,184.2,66.2,182.7
	z"/>
<radialGradient id="SVGID_3_" cx="167.9619" cy="5.8563" r="6.2483" gradientUnits="userSpaceOnUse">
	<stop  offset="0" style="stop-color:#9D2325"/>
	<stop  offset="1" style="stop-color:#7D1D21"/>
</radialGradient>
<path class="st2" d="M168.8,0c-4.8,0.1-7.6,2.7-7.5,6.8c0.1,2.8,3,5,6.6,4.9c4.2-0.1,6.7-2.5,6.6-6.3C174.5,0.9,173.4-0.1,168.8,0z"
	/>
<radialGradient id="SVGID_4_" cx="140.3664" cy="89.1407" r="12.4623" gradientUnits="userSpaceOnUse">
	<stop  offset="0" style="stop-color:#9D2325"/>
	<stop  offset="1" style="stop-color:#7D1D21"/>
</radialGradient>
<path class="st3" d="M137.1,90.3c-3.6-0.2-12.9,3.5-11.9,5.5c0.7,1.4,8.4,1.7,10.3,2.1c2.2,0.5,13.6-1.6,13.5-5.1
	c-0.2-0.1-1.9-0.6-4-1c3.6-3.6,7.1-7.2,10.7-10.8c-0.2-0.2-0.5-0.4-0.7-0.6c-3.7,3.7-7.5,7.5-11.2,11.2
	C140.8,90.9,137.7,90.3,137.1,90.3z"/>
<radialGradient id="SVGID_5_" cx="153.5411" cy="31.5094" r="3.7949" gradientUnits="userSpaceOnUse">
	<stop  offset="0" style="stop-color:#9D2325"/>
	<stop  offset="1" style="stop-color:#7D1D21"/>
</radialGradient>
<path class="st4" d="M157.3,31.3c0-2.3-1.4-3.3-3.6-3.5c-2.3-0.2-4,1.5-4,5c0.8,0.6,2,2,3.6,2.5C155.1,35.8,157.3,33.4,157.3,31.3z"
	/>
<radialGradient id="SVGID_6_" cx="182.0269" cy="29.8348" r="2.0968" gradientUnits="userSpaceOnUse">
	<stop  offset="0" style="stop-color:#9D2325"/>
	<stop  offset="1" style="stop-color:#7D1D21"/>
</radialGradient>
<path class="st5" d="M184.4,29.9c-1.3-0.9-2.1-2-2.7-1.9c-0.7,0.1-1.9,1.1-1.9,1.8c0,0.6,1.1,1.7,1.9,1.8
	C182.2,31.7,183.1,30.8,184.4,29.9z"/>
<radialGradient id="SVGID_7_" cx="177.9834" cy="61.2933" r="11.91" gradientUnits="userSpaceOnUse">
	<stop  offset="0" style="stop-color:#9D2325"/>
	<stop  offset="1" style="stop-color:#7D1D21"/>
</radialGradient>
<path class="st6" d="M164.8,71c0.2,0.3,0.5,0.5,0.7,0.8c3.9-2.5,8.6-3.9,11.4-8c0.8-1.2,2.3-2.1,3.5-3c3.4-2.5,6.9-4.9,10.2-7.4
	c0.5-0.4,0.3-1.6,0.5-2.4c-0.9,0-1.8-0.3-2.5-0.1c-0.8,0.2-1.3,1-2,1.5c-3.8,3.2-7.5,6.3-11.3,9.5C171.8,65,168.3,68,164.8,71z"/>
</svg>
