<?xml version="1.0" encoding="utf-8"?>
<!-- Generator: Adobe Illustrator 23.0.2, SVG Export Plug-In . SVG Version: 6.00 Build 0)  -->
<svg version="1.1" id="レイヤー_1" xmlns="http://www.w3.org/2000/svg" xmlns:xlink="http://www.w3.org/1999/xlink" x="0px"
	 y="0px" viewBox="0 0 123.7 78.4" style="enable-background:new 0 0 123.7 78.4;" xml:space="preserve">
<style type="text/css">
	.st0{fill:url(#SVGID_1_);}
	.st1{fill:url(#SVGID_2_);}
	.st2{fill:url(#SVGID_3_);}
	.st3{fill:url(#SVGID_4_);}
	.st4{fill:url(#SVGID_5_);}
	.st5{fill:url(#SVGID_6_);}
	.st6{fill:url(#SVGID_7_);}
	.st7{fill:url(#SVGID_8_);}
	.st8{fill:url(#SVGID_9_);}
	.st9{fill:url(#SVGID_10_);}
	.st10{fill:url(#SVGID_11_);}
	.st11{fill:url(#SVGID_12_);}
</style>
<radialGradient id="SVGID_1_" cx="14.9627" cy="32.1844" r="14.8831" gradientUnits="userSpaceOnUse">
	<stop  offset="0" style="stop-color:#A62126"/>
	<stop  offset="1" style="stop-color:#821D22"/>
</radialGradient>
<path class="st0" d="M3.6,24.5c-2.8,4.7-5.3,9.7-2,15.3c1.5,2.6,3.2,4.7,6.6,5.3c1.8,0.3,3.5,1,5.2,1.6c3,1.1,7.4,0,9.5-2.2
	c1.4-1.4,3-2.7,4.1-4.3c1.9-2.9,4.3-5.7,2.1-9.5c-0.9-1.5-1.1-3.3-1.4-5c-1.5-6.6-4.9-7.7-12.4-8.1C11.1,18.4,6.2,20,3.6,24.5z"/>
<radialGradient id="SVGID_2_" cx="39.7896" cy="59.5236" r="12.0814" gradientUnits="userSpaceOnUse">
	<stop  offset="0" style="stop-color:#A62126"/>
	<stop  offset="1" style="stop-color:#821D22"/>
</radialGradient>
<path class="st1" d="M33.8,48.8c-0.9,0.3-2.1,1-2.4,1.8c-1.5,4-3.2,8-4,12.1c-0.4,2.3,0.7,4.8,4.1,5.5c2,0.4,3.9,1.4,5.8,2.3
	c3.5,1.8,6.8-0.2,9.8-1.1c2.2-0.7,3.5-3.7,5.2-5.7c-0.5-0.2-1-0.5-1.5-0.7c-0.1-1.3-0.2-2.7-0.3-4c-0.1-1.2-0.3-2.4-0.5-3.6
	c-0.1-0.5-0.6-0.8-0.9-1.3C45.6,48.4,40.4,46.5,33.8,48.8z"/>
<radialGradient id="SVGID_3_" cx="111.4381" cy="45.2993" r="9.3872" gradientUnits="userSpaceOnUse">
	<stop  offset="0" style="stop-color:#A62126"/>
	<stop  offset="1" style="stop-color:#821D22"/>
</radialGradient>
<path class="st2" d="M105.3,37.7c-4.5,2.3-5.1,6.9-1.6,10.9c0.9,1,1.6,2.2,2.5,3.2c0.6,0.7,1.3,1.4,2.2,1.7
	c4.5,1.9,11.2-1.5,12.2-6.1c0.2-1.1,0.7-2.1,1-2.6c-1.1-1.4-2.2-2.5-3.1-3.8C115.6,36.8,109.8,35.3,105.3,37.7z"/>
<radialGradient id="SVGID_4_" cx="95.129" cy="28.503" r="8.2895" gradientUnits="userSpaceOnUse">
	<stop  offset="0" style="stop-color:#A62126"/>
	<stop  offset="1" style="stop-color:#821D22"/>
</radialGradient>
<path class="st3" d="M103,27.1c-3.1-1.8-2.8-7.4-8.3-6.5c-1.6,0.2-3.3,0.1-4.8,0.6c-1.1,0.3-2.5,1.1-2.9,2.1
	c-2,4.2,2.4,11.4,7.1,12.9c4.1,1.3,9.8-3.2,9.6-7.5C103.7,28.2,103.5,27.4,103,27.1z"/>
<radialGradient id="SVGID_5_" cx="76.6081" cy="47.9143" r="4.933" gradientUnits="userSpaceOnUse">
	<stop  offset="0" style="stop-color:#A62126"/>
	<stop  offset="1" style="stop-color:#821D22"/>
</radialGradient>
<path class="st4" d="M77,52.8c2,0.1,4.7-2.8,4.6-5.1c0-1.8-3.2-4.6-5.3-4.6c-2.4,0-4.7,2.1-4.7,4.1C71.6,49.8,74.4,52.7,77,52.8z"/>
<radialGradient id="SVGID_6_" cx="78.9185" cy="74.0558" r="4.9298" gradientUnits="userSpaceOnUse">
	<stop  offset="0" style="stop-color:#A62126"/>
	<stop  offset="1" style="stop-color:#821D22"/>
</radialGradient>
<path class="st5" d="M73.6,73.9c0.9,1.7,3.2,2.8,5.4,4.5c2.2-1.7,3.8-3,5.5-4.3c-1.6-1.5-3-3.7-4.9-4.2
	C76.9,69.1,72.7,72.3,73.6,73.9z"/>
<radialGradient id="SVGID_7_" cx="120.2861" cy="4.748" r="4.1194" gradientUnits="userSpaceOnUse">
	<stop  offset="0" style="stop-color:#A62126"/>
	<stop  offset="1" style="stop-color:#821D22"/>
</radialGradient>
<path class="st6" d="M122.4,8.4c2.4-3.3,1.4-6.5-2.6-8.4c-3.7,3.8-3.8,4.9-0.8,8.5C120.3,9.9,121.4,9.8,122.4,8.4z"/>
<radialGradient id="SVGID_8_" cx="86.3141" cy="10.2328" r="3.4513" gradientUnits="userSpaceOnUse">
	<stop  offset="0" style="stop-color:#A62126"/>
	<stop  offset="1" style="stop-color:#821D22"/>
</radialGradient>
<path class="st7" d="M82.5,12.7c1.9,0,3.8,0.1,5.6-0.4c1-0.3,1.6-1.7,2.4-2.6c-1-0.5-2.1-1.1-3.6-1.9c-1.7,1.2-3.3,2.2-4.8,3.4
	C82,11.4,82.4,12.7,82.5,12.7z"/>
<radialGradient id="SVGID_9_" cx="119.8701" cy="26.3471" r="2.979" gradientUnits="userSpaceOnUse">
	<stop  offset="0" style="stop-color:#A62126"/>
	<stop  offset="1" style="stop-color:#821D22"/>
</radialGradient>
<path class="st8" d="M121.1,29c0.4,0.1,2-1.2,2-2c0.2-2-1-3.3-4-3.3c-0.9,0.9-1.7,1.8-2.6,2.7C118.1,27.3,119.5,28.4,121.1,29z"/>
<radialGradient id="SVGID_10_" cx="55.2866" cy="20.9517" r="2.3995" gradientUnits="userSpaceOnUse">
	<stop  offset="0" style="stop-color:#A62126"/>
	<stop  offset="1" style="stop-color:#821D22"/>
</radialGradient>
<path class="st9" d="M52.5,21.1c1.6,0.9,2.6,1.8,3.5,1.8c0.8-0.1,2-1.2,2.1-1.9c0-0.7-1.3-2.1-1.9-2C55.2,19.1,54.2,20.1,52.5,21.1z
	"/>
<radialGradient id="SVGID_11_" cx="103.3577" cy="71.6989" r="2.3276" gradientUnits="userSpaceOnUse">
	<stop  offset="0" style="stop-color:#A62126"/>
	<stop  offset="1" style="stop-color:#821D22"/>
</radialGradient>
<path class="st10" d="M100.6,72c1.5,0.7,2.4,1.6,3.3,1.5c0.7,0,1.4-1.1,2.2-1.7c-0.9-0.7-1.7-1.8-2.7-2
	C102.9,69.7,101.9,71,100.6,72z"/>
<radialGradient id="SVGID_12_" cx="70.1353" cy="15.1214" r="2.0955" gradientUnits="userSpaceOnUse">
	<stop  offset="0" style="stop-color:#A62126"/>
	<stop  offset="1" style="stop-color:#821D22"/>
</radialGradient>
<path class="st11" d="M70,17c1-0.6,1.6-1.6,2.4-2.5c-0.5-0.5-1-0.9-1.5-1.4c-1,0.9-2,1.8-2.9,2.7C68.6,16.3,69.7,17.2,70,17z"/>
</svg>
