<?xml version="1.0" encoding="utf-8"?>
<!-- Generator: Adobe Illustrator 23.0.2, SVG Export Plug-In . SVG Version: 6.00 Build 0)  -->
<svg version="1.1" id="レイヤー_1" xmlns="http://www.w3.org/2000/svg" xmlns:xlink="http://www.w3.org/1999/xlink" x="0px"
	 y="0px" viewBox="0 0 193.9 165.2" style="enable-background:new 0 0 193.9 165.2;" xml:space="preserve">
<style type="text/css">
	.st0{fill:url(#SVGID_1_);}
	.st1{fill:url(#SVGID_2_);}
	.st2{fill:url(#SVGID_3_);}
</style>
<radialGradient id="SVGID_1_" cx="158.2289" cy="132.5475" r="34.1977" gradientUnits="userSpaceOnUse">
	<stop  offset="0" style="stop-color:#A62126"/>
	<stop  offset="1" style="stop-color:#821D22"/>
</radialGradient>
<path class="st0" d="M188.8,148.9c0.9-0.5,2-0.9,2.7-1.6c0.9-0.8,1.5-1.9,2.2-2.9c-1.4-0.7-2.7-1.9-4.2-2.1
	c-1.2-0.2-2.6,0.7-4.4,1.2c-0.4-3.6-1-7.1-1-10.5c0.1-2.7,1.3-3.2,4.8-2.8c0,2,0,4.1,0,6.3c3-0.1,4.9-0.9,4.8-3.9
	c-0.1-3.7-1.9-5.8-4.8-5.9c-1.6-0.1-4-0.4-4.5-1.3c-0.6-1,0.6-2.9,1.1-4.4c0.2-0.7,0.9-1.2,1-1.9c0.3-1.5,0.9-3.3,0.3-4.4
	c-0.5-0.9-2.7-1-4.1-1.4c-0.6-0.1-1.2,0-2.6,0.1c0.7-1.2,1.2-1.8,1.5-2.6c1-2.2,2.4-4.3,2.9-6.6c0.6-2.8-2.1-5.1-4.7-4.3
	c-3.8,1.3-7.4,2.8-11.1,4.3c-0.1,0-0.2,0.1-0.3,0.1c-3.8,2.4-8.7,1.1-14.1-0.7c-1.3-0.4-2,5.2-3.4,6.2c-2.9,1.9-3.2,7.4-9.6,2.8
	c-3.1-2.2-8.1,0.4-11.6,1.8c-5-6.4-10.5-13.3-3.9,6c-1,2.3-1.4,4.9-1.8,7.4c-0.2,1.2,0.2,2.4,0.3,3.6c0,1.7-0.1,3.3-0.1,5
	c-0.1,4,0.7,7.7,3.9,10.5c3.1,2.7,5.8,6,10.7,6.1c0.9,0,2.1,1.6,2.6,2.6c2.1,4.3,4.1,5.6,8.9,4.5c3.4-0.7,6.1,0.3,9,1.5
	c2,0.8,4.3,0.9,6.5,1.2c1.5,0.2,3,0.1,4.5-0.1c2.5-0.4,5.3-0.6,7.2-1.9c2.4-1.6,3.2-0.5,4.3,1c0.4,0.5,0.3,1.4,0.7,1.7
	c1.1,0.6,2.3,1,3.5,1.5c0.3-1,1-2,0.8-2.9c-0.2-1.1-1-2.2-1.9-3c-1.6-1.5-3.5-2.7-5.1-4.3c-1.4-1.4-2.3-3-0.4-4.9
	c1.8-1.8,3.6-1.6,5.4-0.2c1.5,1.3,2.9,2.7,4.3,4.1c0.6,0.6,1.2,1.4,1.9,1.5c0.9,0.1,2.1-0.2,2.8-0.7c0.3-0.2,0-1.7-0.5-2.2
	C192.1,151.4,190.6,150.4,188.8,148.9z"/>
<radialGradient id="SVGID_2_" cx="37.1903" cy="116.6532" r="36.5578" gradientUnits="userSpaceOnUse">
	<stop  offset="0" style="stop-color:#A62126"/>
	<stop  offset="1" style="stop-color:#821D22"/>
</radialGradient>
<path class="st1" d="M74,125.1c0.5-0.3,0.4-2.3-0.1-3.3c-1-2.2-2.7-3.4-4.5-3.8c1.4-0.5,2.6-0.9,3.8-1.3c-0.3-0.2-0.7-0.3-1-0.5
	c0.2-1.6,0.6-3.3,0.4-4.9c-0.1-1-1.1-1.9-2-3.3c0.7-1.7,1.8-4.1-1.8-5.6c-0.4-0.2-0.1-2.2,0-3.3c0.1-1.2,0.8-3.1,0.2-3.5
	c-1.5-1-3-0.4-4,1.2c-0.3,0.4-0.9,0.6-1.9,0.6c0.2-0.6,0.5-1.2,0.7-1.8c0.2-1,0.3-2,0.5-3c-1.1,0.1-2.1,0.3-3.2,0.4
	c-0.3,0-0.5,0.2-0.9,0.4c-2.6-2.1-4.7-4.2-3.9-7.9c0.4-1.8-1.1-1.7-2.4-1.5c-2.8,0.4-5.7,1.1-8.5,1.2c-1.3,0-3-0.7-4-1.5
	c-1.4-1.1-2.3-1.6-3.8-0.2c-2.3,2.1-7.6,1.8-9.6-0.5c-3.3-3.7-9.7-3.1-12.1,1.2c-1.1,2,0,3.3,1.3,4.8c0.7,0.8,0.8,2,0.9,3.1
	c0,0.3-1,0.8-1.6,0.9c-0.3,0-0.8-0.7-1.1-1.2c-0.7-1.1-1.2-2.2-2-3.2c-1.3-1.5-2.6-3.1-4.1-4.4c-0.9-0.8-2.4-1.6-3.5-1.4
	c-0.9,0.1-2.4,1.6-2.3,2.5c0.1,1.4,0.8,3,1.9,4.1c2.1,2.3,4.6,4.2,6.8,6.4c0.2,0.2,0,0.8,0,1.5c-0.7-0.1-1.2-0.1-1.6-0.2
	c-3.3-0.7-5.2,1-4.4,4.1c0.6,2.4,1,4-2.3,4.9c-2.2,0.6-1.4,2.7-0.4,4.1c2.9,3.8,2.8,4.1-0.1,7.5c-0.8,0.9-0.5,2.8-0.5,4.2
	c0,1.1,0.4,2.2,0.7,3.3c0.6,1.7,0,2.8-1.6,3.8c-0.9,0.6-1.4,1.9-2.1,2.8c1.3,0.2,2.5,0.5,3.8,0.6c0.4,0,0.8-0.4,1.1-0.3
	c2.3,0.4,4.8,0.4,6.7,1.4c1.4,0.7,0.5,5.6-0.9,7.6c-1.5,2.1-2.9,4.4-4.3,6.6c0.3,0.3,0.6,0.6,0.8,1c1.2-0.5,2.4-0.8,3.5-1.4
	c0.8-0.4,1.4-1.1,2.1-1.7c4.6-3.9,4.6-3.9,9,0c0.6,0.5,1.5,0.9,2.3,1.1c2.9,0.7,5.8,1.5,8.7,2c1.3,0.2,2.9,0.3,3.9-0.3
	c2.5-1.4,4-1.5,5.8,0.6c2.7,3.1,2.7,3.1,5.6,0.1c2-2.1,3.3-1.9,4.5,0.7c0.3,0.7,0.9,1.2,1.8,2.5c-0.2-3.9-0.3-7-0.4-9.4
	c2.6,0.1,4.4,0.3,6.2,0c0.3,0,0.2-2.2,0.2-3.5c0.5-1.3,1.1-3,1.8-4.5c0.3-0.6,1-1.5,1.3-1.4c3.8,0.9,3.3-2.1,4.1-3.9
	c0.3-0.7,0.4-1.7,1-2.1c1.1-0.7,1.8-1.3,2-2.1C72,125.7,73.2,125.6,74,125.1z"/>
<radialGradient id="SVGID_3_" cx="94.6237" cy="44.0683" r="43.6705" gradientUnits="userSpaceOnUse">
	<stop  offset="0" style="stop-color:#A62126"/>
	<stop  offset="1" style="stop-color:#821D22"/>
</radialGradient>
<path class="st2" d="M117.2,81.5c-4-2.4-4.3-5.1-1.3-8.4c2.8-3.1,5.6-6.2,8.9-9.8c4.1,4.3,7.8,8.1,11.5,11.9c0.5-0.5,1.1-1,1.6-1.5
	c-2.4-2.5-4.7-5.1-7.4-7.4c-2.9-2.6-3.5-4.6-0.1-7.5c4.2-3.6,5.9-8.4,5.8-13.8c0-2.2,0.9-4.4,1.4-6.5c-3,1-4.2-1-5.3-4.8
	c-1-3.6-3.5-7.1-6.1-10c-2.3-2.7-4.6-4.8-1.8-8c-2.4,0.3-4.7,0.9-6.8,0.7c-0.5,0-0.7-2.7-1-4c-2.2-0.5-5.1-0.5-7.2-1.7
	c-2-1.2-3.1-3.6-4.7-5.5C99.5,10,91.9,8,86.8,0c0.2,2,0.3,4,0.6,6.8c-4.3,1.4-9.1,4.3-13.3,3.8C70,10.1,66.4,6,62.7,3.4
	C62.2,4,61.8,4.5,61.4,5c1.9,1.4,3.8,2.9,5.8,4.1c4,2.4,4.9,5.1,1.5,8.7c-1.3,1.4-2.2,3.2-3.6,4.4c-1.7,1.4-3.8,2.2-6.3,3.6
	c0-0.2,0.2,0.9,0.7,3c-2.8-1.3-4.7-2.2-6.7-3.2c-0.5,0.4-0.9,0.9-1.4,1.3c1.6,1.2,3.2,2.3,4.8,3.4c-0.3,4.9-0.7,9.9-1.1,15.3
	c-1.3,0-2.9,0-3.4,0c0.8,2.8,2.4,5.5,2.3,8.1c-0.2,4.8,3.5,7.5,5.7,11c2.5,3.8,2,5.9-2.3,8c-6.2,3-6.8,5-4,10.7
	c2.3-2.8,4.1-5.5,6.6-7.5c1.9-1.6,4.5-2.4,6.9-3.5c0.5,2,1,4.1,1.5,6.2c8.2-1,9.9-0.1,10.6,6.6c4.5-5.1,12.9-3.2,19.5,2.8
	c-0.4-1.8-0.6-3-0.9-4.7c2.9-1.1,6-2,8.8-3.3c3.4-1.6,5.8-0.6,8.2,1.7c2.1,2,4.5,3.8,6.7,5.7c0.5-0.6,1-1.1,1.6-1.7
	C121,84.4,119.2,82.7,117.2,81.5z"/>
</svg>
