<?xml version="1.0" encoding="utf-8"?>
<!-- Generator: Adobe Illustrator 23.0.3, SVG Export Plug-In . SVG Version: 6.00 Build 0)  -->
<svg version="1.1" id="レイヤー_1" xmlns="http://www.w3.org/2000/svg" xmlns:xlink="http://www.w3.org/1999/xlink" x="0px"
	 y="0px" viewBox="0 0 261.9 175.4" style="enable-background:new 0 0 261.9 175.4;" xml:space="preserve">
<style type="text/css">
	.st0{fill:url(#SVGID_1_);}
	.st1{fill:url(#SVGID_2_);}
	.st2{fill:url(#SVGID_3_);}
</style>
<radialGradient id="SVGID_1_" cx="86.8484" cy="149.327" r="0.4007" gradientUnits="userSpaceOnUse">
	<stop  offset="0" style="stop-color:#A62126"/>
	<stop  offset="1" style="stop-color:#821D22"/>
</radialGradient>
<path class="st0" d="M87.2,149c-0.1,0-0.1-0.1-0.2-0.1c-0.2,0.3-0.3,0.6-0.5,0.9C86.7,149.5,87,149.3,87.2,149z"/>
<radialGradient id="SVGID_2_" cx="130.9265" cy="87.6886" r="111.4249" gradientUnits="userSpaceOnUse">
	<stop  offset="0" style="stop-color:#A62126"/>
	<stop  offset="1" style="stop-color:#821D22"/>
</radialGradient>
<path class="st1" d="M256.2,63c0.9-0.2,3.8-7.1,5.6-10.3c-0.1,0.2-0.3,0.4-0.5,0.5c-2.4,2.3-5.3,2.3-8.2,2.8c-2.7,0.5-5.3,1.8-8,2.6
	c-1.5,0.4-3,0.6-4.5,0.9c-3.1,0.5-3.8-2.5-5.5-3.9c-0.1-0.1,0-0.7,0.2-1c0.2-0.4,0.5-0.8,0.9-1c3.1-1.6,4.5-4.1,3.8-7.8
	c-1.4-0.3-3-0.6-4.1,1.4c-0.4,0.7-1.2,1.3-1.9,1.9c-0.2,0.2-0.9,0.4-1,0.2c-1.5-1.9-4.7-2-5.1-5.1c-0.1-0.8-0.8-1.6-1.2-2.4
	c-0.6-1.2-0.6-2.3,0.3-3.5c0.5-0.7,0.5-1.9,0.5-2.9c0-0.7-0.4-1.3-0.6-2c-0.2-1.2,0.1-2,1.5-2c0.5,0,7.1-2.3,7.3-2.6
	c0.3-0.4-5.6,1.1-5.5,0.6c-0.5,0-1.3-0.2-1.4,0c-0.9,1.2-1.7,1.3-2.8,0.3c-0.2-0.2-1.1,0.2-1.4,0.5c-1.3,1.5-2.6,3-4,4.7
	c-1.3-1.9-1.4-3.3,0.2-4.8c1.7-1.6,0.8-7.8-1.3-8.9c-3.3-1.7-4.6-6-4.1-9.5c0.1-0.8,1-1.4,1.6-2.3c0.2-0.5,0.7-1.2,0.8-1.9
	C218,5.8,218,4,218,2.3c0-0.1-0.7-0.4-0.8-0.3c-0.6,0.6-1.3,1.2-1.6,2c-0.9,2.5-1.6,5.1-2.5,7.6c-0.2,0.6-0.9,1-1.3,1.4
	c-0.5-1.4-0.7-2.5-1.3-3.3c-0.4-0.4-1.8-0.5-2.2-0.2c-0.6,0.4-0.8,1.5-0.9,2.3c-0.1,0.6,0.3,1.2,0.5,1.8c0.3,1.3-0.3,1.9-1.6,2.1
	c-1.4,0.2-2.7,0.6-4,0.9c-1.5,0.4-3.1-0.8-3.4-2.3c-0.1-0.7-0.6-1.3-1-1.9c-0.1-0.2-0.4-0.2-0.4-0.4c-0.1-2.7-2-3.1-4.1-3.2
	c-0.2,0-0.7-1.2-0.6-1.7c0.2-1.2,0.7-2.3,1.1-3.4c-1.9-0.7-3.5-1.3-5.1-1.9c-0.2,0.6-0.4,1.2-0.7,2.3c-1.5-1.1-2.9-2.1-4.4-3.1
	c-0.1,0.2-0.4,0.5-0.7,0.9c-0.5,0.8-1,1.1-2,0.7c-1.2-0.5-2.6-0.7-3.8-1.1c-0.6-0.2-1.3-0.5-1.7-0.9c-1.2-1.1-2-1-2.6,0.7
	c-0.4,1.2,0,2.9-2,2.9c-1.2,0-2.5,0.2-3.6,0c-1.8-0.3-2.5,0-2.6,2c-0.1,1.4-0.6,1.9-2,1.8c-1.5-0.1-2.2,0.8-2.6,2.2
	c-0.4,1.4,0.4,5.2-0.5,6.2c-1.4,1.5,1.6,8.9-2.2,11.3c-2-0.2-13.8-13.9-11.4-6.2c-0.3,2.3,0.7,6.4,0.5,8.8c-0.1,1.1,0.2,2.3,0,3.4
	c-0.4,3.6,1.3,6.7,1.7,10.2c0.5,0.1,1.1,0.3,1.7,0.5c-0.5,1.1-0.8,2.2-1.3,3.1c-0.2,0.3-0.8,0.7-1.1,0.6c-1.1-0.3-2.5-0.6-3.3-1.3
	c-2.1-2-3.9-4.3-5.8-6.5c-0.2-0.2-0.2-0.5-0.3-0.7c-2.3-1.6-4.7-3.1-7.1-4.6c-0.4-0.3-1.2,0-1.9,0.1c0.1,0.8-0.1,1.7,0.3,2.3
	c1.1,1.9,2.3,3.6,3.6,5.4c1,1.4,2.2,2.6,3.1,4c1.1,1.5,2,3.2,2.8,4.8c0.2,0.3-0.1,1-0.3,1.3c-0.1,0.2-0.8,0-1.2-0.2
	c-0.5-0.2-0.9-0.7-1.4-1c-1.1-0.7-2.2-0.9-3-0.6c0.2-0.2,0.5-0.5,0.7-0.7c-3.2-1.1-6.1-2.1-9-3.1c-1.9,2.7-3.8,5.3-5.6,7.8
	c0.3,0,0.6,0,0.9,0.1c0.1,0.8,0.5,1.7,0.2,2.3c-0.4,0.6-0.7,1.2-0.9,1.8c-2.2-1.7-3-4-2.2-6.8c0.5-1.9,1.8-3.6,3-5.2
	c1.1-1.4,1.9-4.6,0.9-6.2c-0.8-1.1-1.9-1.9-3-2.7c-1.4-1.1-2.9-2.2-4.4-3.3c-0.8-0.6-1.7-1.3-2.6-1.7c-1.6-0.6-3.1-2.8-2.6-4.5
	c0.4-1.5,0.3-2.5-1.3-3c-1.2-0.4-2.8,0.6-3.2,2c-0.8,2.9-3,4.3-5.4,5.5c-1.1,0.5-1.9,0.1-2.5-1c-0.7-1.3-1.4-2.5-2.2-3.7
	c-0.7-1.1-2.6-1-3.7-0.1c-1.7,1.6-1.9,2.9-0.9,5.1c-0.4,0.7-0.7,1.3-1.2,1.9c-0.4,0.5-0.8,1.1-1.3,1.2c-0.5,0.1-1.1-0.5-1.5-0.9
	c-0.3-0.3-0.6-0.9-0.7-1.3c-0.7-3.4-2.8-5.1-6.2-5.2c-2.7-0.1-15.6-3.2-18.3-3.4c-1-0.1-1.6,0.2-2.2,1.3c-1.5,3.2,6.9,9,5.4,12.2
	c-0.3,0.6-0.1,1.7,0.4,2.2c0.9,1,2.2,1.7,3.3,2.6c0.4,0.3,0.7,0.7,1,1.1c0.2,0.3,0.3,0.9,0.5,1c1.7,0.5,2.3,1.7,2.7,3
	c-2.1,1-4,2.4-5.4,4.5c-1.5-1.6-3.1-2.9-5.3-3.6c-1.3-0.4-3.2,0.5-4.5,1.2c-1.7,0.9-2.9,2.6-5.1,3c-1.5,0.2-3.2,1-4.3,2
	c-1.2,1.2-1.8,3.1-2.7,4.6c-0.5,0.9-0.9,2-1.6,2.7c-1.4,1.4-1.6,2.9-0.9,4.8c-1.5,0.5-3.6,0.9-2.8,3.1c0.4,1,1.9,1.6,2.9,2.4
	c0.2-0.1,0.3-0.3,0.5-0.4c0,0.8,0,1.5,0,2.2c-1-0.5-2.3-1.5-2.9-1.2c-0.9,0.4-1.2,1.9-1.9,3.1c-0.3-0.3-0.9-0.5-1.2-1
	c-1.3-2.1-3.4-2-5.4-2.1c-0.6,0-1.2,1.3-1.8,2c-0.7,0.7-5.6-3.6-6.3-2.9c-0.7-1-1.5-1.9-2.1-2.9c-0.3-0.4-0.2-1.2-0.5-1.4
	c-0.7-0.5-1.7-1.2-2.3-1c-0.6,0.2-1.4,1.6-1.2,2.2c0.5,1.5,1.4,3,2.3,4.3c0.7,0.9,0.9,1.5-0.1,2.4c-1.2,1-2.2,2.3-3.1,3.6
	c-0.7,1-1.3,1.4-2.5,1.2c-2.6-0.4-3.2,0-3.2,2.7c0,1.5,0.3,3,0.6,4.5c0.4,1.7-5.2,3.2-7,3.4c-0.7,0-1.4,0.1-2,0.4
	c-2.1,1-2.1,2.6-0.2,3.9c1.6,1.1,6,8.4,4.8,9.9c-0.3,0.4-0.6,1-0.6,1.5c0.1,2.2-5.1,7.6-4.8,9.7c0.1,0.8,1,1.4,1.3,2.2
	c1.1,2.4,2.1,4.8,3.1,7.2c0.1,0.3-0.3,1-0.6,1.3c-0.9,0.9,2.9,1.3,2,2.3c-0.5,0.6-0.9,1.4-1,2.2c-0.1,0.8,0.3,1.6,0.4,2.4
	c0.7-0.2,1.4-0.3,2-0.5c1.5-0.5,2.8-1.4,4.3-1.6c2.8-0.4,3.8,1.1,2.8,3.8c-0.4,1-0.6,2.1-1,3.5c2.9-0.1,5,0.3,6.1,2.9
	c0.3,0.8,1.5,1.2,2.7,2c-0.4,0.9-1,2.1-1.4,3.3c-0.3,0.9-0.9,2-0.6,2.6c0.2,0.5,2.2,0,4-0.5c0.2-0.8,0.2-1.6,0.4-2.5
	c0.7,0.1,6.5-3,7.1-2.9c0-0.4-0.1-0.7-0.1-1.3c0.6,0.3,1.2,0.4,1.6,0.7c1.2,0.9,2.3,5.2,3.5,4.6c1.6-0.8,5.3-0.4,3.2,1.4
	c1.1,3.2,2.8,10.4,5.5,8.3c1.3-15.8,5.9-14.5,6.8-17.6c1.6,0.2,3.1,0.5,4.6,0.4c1.6-0.1,2.3-1,2-2.7c-0.4-1.8,1.7-4.5,3.6-4.7
	c0.6-0.1,1.3,0,1.9-0.1c2-0.3,3-1.4,2.2-3.3c-1.4-3.2,0.2-5.5,1.9-7.8c1-1.5,0.6-2.9,0-4.4c-0.5-1.3-1.7-2.5,0.6-3.8
	c1.1-0.7,2.3-2.9,1.5-5.1c-0.8-2.1,0.3-3.5,2.7-3.8c0.7-0.1,1.4-0.1,2.1-0.3c2.2-0.7,3.5-3.5,2.6-5.7c-0.1-0.3-0.5-0.6-0.8-0.7
	c-1.5-0.3-3.1-0.7-4.6-0.8c-1.3-0.1-2.3,0.6-2.5,2.1c-0.2,1.5-1.4,1.9-2.3,1.6c-0.7-0.3-1.4-1.9-1.2-2.6c0.8-2,0.4-3.5-0.8-5.1
	c-0.7-0.8-0.9-2,0.3-2.8c1.5-1,0.5-1.6-0.3-2.3c-1.3-1.1-2.6-2.1-3.7-3.3c-1.1-1.2-0.7-2.2,0.9-2.8c0.3-0.1,0.7-0.2,0.9-0.4
	c1.5-1.7,3.3-2.2,5.5-2c1.3,0.1,2.5-1.9,1.9-3.1c-0.5-1-0.4-1.8,0-2.6c0.6,0.2,1.3,0.4,1.9,0.6c0.1,1.7-0.2,3.5,1.8,4.5
	c0.2,0.1,0.3,0.9,0.1,1.3c-0.5,1.2-0.5,1.9,1.1,1.5c0.2-0.1,0.5,0,0.7,0.1c0,0.4,0,0.9,0,1.3c0.7,0,1.7,0.2,2.3,0.1
	c0.2,0.1,0.4,0.1,0.6,0.2c4.4,0.4,7,2.9,8.7,6.7c0.6,1.3,1.2,2.5,2.6,0.6c0.2-0.2,0.7-0.3,1-0.3c2.1-0.1,2.9-1,3.1-3.1
	c0.1-0.8,0.5-2.2,0.9-2.3c1.1-0.2,2.5-0.1,3.2,0.6c0.6,0.5,0.7,2,0.5,2.9c-0.1,0.6-1.3,1.3-1.9,1.2c-1.8-0.3-2.2,0.8-2.2,2.1
	c0,1.1,0.1,2-1.3,2.6c-0.5,0.2-0.5,1.7-0.8,2.9c-0.2,0.1-0.8,0.3-1.5,0.6c0.1,0.1,0.2,0.1,0.4,0.2c-0.6,1.3-1.4,2.6-1.8,3.9
	c-0.2,0.7,0,1.7,0.2,2.5c0.1,0.5,0.7,0.9,1.1,1.4c-0.8,0.4-1.4,0.6-2,1c-0.4,0.3-0.5,0.9-0.8,1.4c0.5,0.2,0.9,0.7,1.4,0.7
	c2.2,0,2.2-0.1,1.9,2.3c-0.1,0.5,0.1,1,0.3,1.4c0.3,0.9,0.7,1.8,1.1,3c0.5,0,1.5,0.1,2.3,0.2c-0.1,1.1-0.2,2-0.3,3
	c1,0.1,2.1,0.1,3,0.2c-0.1,2.6-0.2,5.4-0.5,8.1c-0.2,2-3.1,4.6-5.1,4.6c-0.9,0-1.8,0.1-2.7,0.1c-1.8,0-3.2-0.4-4-2.6
	c-1-2.6-3.4-4.4-6-5.4c-0.1,0-0.3-0.1-0.4-0.1c-3,0.9-6.3,0.8-8.6,3.7c-2.9,3.7-2.7,7.4-1.1,11.4c0.1,0.3,0.3,0.8,0.6,0.9
	c3.5,1.6,7,3.6,11.2,2.4c0.8-0.2,1.8,0.1,2.4,0.1c-0.4,1.3-1.3,2.6-0.9,3.2c0.5,0.8,1.7,1.1,2.7,1.6c0.3-0.5,0.6-1,1-1.2
	c2.3-0.7,4.8-1.1,7.2-1.5c0.3,0,0.8,0.5,1,0.9c0.2,0.4,0.2,1,0.1,1.5c-0.5,2.1-0.3,3.4,2.2,4.2c1.2,0.4,1.9,2.4,2.7,3.7
	c0.6,0.9,0.9,2,1.5,2.8c0.3,0.4,1.2,0.5,1.8,0.6c0.8,0.2,1.8,0.1,2.2,0.5c0.6,0.6,0.9,1.7,0.9,2.6c0.1,1.1-0.2,2.3-0.3,3.4
	c0.2,0.1,0.5,0.2,0.7,0.3c0.4-0.5,0.8-1.1,1.2-1.6c0.3-0.4,0.7-0.8,1.1-1.2c0.4,0.4,0.7,0.8,1.1,1.1c0.5,0.4,0.9,1.1,1.4,1.3
	c1.4,0.5,1.9,1.4,1.7,2.8c-0.2,1.3-0.4,2.6-0.6,4c-0.1,0.7,0.1,1.3,0.2,2c0.3,0,0.5,0.1,0.8,0.1c0.4-0.8,0.8-1.6,1-2.4
	c0.3-1.1,0.2-2.3,0.5-3.4c0.2-0.8,0.9-1.9,1.5-1.9c1.3-0.1,1.4,1.2,1.4,2.2c0,0.9-0.1,1.8,0,2.7c0.1,0.6,0.4,1.2,0.6,1.7
	c0.2,0,0.5,0,0.7-0.1c0.2-1.3,0.3-2.5,0.5-3.8c0.1-1.3,0.2-2.6,2.1-2.4c-0.3,0.4-0.7,0.8-1.4,1.6c1.1-0.2,1.7-0.2,2.3-0.3
	c0.7-0.2,1.4-0.6,2.2-0.6c1.1-0.1,2.1-0.2,2.5-1.5c0.5-1.4,0.3-2.6-0.7-3.7c-0.4-0.5-1.1-0.9-1.3-1.4c-0.3-0.8-0.4-1.7-0.3-2.5
	c0.1-0.9,0.4-1.8,0.6-2.6c1.3-0.5,5.7,0.1,7.1,0c1.3-0.1,2.6,0.6,3.9,1.2c1.3,0.6,0.9,8.3,2.2,8.9c1.8,0.9,1-6.7,2.5-7.6
	c1.4-0.8,6.7-2.1,7.9-3.2c1.8-1.5,0.6-4.3,2.3-5.9c1.1-1,4.1,24.1,5.1,22.9c0.8-0.9-1,0,0-0.6c2.1-1.4,3.4-21.5,4.7-19.4
	c2,2.9,4.1-0.4,6.1-3.2c1.2-1.6,2.1-1.8,3.5-0.5c0.7,0.7,1.4,1.4,2.1,2.2c1.4,1.7,2.4,1.8,4.1,0.2c0.9-0.9,1.8-1.7,2.9-2.4
	c1.8-1.2,3.8-0.8,5.3,1.4c1.5,2.1,3,2.2,4.3-0.1c1.3-2.2,3.8-6.7,5.5-8.1c0.2-0.2,1.1,0.2,1.5,0.5c2,1.5,4.4,1.3,6.2-0.6
	c0.3-0.3,0.5-0.6,0.7-0.9c0.9-1.1,1.8-2.5,3.1,0c0.7-3.1,3.2-4.2,5.3-5.6c0.7-0.5,2,0.3,2.5-1c0.4,0.2,1,0.2,1.3,0.5
	c0.7,0.8,1.3,1.7,2,2.5c0.5,0.5,1.1,0.9,1.7,1.3c0.2-0.2,0.4-0.4,0.6-0.6c-0.6-1.1-1.2-2.3-1.8-3.4c-0.7-1.2-0.6-2.1,0.9-2.7
	c3.4-1.3,6-3.2,6.5-7.4c0.2-1.4,2.2-2.6,3.6-3.7c1.8-1.4,4.1-2.1,4.2-5.2c0-1.6,0.8-3.3,1.5-4.9c0.4-0.8,1.4-1.8,2.1-1.8
	c1.8-0.1,3.1-0.6,4.1-2.2c0.3-0.4,0.9-0.7,1.6-1.3c-1-1.1-2.2-2-2.8-3.2c-0.6-1.2-1-2.7-0.9-4c0.1-0.8,1.4-1.5,2.2-2.1
	c0.9-0.7,2.2-1,2.9-1.8c1-1.2,0.8-2.6-0.2-3.9c-0.5-0.7-1-1.6-1.3-2.5c-0.7-2.2-0.2-3.4,2-4c2.1-0.6,4.4-0.9,6.6-1
	c2.8-0.1,5.6-5.3,6-7.3c0.3-1.4-2.1,2.6-3.3,2.5c-3-0.3-5.9-0.9-8.9,0c-2.8,0.8-3.7-0.1-3.8-2.9c0-0.6-0.5-1.1-0.6-1.7
	c-0.1-0.6,6.7-1.7,7-2.1c0.7-1.1-6.7-1.4-7.5-2c-1.7-1.4-1.5-2.7,0.3-3.9c0.5-0.3,0.9-0.9,1.3-1.4c1.9-2.4,4.3-3.5,7.2-4.3
	c3-0.8,5.6-2.7,8.4-4.1C259.9,56.5,255.4,63.2,256.2,63z M94.6,143.4c-1.5,0.6-3.1,1-4.8,1.6c0.1-5.1,0.1-5.1-3.3-5.3
	c0.6-2.8,1.1-3.3,2.8-2.7c0.5,0.9,0.8,1.8,1.3,2.2c1.1,0.8,2.4,1.2,3.6,1.9c0.4,0.2,1.1,0.6,1.1,1C95.4,142.5,95,143.3,94.6,143.4z
	 M116.6,65.7c0.6-0.6,1.2-1.6,1.7-1.6c0.8,0,1.8,0.6,2.4,1.3c0.8,0.9,1.4,2.1,2.1,3.3c-1.3,2.1-3.2,2.7-5.5,1.8
	c0.1-0.7,0.1-1.4,0.1-2c0-0.3-0.8-0.7-1.7-1c0.3-0.6,0.7-1.1,0.8-1.7C116.5,65.8,116.5,65.7,116.6,65.7z M97.3,84.1
	C97.2,84,97,84,96.9,84c-0.2-0.4-0.5-0.9-0.5-1.3c0-0.3,0.5-0.8,0.8-0.8c1.2-0.1,2.4,0,3.5,0c0.2,1.7,0.2,1.7,2.7,3
	c0.9,0.4,1.4,1,1.6,1.5c0,0.1-0.1,0.3-0.1,0.5c0.1,0,0.1,0,0.2,0c0.1,0.8-0.4,1.6-1.6,2.3c-0.9-1-1.7-2.2-2.7-3
	C99.8,85.3,98.5,84.8,97.3,84.1z M111.7,82.4c-0.4,0.5-1.5,0.8-2.2,0.8c0,0,0,0-0.1,0c0-0.3,0-0.6,0-0.9c-1,0.1-2.3-0.1-2.9,0.3
	c-0.3-0.1-0.7-0.2-1-0.3c-1.9,0-3.6-1.6-2.7-2.3c1.4-1.1,3.1-2.1,4.9-2.6c0.6-0.2,1.7,1.1,2.5,1.8c0.4,0.3,0.8,0.7,1,1.1
	C111.5,80.9,112,82,111.7,82.4z M118.2,88.6c-0.6-0.1-1.3-0.4-1.9-0.6c0.1-0.3,0.2-0.7,0.4-1c0.7,0.2,1.4,0.4,2.1,0.7
	C118.6,88,118.3,88.6,118.2,88.6z M126.3,92c-0.9-0.3-1.7-0.5-2.6-0.8c0.2-0.2,0.4-0.4,0.6-0.6c0.8,0.3,1.5,0.6,2.3,0.8
	C126.4,91.6,126.4,91.8,126.3,92z M124.3,77.8c-3.6,0.5-6.4,0.1-7.6-4.2c1,0.7,2.1,1.3,3.1,2.1c0.8,0.6,1.4,0.6,2.4,0.6
	c1.8,0,3.6,0.8,5.3,1.3c0.4,0.1,0.5,0.9,0.9,1.5C126.8,78.6,125.5,77.6,124.3,77.8z M136.5,62.3c-0.6,2.5-1.9,4.3-3.6,6.1
	c-0.7,0.7-1.2,1.5-2.1,0.6c-0.2-0.2,0.3-1.3,0.6-1.9c0.3-0.7,0.8-1.3,1.3-1.9c0.6-0.7,1.2-1.3,2-2c-1.5-2-2.9-3.4-4.1-4.3
	c0.6-0.9,1.2-1.7,1.9-2.6c0.2,0.2,0.3,0.4,0.5,0.5c0.7,0.5,1.5,0.9,2.3,1.3C136.7,59.2,136.9,60.4,136.5,62.3z"/>
<radialGradient id="SVGID_3_" cx="132.5302" cy="46.9127" r="2.165" gradientUnits="userSpaceOnUse">
	<stop  offset="0" style="stop-color:#A62126"/>
	<stop  offset="1" style="stop-color:#821D22"/>
</radialGradient>
<path class="st2" d="M133.9,44.6c-1.1,0.2-2.7,0.1-3,0.6c-0.5,0.9-0.4,2.4,0,3.4c0.2,0.4,1.9,0.3,3.8,0.5
	C134.3,47.2,134.1,45.9,133.9,44.6z"/>
</svg>
