<?xml version="1.0" encoding="utf-8"?>
<!-- Generator: Adobe Illustrator 23.0.2, SVG Export Plug-In . SVG Version: 6.00 Build 0)  -->
<svg version="1.1" id="レイヤー_1" xmlns="http://www.w3.org/2000/svg" xmlns:xlink="http://www.w3.org/1999/xlink" x="0px"
	 y="0px" viewBox="0 0 111.3 101.8" style="enable-background:new 0 0 111.3 101.8;" xml:space="preserve">
<style type="text/css">
	.st0{fill:url(#SVGID_1_);}
	.st1{fill:url(#SVGID_2_);}
	.st2{fill:url(#SVGID_3_);}
	.st3{fill:url(#SVGID_4_);}
	.st4{fill:url(#SVGID_5_);}
	.st5{fill:url(#SVGID_6_);}
	.st6{fill:url(#SVGID_7_);}
</style>
<radialGradient id="SVGID_1_" cx="60.4012" cy="87.0159" r="14.8831" gradientUnits="userSpaceOnUse">
	<stop  offset="0" style="stop-color:#A62126"/>
	<stop  offset="1" style="stop-color:#821D22"/>
</radialGradient>
<path class="st0" d="M73,80.4c-1.5-6.6-4.9-7.7-12.4-8.1c-4.1,1-9,2.6-11.6,7.1c-2.8,4.7-5.3,9.7-2,15.3c1.5,2.6,3.2,4.7,6.6,5.3
	c1.8,0.3,3.5,1,5.2,1.6c3,1.1,7.4,0,9.5-2.2c1.4-1.4,3-2.7,4.1-4.3c1.9-2.9,4.3-5.7,2.1-9.5C73.6,83.9,73.4,82.1,73,80.4z"/>
<radialGradient id="SVGID_2_" cx="99.4254" cy="74.2282" r="12.2441" gradientUnits="userSpaceOnUse">
	<stop  offset="0" style="stop-color:#A62126"/>
	<stop  offset="1" style="stop-color:#821D22"/>
</radialGradient>
<path class="st1" d="M91.8,62.4c-1.7,0.9-3.2,2.2-4.2,2.9c0.2,2.2,0.2,4.2,0.5,6.2c0.3,1.8,0.9,3.5,1.5,5.2c0.6,1.7,1.4,3.4,1.8,5.1
	c0.6,2.7,5.2,6,7.8,4.8c3.5-1.6,7.1-3.3,10.2-5.5c1.3-0.9,2-3.1,2-4.7c0.2-4.5-2-8.2-5.3-11.3C103.1,62.3,95.1,60.6,91.8,62.4z"/>
<radialGradient id="SVGID_3_" cx="47.1082" cy="18.2518" r="5.5323" gradientUnits="userSpaceOnUse">
	<stop  offset="0" style="stop-color:#A62126"/>
	<stop  offset="1" style="stop-color:#821D22"/>
</radialGradient>
<path class="st2" d="M54,17.2c0.3-0.5,0.2-1.3,0.3-1.9c-3.5,0-6.8-0.6-9.7,0.2C42.7,16,41.4,18.4,40,20c-0.1,0.1,0.6,1,1.1,1.2
	C43.2,22.2,52.9,19.1,54,17.2z"/>
<radialGradient id="SVGID_4_" cx="72.6313" cy="32.1769" r="4.7916" gradientUnits="userSpaceOnUse">
	<stop  offset="0" style="stop-color:#A62126"/>
	<stop  offset="1" style="stop-color:#821D22"/>
</radialGradient>
<path class="st3" d="M74.4,27.6c-3,0.1-5.5,1.2-6.5,3.7c-1.5,3.6,4.1,2.7,3.9,5.4c2.3-1.7,4-2.9,5.8-4.2
	C75.7,31.7,79,27.5,74.4,27.6z"/>
<radialGradient id="SVGID_5_" cx="39.8384" cy="4.0612" r="4.6794" gradientUnits="userSpaceOnUse">
	<stop  offset="0" style="stop-color:#A62126"/>
	<stop  offset="1" style="stop-color:#821D22"/>
</radialGradient>
<path class="st4" d="M42.2,1.8c-1.6-1.8-4.9-2.5-6.9-1.1c-0.5,0.4-0.5,1.3-0.7,2c0,0.1,0.1,0.2,0.2,0.3c2.6,6.4,4.7,6.7,10.3,1.4
	C44,3.4,43,2.7,42.2,1.8z"/>
<radialGradient id="SVGID_6_" cx="3.6351" cy="38.0045" r="3.0884" gradientUnits="userSpaceOnUse">
	<stop  offset="0" style="stop-color:#A62126"/>
	<stop  offset="1" style="stop-color:#821D22"/>
</radialGradient>
<path class="st5" d="M0,37.6c2.3,1.2,3.8,2.2,5.4,2.8c0.4,0.1,1.2-0.9,1.8-1.5c-1.4-1.1-2.7-2.4-4.2-3.3C2.8,35.4,1.6,36.5,0,37.6z"
	/>
<radialGradient id="SVGID_7_" cx="18.8973" cy="67.7288" r="2.7362" gradientUnits="userSpaceOnUse">
	<stop  offset="0" style="stop-color:#A62126"/>
	<stop  offset="1" style="stop-color:#821D22"/>
</radialGradient>
<path class="st6" d="M19.3,65.4c-0.9,0-1.9,1.4-3.5,2.9c1.9,0.9,3.1,2,4.1,1.8c0.8-0.1,2.2-1.8,2-2.4C21.7,66.7,20.3,65.4,19.3,65.4
	z"/>
</svg>
