<?xml version="1.0" encoding="utf-8"?>
<!-- Generator: Adobe Illustrator 23.0.2, SVG Export Plug-In . SVG Version: 6.00 Build 0)  -->
<svg version="1.1" id="レイヤー_1" xmlns="http://www.w3.org/2000/svg" xmlns:xlink="http://www.w3.org/1999/xlink" x="0px"
	 y="0px" viewBox="0 0 261.9 175.4" style="enable-background:new 0 0 261.9 175.4;" xml:space="preserve">
<style type="text/css">
	.st0{fill:url(#SVGID_1_);}
	.st1{fill:url(#SVGID_2_);}
	.st2{fill:url(#SVGID_3_);}
	.st3{fill:url(#SVGID_4_);}
	.st4{fill:url(#SVGID_5_);}
	.st5{fill:url(#SVGID_6_);}
	.st6{fill:url(#SVGID_7_);}
	.st7{fill:url(#SVGID_8_);}
	.st8{fill:url(#SVGID_9_);}
	.st9{fill:url(#SVGID_10_);}
	.st10{fill:url(#SVGID_11_);}
	.st11{fill:url(#SVGID_12_);}
	.st12{fill:url(#SVGID_13_);}
	.st13{fill:url(#SVGID_14_);}
	.st14{fill:url(#SVGID_15_);}
	.st15{fill:url(#SVGID_16_);}
	.st16{fill:url(#SVGID_17_);}
	.st17{fill:url(#SVGID_18_);}
	.st18{fill:url(#SVGID_19_);}
	.st19{fill:url(#SVGID_20_);}
	.st20{fill:url(#SVGID_21_);}
	.st21{fill:url(#SVGID_22_);}
	.st22{fill:url(#SVGID_23_);}
	.st23{fill:url(#SVGID_24_);}
	.st24{fill:url(#SVGID_25_);}
	.st25{fill:url(#SVGID_26_);}
	.st26{fill:url(#SVGID_27_);}
	.st27{fill:url(#SVGID_28_);}
	.st28{fill:url(#SVGID_29_);}
	.st29{fill:url(#SVGID_30_);}
	.st30{fill:url(#SVGID_31_);}
	.st31{fill:url(#SVGID_32_);}
	.st32{fill:url(#SVGID_33_);}
	.st33{fill:url(#SVGID_34_);}
	.st34{fill:url(#SVGID_35_);}
	.st35{fill:url(#SVGID_36_);}
	.st36{fill:url(#SVGID_37_);}
	.st37{fill:url(#SVGID_38_);}
	.st38{fill:url(#SVGID_39_);}
	.st39{fill:url(#SVGID_40_);}
	.st40{fill:url(#SVGID_41_);}
	.st41{fill:url(#SVGID_42_);}
	.st42{fill:url(#SVGID_43_);}
	.st43{fill:url(#SVGID_44_);}
	.st44{fill:url(#SVGID_45_);}
	.st45{fill:url(#SVGID_46_);}
	.st46{fill:url(#SVGID_47_);}
	.st47{fill:url(#SVGID_48_);}
	.st48{fill:url(#SVGID_49_);}
	.st49{fill:url(#SVGID_50_);}
	.st50{fill:url(#SVGID_51_);}
	.st51{fill:url(#SVGID_52_);}
	.st52{fill:url(#SVGID_53_);}
	.st53{fill:url(#SVGID_54_);}
	.st54{fill:url(#SVGID_55_);}
	.st55{fill:url(#SVGID_56_);}
	.st56{fill:url(#SVGID_57_);}
	.st57{fill:url(#SVGID_58_);}
	.st58{fill:url(#SVGID_59_);}
	.st59{fill:url(#SVGID_60_);}
	.st60{fill:url(#SVGID_61_);}
	.st61{fill:url(#SVGID_62_);}
	.st62{fill:url(#SVGID_63_);}
	.st63{fill:url(#SVGID_64_);}
	.st64{fill:url(#SVGID_65_);}
	.st65{fill:url(#SVGID_66_);}
	.st66{fill:url(#SVGID_67_);}
	.st67{fill:url(#SVGID_68_);}
</style>
<radialGradient id="SVGID_1_" cx="-283.9153" cy="396.6209" r="12.0814" gradientUnits="userSpaceOnUse">
	<stop  offset="0" style="stop-color:#A62126"/>
	<stop  offset="1" style="stop-color:#821D22"/>
</radialGradient>
<path class="st0" d="M-273,400.1c-0.1-1.3-0.2-2.7-0.3-4c-0.1-1.2-0.3-2.4-0.5-3.6c-0.1-0.5-0.6-0.8-0.9-1.3
	c-3.4-5.7-8.6-7.6-15.2-5.3c-0.9,0.3-2.1,1-2.4,1.8c-1.5,4-3.2,8-4,12.1c-0.4,2.3,0.7,4.8,4.1,5.5c2,0.4,3.9,1.4,5.8,2.3
	c3.5,1.8,6.8-0.2,9.8-1.1c2.2-0.7,3.5-3.7,5.2-5.7C-272,400.5-272.5,400.3-273,400.1z"/>
<radialGradient id="SVGID_2_" cx="-255.6424" cy="114.1837" r="5.5831" gradientUnits="userSpaceOnUse">
	<stop  offset="0" style="stop-color:#A62126"/>
	<stop  offset="1" style="stop-color:#821D22"/>
</radialGradient>
<path class="st1" d="M-249,111.1c-3.8-1.1-7-2.3-9.9,0.8c-0.6,0.7-2.3,0.6-2.8,1.3c-1.7,2.2,0.4,3.9,1.8,4.8
	c1.1,0.7,3.6,0.3,4.8-0.5c1.6-1.1,2.4-3.1,3.6-4.7C-251,112.3-250.2,112-249,111.1z"/>
<radialGradient id="SVGID_3_" cx="-242.1314" cy="185.0096" r="1.9633" gradientUnits="userSpaceOnUse">
	<stop  offset="0" style="stop-color:#A62126"/>
	<stop  offset="1" style="stop-color:#821D22"/>
</radialGradient>
<path class="st2" d="M-244.2,184.8c1.2,0.9,2,1.5,2.7,2.1c0.5-0.7,1.6-1.5,1.4-1.9c-0.3-0.7-1.2-1.4-2.1-1.7
	C-242.5,183.1-243.3,184-244.2,184.8z"/>
<radialGradient id="SVGID_4_" cx="-252.834" cy="204.6568" r="2.0284" gradientUnits="userSpaceOnUse">
	<stop  offset="0" style="stop-color:#A62126"/>
	<stop  offset="1" style="stop-color:#821D22"/>
</radialGradient>
<path class="st3" d="M-251.7,207.2c-0.1-1.5-0.2-2.9-0.4-5.1c-2.9,2.3-2.1,3.8-0.8,5.2C-252.5,207.2-252.1,207.2-251.7,207.2z"/>
<radialGradient id="SVGID_5_" cx="-299.1208" cy="375.553" r="15.4788" gradientUnits="userSpaceOnUse">
	<stop  offset="0" style="stop-color:#A62126"/>
	<stop  offset="1" style="stop-color:#821D22"/>
</radialGradient>
<path class="st4" d="M-304.3,354.6c0.7,6.2,1.2,12.5,2.2,18.6c0.8,4.9,1.6,9.9,3.3,14.4c0.8,2.2,3.8,3.4,5.5,5.4
	c0.6,0.7,0.4,2.3,0.6,3.4c-1.2-0.1-3.1,0.3-3.5-0.4c-2.6-4.1-6.2-7.7-6.7-13.1c-0.8-7.9-1.7-15.7-2.5-23.5c-0.2-1.5,0.1-3.1,0.1-4.7
	C-305,354.7-304.6,354.7-304.3,354.6z"/>
<radialGradient id="SVGID_6_" cx="-246.9526" cy="306.9641" r="16.7275" gradientUnits="userSpaceOnUse">
	<stop  offset="0" style="stop-color:#A62126"/>
	<stop  offset="1" style="stop-color:#821D22"/>
</radialGradient>
<path class="st5" d="M-247.9,330.5c0-0.8,0.1-1.7,0.1-2.5c0.2-6.3,0.6-12.7,0.5-19c0-2.7-0.7-5.3-1.2-8c-0.2-1.5-0.6-3-0.7-4.6
	c-0.2-3.1-0.4-6.3-0.4-9.5c0-1.1,0.7-2.3,1.2-3.4c0.1-0.2,1.5,0,1.6,0.2c0.2,1.1,0.3,2.3,0,3.3c-1.1,3.5-0.9,6.8,0.1,10.2
	c1.2,4.1,1.6,8.4,2.3,12.6c0.1,0.4,0.1,0.9,0.1,1.3c-1,6.4-2,12.7-3,19.1C-247.6,330.3-247.8,330.4-247.9,330.5z"/>
<radialGradient id="SVGID_7_" cx="-175.8834" cy="132.451" r="41.5027" gradientUnits="userSpaceOnUse">
	<stop  offset="0" style="stop-color:#A62126"/>
	<stop  offset="1" style="stop-color:#821D22"/>
</radialGradient>
<path class="st6" d="M-141.5,160.5c-4-2-4.4-4-2.1-7.8c2-3.3,5.5-6,5.3-10.7c-0.1-2.6,1.3-5.2,2.1-7.9c-0.4,0-1.9,0-3.1,0
	c-0.4-5.3-0.7-10.2-1-14.9c1.4-1.1,2.9-2.2,4.4-3.3c-0.4-0.4-0.8-0.9-1.2-1.3c-1.8,0.9-3.6,1.8-6.2,3.1c0.5-2.1,0.7-3.1,0.6-2.9
	c-2.3-1.4-4.3-2.2-5.8-3.6c-1.4-1.2-2.1-3-3.3-4.3c-3.2-3.5-2.3-6.1,1.4-8.5c1.9-1.2,3.6-2.7,5.3-4c-0.4-0.5-0.8-1-1.2-1.5
	c-3.5,2.5-6.8,6.5-10.5,7c-3.9,0.5-8.3-2.4-12.3-3.7c0.2-2.8,0.4-4.7,0.5-6.7c-4.7,7.9-11.7,9.7-16.6,5.1c-1.4,1.9-2.5,4.3-4.3,5.4
	c-1.9,1.2-4.5,1.2-6.6,1.6c-0.3,1.2-0.5,3.8-0.9,3.9c-2,0.2-4.1-0.4-6.3-0.7c2.6,3.1,0.5,5.2-1.7,7.8c-2.4,2.9-4.7,6.3-5.6,9.8
	c-1,3.7-2.1,5.6-4.9,4.7c0.4,2.1,1.3,4.2,1.3,6.3c-0.1,5.3,1.5,10,5.4,13.5c3.1,2.8,2.6,4.8-0.1,7.3c-2.4,2.3-4.5,4.8-6.8,7.3
	c0.5,0.5,1,1,1.5,1.4c3.4-3.7,6.8-7.5,10.6-11.7c3,3.6,5.6,6.6,8.2,9.6c2.8,3.2,2.5,5.8-1.2,8.2c-1.9,1.2-3.5,2.8-5.2,4.3
	c0.5,0.6,1,1.1,1.4,1.7c2.1-1.8,4.3-3.6,6.2-5.6c2.2-2.2,4.5-3.2,7.6-1.7c2.6,1.3,5.5,2.2,8.1,3.2c-0.3,1.6-0.5,2.8-0.9,4.6
	c6-5.9,13.8-7.8,18-2.8c0.6-6.5,2.2-7.5,9.8-6.5c0.5-2.1,0.9-4.1,1.4-6.1c2.1,1.1,4.6,1.8,6.3,3.4c2.2,2,3.9,4.7,6,7.4
	C-135.2,165.3-135.8,163.4-141.5,160.5z"/>
<radialGradient id="SVGID_8_" cx="-212.6963" cy="1.8111" r="3.039" gradientUnits="userSpaceOnUse">
	<stop  offset="0" style="stop-color:#A62126"/>
	<stop  offset="1" style="stop-color:#821D22"/>
</radialGradient>
<path class="st7" d="M-209.5,4.2c-0.2-2.8-0.5-5.3-3.8-5.3c-2.1,0-2.9,1.8-2.3,3.6C-214.6,5.6-212.1,4.7-209.5,4.2z"/>
<radialGradient id="SVGID_9_" cx="-265.6751" cy="267.4998" r="41.5616" gradientUnits="userSpaceOnUse">
	<stop  offset="0" style="stop-color:#A62126"/>
	<stop  offset="1" style="stop-color:#821D22"/>
</radialGradient>
<path class="st8" d="M-219.9,286.3c-1.7-2-3.4-4-5.7-6.6c8.2-5.3,1.1-13.9,3.8-19.9c-6.2-4.4-12.5-8.9-17.9-12.7
	c-2.6,0.7-5.1,1.4-7.6,2.1c-1,0.3-2.4,0.2-3.1,0.8c-2.8,2.4-4.9,1.5-6.6-1.2c-1.6-2.6-5.3-5-1.2-8.4c1.6-1.3,3.2-2.7,4.7-4.1
	c-4.2,1.2-7.8,4.2-11.4,4.1c-3.9-0.1-9.3-1.7-6.7-9.7c-5.1,8-9.7,9.3-14.7,5.3c-0.8,4.8-3.3,6.5-8,5.9c-0.7,1.6-1.4,3-2.1,4.4
	c-1.3-0.9-2.8-1.6-3.8-2.8c-1.9-2-3.5-4.3-5.2-6.4c-0.5,0.4-0.9,0.8-1.4,1.2c1.9,2.2,3.7,4.5,5.6,6.7c1.9,2.1,1.9,3.7-0.2,5.9
	c-2.2,2.4-4.5,5.3-5.1,8.3c-0.7,3.5-1.9,4.9-5.1,4c2,6.4,4,12.5,6.2,19.5c-0.1,0.1-1.1,1.3-3.1,3.7c3.6-0.5,5.8-0.8,8.5-1.2
	c1.6,1.9,3.4,4.2,5.4,6.5c2.6,3,1.8,5.3-1.2,7.5c-1.3,0.9-2.4,2.1-3.6,3.2c4.1-1.1,7.4-4.5,10.9-4.6c2.8-0.1,8.6,0,7.7,6.7
	c5.3-5.2,10-5.9,14.5-2.5c0.6-5.4,2.6-6.6,8-5.4c0.3-1.6,0.7-3.3,1-4.9c1.7,0.9,3.7,1.5,5.2,2.7c1.9,1.6,3.3,3.7,5.2,6
	c2.4-3.8,1-5.8-1.3-7.6c-1.2-0.9-2.7-1.5-3.7-2.5c-0.6-0.5-1-1.8-0.7-2.5c0.3-0.6,1.8-1.3,2.2-1.1c4,2.6,8.3,1.7,12.6,1.2
	c4-0.5,7.3-2.1,10.3-5.6c2,1.7,4.1,3.5,6.2,5.3C-220.8,287.2-220.3,286.7-219.9,286.3z"/>
<radialGradient id="SVGID_10_" cx="86.8484" cy="149.327" r="0.4007" gradientUnits="userSpaceOnUse">
	<stop  offset="0" style="stop-color:#A62126"/>
	<stop  offset="1" style="stop-color:#821D22"/>
</radialGradient>
<path class="st9" d="M87.2,149c-0.1,0-0.1-0.1-0.2-0.1c-0.2,0.3-0.3,0.6-0.5,0.9C86.7,149.5,87,149.3,87.2,149z"/>
<radialGradient id="SVGID_11_" cx="28.5096" cy="150.2569" r="0.1353" gradientUnits="userSpaceOnUse">
	<stop  offset="0" style="stop-color:#A62126"/>
	<stop  offset="1" style="stop-color:#821D22"/>
</radialGradient>
<path class="st10" d="M28.3,150.2c0.1,0,0.2,0.1,0.3,0.1C28.8,150.2,28.6,150.2,28.3,150.2z"/>
<radialGradient id="SVGID_12_" cx="130.9265" cy="87.6886" r="111.4249" gradientUnits="userSpaceOnUse">
	<stop  offset="0" style="stop-color:#A62126"/>
	<stop  offset="1" style="stop-color:#821D22"/>
</radialGradient>
<path class="st11" d="M256.2,63c0.9-0.2,3.8-7.1,5.6-10.3c-0.1,0.2-0.3,0.4-0.5,0.5c-2.4,2.3-5.3,2.3-8.2,2.8
	c-2.7,0.5-5.3,1.8-8,2.6c-1.5,0.4-3,0.6-4.5,0.9c-3.1,0.5-3.8-2.5-5.5-3.9c-0.1-0.1,0-0.7,0.2-1c0.2-0.4,0.5-0.8,0.9-1
	c3.1-1.6,4.5-4.1,3.8-7.8c-1.4-0.3-3-0.6-4.1,1.4c-0.4,0.7-1.2,1.3-1.9,1.9c-0.2,0.2-0.9,0.4-1,0.2c-1.5-1.9-4.7-2-5.1-5.1
	c-0.1-0.8-0.8-1.6-1.2-2.4c-0.6-1.2-0.6-2.3,0.3-3.5c0.5-0.7,0.5-1.9,0.5-2.9c0-0.7-0.4-1.3-0.6-2c-0.2-1.2,0.1-2,1.5-2
	c0.5,0,7.1-2.3,7.3-2.6c0.3-0.4-5.6,1.1-5.5,0.6c-0.5,0-1.3-0.2-1.4,0c-0.9,1.2-1.7,1.3-2.8,0.3c-0.2-0.2-1.1,0.2-1.4,0.5
	c-1.3,1.5-2.6,3-4,4.7c-1.3-1.9-1.4-3.3,0.2-4.8c1.7-1.6,0.8-7.8-1.3-8.9c-3.3-1.7-4.6-6-4.1-9.5c0.1-0.8,1-1.4,1.6-2.3
	c0.2-0.5,0.7-1.2,0.8-1.9C218,5.8,218,4,218,2.3c0-0.1-0.7-0.4-0.8-0.3c-0.6,0.6-1.3,1.2-1.6,2c-0.9,2.5-1.6,5.1-2.5,7.6
	c-0.2,0.6-0.9,1-1.3,1.4c-0.5-1.4-0.7-2.5-1.3-3.3c-0.4-0.4-1.8-0.5-2.2-0.2c-0.6,0.4-0.8,1.5-0.9,2.3c-0.1,0.6,0.3,1.2,0.5,1.8
	c0.3,1.3-0.3,1.9-1.6,2.1c-1.4,0.2-2.7,0.6-4,0.9c-1.5,0.4-3.1-0.8-3.4-2.3c-0.1-0.7-0.6-1.3-1-1.9c-0.1-0.2-0.4-0.2-0.4-0.4
	c-0.1-2.7-2-3.1-4.1-3.2c-0.2,0-0.7-1.2-0.6-1.7c0.2-1.2,0.7-2.3,1.1-3.4c-1.9-0.7-3.5-1.3-5.1-1.9c-0.2,0.6-0.4,1.2-0.7,2.3
	c-1.5-1.1-2.9-2.1-4.4-3.1c-0.1,0.2-0.4,0.5-0.7,0.9c-0.5,0.8-1,1.1-2,0.7c-1.2-0.5-2.6-0.7-3.8-1.1c-0.6-0.2-1.3-0.5-1.7-0.9
	c-1.2-1.1-2-1-2.6,0.7c-0.4,1.2,0,2.9-2,2.9c-1.2,0-2.5,0.2-3.6,0c-1.8-0.3-2.5,0-2.6,2c-0.1,1.4-0.6,1.9-2,1.8
	c-1.5-0.1-2.2,0.8-2.6,2.2c-0.4,1.4,0.4,5.2-0.5,6.2c-1.4,1.5,1.6,8.9-2.2,11.3c-2-0.2-13.8-13.9-11.4-6.2c-0.3,2.3,0.7,6.4,0.5,8.8
	c-0.1,1.1,0.2,2.3,0,3.4c-0.4,3.6,1.3,6.7,1.7,10.2c0.5,0.1,1.1,0.3,1.7,0.5c-0.5,1.1-0.8,2.2-1.3,3.1c-0.2,0.3-0.8,0.7-1.1,0.6
	c-1.1-0.3-2.5-0.6-3.3-1.3c-2.1-2-3.9-4.3-5.8-6.5c-0.2-0.2-0.2-0.5-0.3-0.7c-2.3-1.6-4.7-3.1-7.1-4.6c-0.4-0.3-1.2,0-1.9,0.1
	c0.1,0.8-0.1,1.7,0.3,2.3c1.1,1.9,2.3,3.6,3.6,5.4c1,1.4,2.2,2.6,3.1,4c1.1,1.5,2,3.2,2.8,4.8c0.2,0.3-0.1,1-0.3,1.3
	c-0.1,0.2-0.8,0-1.2-0.2c-0.5-0.2-0.9-0.7-1.4-1c-1.1-0.7-2.2-0.9-3-0.6c0.2-0.2,0.5-0.5,0.7-0.7c-3.2-1.1-6.1-2.1-9-3.1
	c-1.9,2.7-3.8,5.3-5.6,7.8c0.3,0,0.6,0,0.9,0.1c0.1,0.8,0.5,1.7,0.2,2.3c-0.4,0.6-0.7,1.2-0.9,1.8c-2.2-1.7-3-4-2.2-6.8
	c0.5-1.9,1.8-3.6,3-5.2c1.1-1.4,1.9-4.6,0.9-6.2c-0.8-1.1-1.9-1.9-3-2.7c-1.4-1.1-2.9-2.2-4.4-3.3c-0.8-0.6-1.7-1.3-2.6-1.7
	c-1.6-0.6-3.1-2.8-2.6-4.5c0.4-1.5,0.3-2.5-1.3-3c-1.2-0.4-2.8,0.6-3.2,2c-0.8,2.9-3,4.3-5.4,5.5c-1.1,0.5-1.9,0.1-2.5-1
	c-0.7-1.3-1.4-2.5-2.2-3.7c-0.7-1.1-2.6-1-3.7-0.1c-1.7,1.6-1.9,2.9-0.9,5.1c-0.4,0.7-0.7,1.3-1.2,1.9c-0.4,0.5-0.8,1.1-1.3,1.2
	c-0.5,0.1-1.1-0.5-1.5-0.9c-0.3-0.3-0.6-0.9-0.7-1.3c-0.7-3.4-2.8-5.1-6.2-5.2c-2.7-0.1-15.6-3.2-18.3-3.4c-1-0.1-1.6,0.2-2.2,1.3
	c-1.5,3.2,6.9,9,5.4,12.2c-0.3,0.6-0.1,1.7,0.4,2.2c0.9,1,2.2,1.7,3.3,2.6c0.4,0.3,0.7,0.7,1,1.1c0.2,0.3,0.3,0.9,0.5,1
	c1.7,0.5,2.3,1.7,2.7,3c-2.1,1-4,2.4-5.4,4.5c-1.5-1.6-3.1-2.9-5.3-3.6c-1.3-0.4-3.2,0.5-4.5,1.2c-1.7,0.9-2.9,2.6-5.1,3
	c-1.5,0.2-3.2,1-4.3,2c-1.2,1.2-1.8,3.1-2.7,4.6c-0.5,0.9-0.9,2-1.6,2.7c-1.4,1.4-1.6,2.9-0.9,4.8c-1.5,0.5-3.6,0.9-2.8,3.1
	c0.4,1,1.9,1.6,2.9,2.4c0.2-0.1,0.3-0.3,0.5-0.4c0,0.8,0,1.5,0,2.2c-1-0.5-2.3-1.5-2.9-1.2c-0.9,0.4-1.2,1.9-1.9,3.1
	c-0.3-0.3-0.9-0.5-1.2-1c-1.3-2.1-3.4-2-5.4-2.1c-0.6,0-1.2,1.3-1.8,2c-0.7,0.7-5.6-3.6-6.3-2.9c-0.7-1-1.5-1.9-2.1-2.9
	c-0.3-0.4-0.2-1.2-0.5-1.4c-0.7-0.5-1.7-1.2-2.3-1c-0.6,0.2-1.4,1.6-1.2,2.2c0.5,1.5,1.4,3,2.3,4.3c0.7,0.9,0.9,1.5-0.1,2.4
	c-1.2,1-2.2,2.3-3.1,3.6c-0.7,1-1.3,1.4-2.5,1.2c-2.6-0.4-3.2,0-3.2,2.7c0,1.5,0.3,3,0.6,4.5c0.4,1.7-5.2,3.2-7,3.4
	c-0.7,0-1.4,0.1-2,0.4c-2.1,1-2.1,2.6-0.2,3.9c1.6,1.1,6,8.4,4.8,9.9c-0.3,0.4-0.6,1-0.6,1.5c0.1,2.2-5.1,7.6-4.8,9.7
	c0.1,0.8,1,1.4,1.3,2.2c1.1,2.4,2.1,4.8,3.1,7.2c0.1,0.3-0.3,1-0.6,1.3c-0.9,0.9,2.9,1.3,2,2.3c-0.5,0.6-0.9,1.4-1,2.2
	c-0.1,0.8,0.3,1.6,0.4,2.4c0.7-0.2,1.4-0.3,2-0.5c1.5-0.5,2.8-1.4,4.3-1.6c2.8-0.4,3.8,1.1,2.8,3.8c-0.4,1-0.6,2.1-1,3.5
	c2.9-0.1,5,0.3,6.1,2.9c0.3,0.8,1.5,1.2,2.7,2c-0.4,0.9-1,2.1-1.4,3.3c-0.3,0.9-0.9,2-0.6,2.6c0.2,0.5,2.2,0,4-0.5
	c0.2-0.8,0.2-1.6,0.4-2.5c0.7,0.1,6.5-3,7.1-2.9c0-0.4-0.1-0.7-0.1-1.3c0.6,0.3,1.2,0.4,1.6,0.7c1.2,0.9,2.3,5.2,3.5,4.6
	c1.6-0.8,5.3-0.4,3.2,1.4c1.1,3.2,2.8,10.4,5.5,8.3c1.3-15.8,5.9-14.5,6.8-17.6c1.6,0.2,3.1,0.5,4.6,0.4c1.6-0.1,2.3-1,2-2.7
	c-0.4-1.8,1.7-4.5,3.6-4.7c0.6-0.1,1.3,0,1.9-0.1c2-0.3,3-1.4,2.2-3.3c-1.4-3.2,0.2-5.5,1.9-7.8c1-1.5,0.6-2.9,0-4.4
	c-0.5-1.3-1.7-2.5,0.6-3.8c1.1-0.7,2.3-2.9,1.5-5.1c-0.8-2.1,0.3-3.5,2.7-3.8c0.7-0.1,1.4-0.1,2.1-0.3c2.2-0.7,3.5-3.5,2.6-5.7
	c-0.1-0.3-0.5-0.6-0.8-0.7c-1.5-0.3-3.1-0.7-4.6-0.8c-1.3-0.1-2.3,0.6-2.5,2.1c-0.2,1.5-1.4,1.9-2.3,1.6c-0.7-0.3-1.4-1.9-1.2-2.6
	c0.8-2,0.4-3.5-0.8-5.1c-0.7-0.8-0.9-2,0.3-2.8c1.5-1,0.5-1.6-0.3-2.3c-1.3-1.1-2.6-2.1-3.7-3.3c-1.1-1.2-0.7-2.2,0.9-2.8
	c0.3-0.1,0.7-0.2,0.9-0.4c1.5-1.7,3.3-2.2,5.5-2c1.3,0.1,2.5-1.9,1.9-3.1c-0.5-1-0.4-1.8,0-2.6c0.6,0.2,1.3,0.4,1.9,0.6
	c0.1,1.7-0.2,3.5,1.8,4.5c0.2,0.1,0.3,0.9,0.1,1.3c-0.5,1.2-0.5,1.9,1.1,1.5c0.2-0.1,0.5,0,0.7,0.1c0,0.4,0,0.9,0,1.3
	c0.7,0,1.7,0.2,2.3,0.1c0.2,0.1,0.4,0.1,0.6,0.2c4.4,0.4,7,2.9,8.7,6.7c0.6,1.3,1.2,2.5,2.6,0.6c0.2-0.2,0.7-0.3,1-0.3
	c2.1-0.1,2.9-1,3.1-3.1c0.1-0.8,0.5-2.2,0.9-2.3c1.1-0.2,2.5-0.1,3.2,0.6c0.6,0.5,0.7,2,0.5,2.9c-0.1,0.6-1.3,1.3-1.9,1.2
	c-1.8-0.3-2.2,0.8-2.2,2.1c0,1.1,0.1,2-1.3,2.6c-0.5,0.2-0.5,1.7-0.8,2.9c-0.2,0.1-0.8,0.3-1.5,0.6c0.1,0.1,0.2,0.1,0.4,0.2
	c-0.6,1.3-1.4,2.6-1.8,3.9c-0.2,0.7,0,1.7,0.2,2.5c0.1,0.5,0.7,0.9,1.1,1.4c-0.8,0.4-1.4,0.6-2,1c-0.4,0.3-0.5,0.9-0.8,1.4
	c0.5,0.2,0.9,0.7,1.4,0.7c2.2,0,2.2-0.1,1.9,2.3c-0.1,0.5,0.1,1,0.3,1.4c0.3,0.9,0.7,1.8,1.1,3c0.5,0,1.5,0.1,2.3,0.2
	c-0.1,1.1-0.2,2-0.3,3c1,0.1,2.1,0.1,3,0.2c-0.1,2.6-0.2,5.4-0.5,8.1c-0.2,2-3.1,4.6-5.1,4.6c-0.9,0-1.8,0.1-2.7,0.1
	c-1.8,0-3.2-0.4-4-2.6c-1-2.6-3.4-4.4-6-5.4c-0.1,0-0.3-0.1-0.4-0.1c-3,0.9-6.3,0.8-8.6,3.7c-2.9,3.7-2.7,7.4-1.1,11.4
	c0.1,0.3,0.3,0.8,0.6,0.9c3.5,1.6,7,3.6,11.2,2.4c0.8-0.2,1.8,0.1,2.4,0.1c-0.4,1.3-1.3,2.6-0.9,3.2c0.5,0.8,1.7,1.1,2.7,1.6
	c0.3-0.5,0.6-1,1-1.2c2.3-0.7,4.8-1.1,7.2-1.5c0.3,0,0.8,0.5,1,0.9c0.2,0.4,0.2,1,0.1,1.5c-0.5,2.1-0.3,3.4,2.2,4.2
	c1.2,0.4,1.9,2.4,2.7,3.7c0.6,0.9,0.9,2,1.5,2.8c0.3,0.4,1.2,0.5,1.8,0.6c0.8,0.2,1.8,0.1,2.2,0.5c0.6,0.6,0.9,1.7,0.9,2.6
	c0.1,1.1-0.2,2.3-0.3,3.4c0.2,0.1,0.5,0.2,0.7,0.3c0.4-0.5,0.8-1.1,1.2-1.6c0.3-0.4,0.7-0.8,1.1-1.2c0.4,0.4,0.7,0.8,1.1,1.1
	c0.5,0.4,0.9,1.1,1.4,1.3c1.4,0.5,1.9,1.4,1.7,2.8c-0.2,1.3-0.4,2.6-0.6,4c-0.1,0.7,0.1,1.3,0.2,2c0.3,0,0.5,0.1,0.8,0.1
	c0.4-0.8,0.8-1.6,1-2.4c0.3-1.1,0.2-2.3,0.5-3.4c0.2-0.8,0.9-1.9,1.5-1.9c1.3-0.1,1.4,1.2,1.4,2.2c0,0.9-0.1,1.8,0,2.7
	c0.1,0.6,0.4,1.2,0.6,1.7c0.2,0,0.5,0,0.7-0.1c0.2-1.3,0.3-2.5,0.5-3.8c0.1-1.3,0.2-2.6,2.1-2.4c-0.3,0.4-0.7,0.8-1.4,1.6
	c1.1-0.2,1.7-0.2,2.3-0.3c0.7-0.2,1.4-0.6,2.2-0.6c1.1-0.1,2.1-0.2,2.5-1.5c0.5-1.4,0.3-2.6-0.7-3.7c-0.4-0.5-1.1-0.9-1.3-1.4
	c-0.3-0.8-0.4-1.7-0.3-2.5c0.1-0.9,0.4-1.8,0.6-2.6c1.3-0.5,5.7,0.1,7.1,0c1.3-0.1,2.6,0.6,3.9,1.2c1.3,0.6,0.9,8.3,2.2,8.9
	c1.8,0.9,1-6.7,2.5-7.6c1.4-0.8,6.7-2.1,7.9-3.2c1.8-1.5,0.6-4.3,2.3-5.9c1.1-1,4.1,24.1,5.1,22.9c0.8-0.9-1,0,0-0.6
	c2.1-1.4,3.4-21.5,4.7-19.4c2,2.9,4.1-0.4,6.1-3.2c1.2-1.6,2.1-1.8,3.5-0.5c0.7,0.7,1.4,1.4,2.1,2.2c1.4,1.7,2.4,1.8,4.1,0.2
	c0.9-0.9,1.8-1.7,2.9-2.4c1.8-1.2,3.8-0.8,5.3,1.4c1.5,2.1,3,2.2,4.3-0.1c1.3-2.2,3.8-6.7,5.5-8.1c0.2-0.2,1.1,0.2,1.5,0.5
	c2,1.5,4.4,1.3,6.2-0.6c0.3-0.3,0.5-0.6,0.7-0.9c0.9-1.1,1.8-2.5,3.1,0c0.7-3.1,3.2-4.2,5.3-5.6c0.7-0.5,2,0.3,2.5-1
	c0.4,0.2,1,0.2,1.3,0.5c0.7,0.8,1.3,1.7,2,2.5c0.5,0.5,1.1,0.9,1.7,1.3c0.2-0.2,0.4-0.4,0.6-0.6c-0.6-1.1-1.2-2.3-1.8-3.4
	c-0.7-1.2-0.6-2.1,0.9-2.7c3.4-1.3,6-3.2,6.5-7.4c0.2-1.4,2.2-2.6,3.6-3.7c1.8-1.4,4.1-2.1,4.2-5.2c0-1.6,0.8-3.3,1.5-4.9
	c0.4-0.8,1.4-1.8,2.1-1.8c1.8-0.1,3.1-0.6,4.1-2.2c0.3-0.4,0.9-0.7,1.6-1.3c-1-1.1-2.2-2-2.8-3.2c-0.6-1.2-1-2.7-0.9-4
	c0.1-0.8,1.4-1.5,2.2-2.1c0.9-0.7,2.2-1,2.9-1.8c1-1.2,0.8-2.6-0.2-3.9c-0.5-0.7-1-1.6-1.3-2.5c-0.7-2.2-0.2-3.4,2-4
	c2.1-0.6,4.4-0.9,6.6-1c2.8-0.1,5.6-5.3,6-7.3c0.3-1.4-2.1,2.6-3.3,2.5c-3-0.3-5.9-0.9-8.9,0c-2.8,0.8-3.7-0.1-3.8-2.9
	c0-0.6-0.5-1.1-0.6-1.7c-0.1-0.6,6.7-1.7,7-2.1c0.7-1.1-6.7-1.4-7.5-2c-1.7-1.4-1.5-2.7,0.3-3.9c0.5-0.3,0.9-0.9,1.3-1.4
	c1.9-2.4,4.3-3.5,7.2-4.3c3-0.8,5.6-2.7,8.4-4.1C259.9,56.5,255.4,63.2,256.2,63z M94.6,143.4c-1.5,0.6-3.1,1-4.8,1.6
	c0.1-5.1,0.1-5.1-3.3-5.3c0.6-2.8,1.1-3.3,2.8-2.7c0.5,0.9,0.8,1.8,1.3,2.2c1.1,0.8,2.4,1.2,3.6,1.9c0.4,0.2,1.1,0.6,1.1,1
	C95.4,142.5,95,143.3,94.6,143.4z M116.6,65.7c0.6-0.6,1.2-1.6,1.7-1.6c0.8,0,1.8,0.6,2.4,1.3c0.8,0.9,1.4,2.1,2.1,3.3
	c-1.3,2.1-3.2,2.7-5.5,1.8c0.1-0.7,0.1-1.4,0.1-2c0-0.3-0.8-0.7-1.7-1c0.3-0.6,0.7-1.1,0.8-1.7C116.5,65.8,116.5,65.7,116.6,65.7z
	 M97.3,84.1C97.2,84,97,84,96.9,84c-0.2-0.4-0.5-0.9-0.5-1.3c0-0.3,0.5-0.8,0.8-0.8c1.2-0.1,2.4,0,3.5,0c0.2,1.7,0.2,1.7,2.7,3
	c0.9,0.4,1.4,1,1.6,1.5c0,0.1-0.1,0.3-0.1,0.5c0.1,0,0.1,0,0.2,0c0.1,0.8-0.4,1.6-1.6,2.3c-0.9-1-1.7-2.2-2.7-3
	C99.8,85.3,98.5,84.8,97.3,84.1z M111.7,82.4c-0.4,0.5-1.5,0.8-2.2,0.8c0,0,0,0-0.1,0c0-0.3,0-0.6,0-0.9c-1,0.1-2.3-0.1-2.9,0.3
	c-0.3-0.1-0.7-0.2-1-0.3c-1.9,0-3.6-1.6-2.7-2.3c1.4-1.1,3.1-2.1,4.9-2.6c0.6-0.2,1.7,1.1,2.5,1.8c0.4,0.3,0.8,0.7,1,1.1
	C111.5,80.9,112,82,111.7,82.4z M118.2,88.6c-0.6-0.1-1.3-0.4-1.9-0.6c0.1-0.3,0.2-0.7,0.4-1c0.7,0.2,1.4,0.4,2.1,0.7
	C118.6,88,118.3,88.6,118.2,88.6z M126.3,92c-0.9-0.3-1.7-0.5-2.6-0.8c0.2-0.2,0.4-0.4,0.6-0.6c0.8,0.3,1.5,0.6,2.3,0.8
	C126.4,91.6,126.4,91.8,126.3,92z M124.3,77.8c-3.6,0.5-6.4,0.1-7.6-4.2c1,0.7,2.1,1.3,3.1,2.1c0.8,0.6,1.4,0.6,2.4,0.6
	c1.8,0,3.6,0.8,5.3,1.3c0.4,0.1,0.5,0.9,0.9,1.5C126.8,78.6,125.5,77.6,124.3,77.8z M136.5,62.3c-0.6,2.5-1.9,4.3-3.6,6.1
	c-0.7,0.7-1.2,1.5-2.1,0.6c-0.2-0.2,0.3-1.3,0.6-1.9c0.3-0.7,0.8-1.3,1.3-1.9c0.6-0.7,1.2-1.3,2-2c-1.5-2-2.9-3.4-4.1-4.3
	c0.6-0.9,1.2-1.7,1.9-2.6c0.2,0.2,0.3,0.4,0.5,0.5c0.7,0.5,1.5,0.9,2.3,1.3C136.7,59.2,136.9,60.4,136.5,62.3z"/>
<radialGradient id="SVGID_13_" cx="262.0469" cy="52.4029" r="0.2663" gradientUnits="userSpaceOnUse">
	<stop  offset="0" style="stop-color:#A62126"/>
	<stop  offset="1" style="stop-color:#821D22"/>
</radialGradient>
<path class="st12" d="M261.9,52.7c0.2-0.2,0.3-0.4,0.4-0.6C262.1,52.3,262,52.5,261.9,52.7z"/>
<radialGradient id="SVGID_14_" cx="262.6601" cy="51.1073" r="0.749" gradientUnits="userSpaceOnUse">
	<stop  offset="0" style="stop-color:#A62126"/>
	<stop  offset="1" style="stop-color:#821D22"/>
</radialGradient>
<path class="st13" d="M263.1,51.2c-0.2-2.1-0.1-0.6-0.8,0.9C262.6,51.5,262.9,51.2,263.1,51.2z"/>
<radialGradient id="SVGID_15_" cx="26.5554" cy="150.7852" r="1.323" gradientUnits="userSpaceOnUse">
	<stop  offset="0" style="stop-color:#A62126"/>
	<stop  offset="1" style="stop-color:#821D22"/>
</radialGradient>
<path class="st14" d="M28.3,150.2c-0.7-0.1-2,0.2-3.4,0.6c0,0.1-0.1,0.3-0.1,0.4C24.5,151.9,27.3,150.5,28.3,150.2z"/>
<radialGradient id="SVGID_16_" cx="176.3584" cy="405.8152" r="75.7149" gradientUnits="userSpaceOnUse">
	<stop  offset="0" style="stop-color:#A62126"/>
	<stop  offset="1" style="stop-color:#821D22"/>
</radialGradient>
<path class="st15" d="M241,402c-10.8-1.6-10.7-1.6-10.1-11.6c0.1-1.4-0.4-2.9-1-4.2c-2.2-4.5-4.3-9.1-6.9-13.4
	c-1.1-1.9-2.8-4.1-4.7-4.7c-4.9-1.6-6.5-3.5-5.5-8.2c1.5-7,1.5-7-6.1-7.3c-4.2-0.1-5.8-1.4-5.1-4.1c1.7-0.8,3.5-1.4,5.5-1.7
	c1.4-0.3,3.3-1.6,3.7-2.9c0.4-1.3-0.3-3.3-1.2-4.6c-1.2-1.7-3-3.1-4.6-4.5c-1.7-1.6-3.5-1.4-5.1,0c-1.6,1.4-1.8,2.8-0.3,4.5
	c1.2,1.4,1.8,2.6,1.9,3.8c-4.2,3.5-7.6,6.4-10.4,8.7c-2.8-3.4-4.6-6-6.9-8c-0.3-0.3-3.4,2.2-5.3,3.6c-2.5,0.8-5.5,1.9-8.5,2.7
	c-1.1,0.3-3.3,0.3-3.6-0.1c-2.9-5.9-6.7-1.8-10.2-0.9c-1.4,0.4-3,1.4-4.1,1c-4.5-1.5-6.7-0.6-8.7,3.7c-1.2,2.5-2.7,4.8-4.2,7.3
	c-2-1.1-3.7-2.1-5.3-3c0.7-0.4,1.4-0.9,2-1.2c-0.8-0.8-1.5-2.1-2.5-2.4c-2.6-0.7-6-0.1-8-1.4c-4.1-2.7-7.8-6.2-11.3-9.7
	c-4.4-4.4-8.5-9.1-12.7-13.6c-0.3,0.2-0.6,0.4-0.9,0.6c0.9,1.3,1.6,2.6,2.6,3.8c5.3,5.8,10.6,11.5,15.9,17.3
	c3.3,3.6,7.9,4.8,12.3,6.4c0,0.1,0.1,0.2,0.1,0.4c-2.5,1.6-5.4,2.9-7.5,4.9c-1.3,1.2-1.5,3.6-2.5,6.3c-3.2,1.1-7.9,2.3-6.1,8.5
	c0.2,0.8-3,2.5-4.8,3.7c-1.8,1.3-5.3,2.5-5.3,3.6c0.2,3,2.8,4.3,6.2,3.7c0.9-0.1,1.9,0.4,3,1.8c-1.1,0.4-2.3,0.6-3.3,1.1
	c-1.7,0.8-3.2,1.8-4.9,2.7c1.4,1.2,2.8,2.4,4.2,3.6c0.4,0.3,0.9,0.4,1.6,0.7c-0.1,5.6-0.9,10.8-7,13.9c-3,1.5-1.2,3.3,0.5,4.7
	c3.8,3.2,7.9,6.1,11.2,9.7c1.6,1.7,2.3,4.6,2.3,6.9c-0.1,3,0.2,4.8,3.9,5.1c5.6,0.5,11.1,7.8,10,12.9c-1.7,8.4,6.3,15.9,15.3,14.3
	c4.2-0.8,4.8-3.8,5.5-7c0.4-1.7,2-3.3,3.5-4.6c0.4-0.3,2.4,0.4,3.1,1.1c0.4,0.4-0.2,1.8-0.5,2.7c-0.7,2.1-1.8,4.1-2.3,6.2
	c-0.8,3.3-1.5,6.8-1.7,10.2c-0.1,2.1,0.4,4.9,1.8,6.1c1.2,1.1,5,1.2,6.2,0.2c2-1.7,3.5-4.5,3.9-7c0.9-5.2,1-10.6,1.6-15.9
	c0.1-0.5,1.2-1,2.1-1.7c0.7,1,1.2,1.6,1.5,2.3c2.7,5,7.3,5.6,10.8,1.2c2.8-3.4,4.6-5.8,9.7-2.4c3.2,2.1,5.5-1.3,6.3-4
	c2.3-8.1,2.8-8.3,11-8.3c2.2,0,4.7-2.4,6.7-4.1c1.6-1.3,2.8-3,3.9-4.6c1.9-2.7,4.1-3.1,7.3-2.3c1.9,0.5,4.2-0.3,6.4-0.5
	c-1.1-1.9-2.1-3.8-3.3-5.6c-0.3-0.5-1.4-0.6-1.7-1.1c-2-3.3-4.8-6.6-5.6-10.2c-0.6-2.7,7.6-6.9,12.1-7.3c4.8-0.4,9.5-1.2,14.3-1.8
	c0.1-0.7,0.3-1.4,0.4-2.1c-2-1-3.9-2.2-6-3C244.3,402.2,242.6,402.2,241,402z"/>
<radialGradient id="SVGID_17_" cx="59.0952" cy="403.9193" r="34.1977" gradientUnits="userSpaceOnUse">
	<stop  offset="0" style="stop-color:#A62126"/>
	<stop  offset="1" style="stop-color:#821D22"/>
</radialGradient>
<path class="st16" d="M89.7,420.3c0.9-0.5,2-0.9,2.7-1.6c0.9-0.8,1.5-1.9,2.2-2.9c-1.4-0.7-2.7-1.9-4.2-2.1
	c-1.2-0.2-2.6,0.7-4.4,1.2c-0.4-3.6-1-7.1-1-10.5c0.1-2.7,1.3-3.2,4.8-2.8c0,2,0,4.1,0,6.3c3-0.1,4.9-0.9,4.8-3.9
	c-0.1-3.7-1.9-5.8-4.8-5.9c-1.6-0.1-4-0.4-4.5-1.3c-0.6-1,0.6-2.9,1.1-4.4c0.2-0.7,0.9-1.2,1-1.9c0.3-1.5,0.9-3.3,0.3-4.4
	c-0.5-0.9-2.7-1-4.1-1.4c-0.6-0.1-1.2,0-2.6,0.1c0.7-1.2,1.2-1.8,1.5-2.6c1-2.2,2.4-4.3,2.9-6.6c0.6-2.8-2.1-5.1-4.7-4.3
	c-3.8,1.3-7.4,2.8-11.1,4.3c-0.1,0-0.2,0.1-0.3,0.1c-3.8,2.4-8.7,1.1-14.1-0.7c-1.3-0.4-2,5.2-3.4,6.2c-2.9,1.9-3.2,7.4-9.6,2.8
	c-3.1-2.2-8.1,0.4-11.6,1.8c-5-6.4-10.5-13.3-3.9,6c-1,2.3-1.4,4.9-1.8,7.4c-0.2,1.2,0.2,2.4,0.3,3.6c0,1.7-0.1,3.3-0.1,5
	c-0.1,4,0.7,7.7,3.9,10.5c3.1,2.7,5.8,6,10.7,6.1c0.9,0,2.1,1.6,2.6,2.6c2.1,4.3,4.1,5.6,8.9,4.5c3.4-0.7,6.1,0.3,9,1.5
	c2,0.8,4.3,0.9,6.5,1.2c1.5,0.2,3,0.1,4.5-0.1c2.5-0.4,5.3-0.6,7.2-1.9c2.4-1.6,3.2-0.5,4.3,1c0.4,0.5,0.3,1.4,0.7,1.7
	c1.1,0.6,2.3,1,3.5,1.5c0.3-1,1-2,0.8-2.9c-0.2-1.1-1-2.2-1.9-3c-1.6-1.5-3.5-2.7-5.1-4.3c-1.4-1.4-2.3-3-0.4-4.9
	c1.8-1.8,3.6-1.6,5.4-0.2c1.5,1.3,2.9,2.7,4.3,4.1c0.6,0.6,1.2,1.4,1.9,1.5c0.9,0.1,2.1-0.2,2.8-0.7c0.3-0.2,0-1.7-0.5-2.2
	C93,422.8,91.5,421.8,89.7,420.3z"/>
<radialGradient id="SVGID_18_" cx="-76.4371" cy="198.1147" r="14.8831" gradientUnits="userSpaceOnUse">
	<stop  offset="0" style="stop-color:#A62126"/>
	<stop  offset="1" style="stop-color:#821D22"/>
</radialGradient>
<path class="st17" d="M-87.8,190.4c-2.8,4.7-5.3,9.7-2,15.3c1.5,2.6,3.2,4.7,6.6,5.3c1.8,0.3,3.5,1,5.2,1.6c3,1.1,7.4,0,9.5-2.2
	c1.4-1.4,3-2.7,4.1-4.3c1.9-2.9,4.3-5.7,2.1-9.5c-0.9-1.5-1.1-3.3-1.4-5c-1.5-6.6-4.9-7.7-12.4-8.1
	C-80.3,184.3-85.2,185.9-87.8,190.4z"/>
<radialGradient id="SVGID_19_" cx="-165.8142" cy="421.3642" r="14.8831" gradientUnits="userSpaceOnUse">
	<stop  offset="0" style="stop-color:#A62126"/>
	<stop  offset="1" style="stop-color:#821D22"/>
</radialGradient>
<path class="st18" d="M-153.2,414.7c-1.5-6.6-4.9-7.7-12.4-8.1c-4.1,1-9,2.6-11.6,7.1c-2.8,4.7-5.3,9.7-2,15.3
	c1.5,2.6,3.2,4.7,6.6,5.3c1.8,0.3,3.5,1,5.2,1.6c3,1.1,7.4,0,9.5-2.2c1.4-1.4,3-2.7,4.1-4.3c1.9-2.9,4.3-5.7,2.1-9.5
	C-152.6,418.2-152.8,416.4-153.2,414.7z"/>
<radialGradient id="SVGID_20_" cx="-11.8506" cy="442.5393" r="14.8831" gradientUnits="userSpaceOnUse">
	<stop  offset="0" style="stop-color:#A62126"/>
	<stop  offset="1" style="stop-color:#821D22"/>
</radialGradient>
<path class="st19" d="M0.8,435.9c-1.5-6.6-4.9-7.7-12.4-8.1c-4.1,1-9,2.6-11.6,7.1c-2.8,4.7-5.3,9.7-2,15.3c1.5,2.6,3.2,4.7,6.6,5.3
	c1.8,0.3,3.5,1,5.2,1.6c3,1.1,7.4,0,9.5-2.2c1.4-1.4,3-2.7,4.1-4.3c1.9-2.9,4.3-5.7,2.1-9.5C1.3,439.4,1.2,437.6,0.8,435.9z"/>
<radialGradient id="SVGID_21_" cx="-126.79" cy="408.5765" r="12.2441" gradientUnits="userSpaceOnUse">
	<stop  offset="0" style="stop-color:#A62126"/>
	<stop  offset="1" style="stop-color:#821D22"/>
</radialGradient>
<path class="st20" d="M-134.5,396.7c-1.7,0.9-3.2,2.2-4.2,2.9c0.2,2.2,0.2,4.2,0.5,6.2c0.3,1.8,0.9,3.5,1.5,5.2
	c0.6,1.7,1.4,3.4,1.8,5.1c0.6,2.7,5.2,6,7.8,4.8c3.5-1.6,7.1-3.3,10.2-5.5c1.3-0.9,2-3.1,2-4.7c0.2-4.5-2-8.2-5.3-11.3
	C-123.1,396.6-131.1,395-134.5,396.7z"/>
<radialGradient id="SVGID_22_" cx="-51.6102" cy="225.4538" r="12.0814" gradientUnits="userSpaceOnUse">
	<stop  offset="0" style="stop-color:#A62126"/>
	<stop  offset="1" style="stop-color:#821D22"/>
</radialGradient>
<path class="st21" d="M-57.6,214.7c-0.9,0.3-2.1,1-2.4,1.8c-1.5,4-3.2,8-4,12.1c-0.4,2.3,0.7,4.8,4.1,5.5c2,0.4,3.9,1.4,5.8,2.3
	c3.5,1.8,6.8-0.2,9.8-1.1c2.2-0.7,3.5-3.7,5.2-5.7c-0.5-0.2-1-0.5-1.5-0.7c-0.1-1.3-0.2-2.7-0.3-4c-0.1-1.2-0.3-2.4-0.5-3.6
	c-0.1-0.5-0.6-0.8-0.9-1.3C-45.8,214.3-51,212.4-57.6,214.7z"/>
<radialGradient id="SVGID_23_" cx="-232.2716" cy="59.7836" r="14.462" gradientUnits="userSpaceOnUse">
	<stop  offset="0" style="stop-color:#A62126"/>
	<stop  offset="1" style="stop-color:#821D22"/>
</radialGradient>
<path class="st22" d="M-221.1,56c-2.4-2-5.3-3.6-7.9-5.3c-1.4,1.3-2.6,2.5-4.1,3.9c-1.8-5.2-6.6-7.2-11.4-5.4
	c-4,1.5-6.4,6.9-3.9,10.1c1.3,1.7,3.8,3.2,6,3.6c1.9,0.3,4.2-1.1,6.5-1.8c1.8,6.5,2.9,7.3,10.8,8.2c0.6,0.1,1.3,0.3,1.8,0.5
	c0.6,0.3,1.1,0.7,2,1.3c0.8-1.7,1.4-3.3,2.4-4.7c0.9-1.3,2.1-2.4,3.6-3.9C-214.8,58.9-218.7,58-221.1,56z"/>
<radialGradient id="SVGID_24_" cx="20.0383" cy="211.2295" r="9.3872" gradientUnits="userSpaceOnUse">
	<stop  offset="0" style="stop-color:#A62126"/>
	<stop  offset="1" style="stop-color:#821D22"/>
</radialGradient>
<path class="st23" d="M13.9,203.6c-4.5,2.3-5.1,6.9-1.6,10.9c0.9,1,1.6,2.2,2.5,3.2c0.6,0.7,1.3,1.4,2.2,1.7
	c4.5,1.9,11.2-1.5,12.2-6.1c0.2-1.1,0.7-2.1,1-2.6c-1.1-1.4-2.2-2.5-3.1-3.8C24.2,202.8,18.4,201.3,13.9,203.6z"/>
<radialGradient id="SVGID_25_" cx="-81.7771" cy="81.9715" r="8.9283" gradientUnits="userSpaceOnUse">
	<stop  offset="0" style="stop-color:#A62126"/>
	<stop  offset="1" style="stop-color:#821D22"/>
</radialGradient>
<path class="st24" d="M-78.8,89.6c3.1,0.1,6-1.6,6.8-4.3c0.9-2.8,0.2-5.1-2.7-6.9c-1.7-1-3.1-2.3-5.4-1.7c-0.7,0.2-1.7-0.7-2.5-1.2
	c-3.7-2.3-7.5-1.4-9.1,2.4c-0.1,0.3-0.1,0.8,0,1.2C-90.9,82.9-82.7,89.5-78.8,89.6z"/>
<radialGradient id="SVGID_26_" cx="3.7292" cy="194.4333" r="8.2895" gradientUnits="userSpaceOnUse">
	<stop  offset="0" style="stop-color:#A62126"/>
	<stop  offset="1" style="stop-color:#821D22"/>
</radialGradient>
<path class="st25" d="M11.6,193.1c-3.1-1.8-2.8-7.4-8.3-6.5c-1.6,0.2-3.3,0.1-4.8,0.6c-1.1,0.3-2.5,1.1-2.9,2.1
	c-2,4.2,2.4,11.4,7.1,12.9c4.1,1.3,9.8-3.2,9.6-7.5C12.3,194.1,12.1,193.3,11.6,193.1z"/>
<radialGradient id="SVGID_27_" cx="191.3891" cy="243.4844" r="6.2483" gradientUnits="userSpaceOnUse">
	<stop  offset="0" style="stop-color:#A62126"/>
	<stop  offset="1" style="stop-color:#821D22"/>
</radialGradient>
<path class="st26" d="M192.3,237.6c-4.8,0.1-7.6,2.7-7.5,6.8c0.1,2.8,3,5,6.6,4.9c4.2-0.1,6.7-2.5,6.6-6.3
	C197.9,238.5,196.8,237.5,192.3,237.6z"/>
<radialGradient id="SVGID_28_" cx="-14.7917" cy="213.8445" r="4.933" gradientUnits="userSpaceOnUse">
	<stop  offset="0" style="stop-color:#A62126"/>
	<stop  offset="1" style="stop-color:#821D22"/>
</radialGradient>
<path class="st27" d="M-14.4,218.7c2,0.1,4.7-2.8,4.6-5.1c0-1.8-3.2-4.6-5.3-4.6c-2.4,0-4.7,2.1-4.7,4.1
	C-19.8,215.7-17,218.6-14.4,218.7z"/>
<radialGradient id="SVGID_29_" cx="-61.9434" cy="388.025" r="36.5578" gradientUnits="userSpaceOnUse">
	<stop  offset="0" style="stop-color:#A62126"/>
	<stop  offset="1" style="stop-color:#821D22"/>
</radialGradient>
<path class="st28" d="M-25.1,396.4c0.5-0.3,0.4-2.3-0.1-3.3c-1-2.2-2.7-3.4-4.5-3.8c1.4-0.5,2.6-0.9,3.8-1.3c-0.3-0.2-0.7-0.3-1-0.5
	c0.2-1.6,0.6-3.3,0.4-4.9c-0.1-1-1.1-1.9-2-3.3c0.7-1.7,1.8-4.1-1.8-5.6c-0.4-0.2-0.1-2.2,0-3.3c0.1-1.2,0.8-3.1,0.2-3.5
	c-1.5-1-3-0.4-4,1.2c-0.3,0.4-0.9,0.6-1.9,0.6c0.2-0.6,0.5-1.2,0.7-1.8c0.2-1,0.3-2,0.5-3c-1.1,0.1-2.1,0.3-3.2,0.4
	c-0.3,0-0.5,0.2-0.9,0.4c-2.6-2.1-4.7-4.2-3.9-7.9c0.4-1.8-1.1-1.7-2.4-1.5c-2.8,0.4-5.7,1.1-8.5,1.2c-1.3,0-3-0.7-4-1.5
	c-1.4-1.1-2.3-1.6-3.8-0.2c-2.3,2.1-7.6,1.8-9.6-0.5c-3.3-3.7-9.7-3.1-12.1,1.2c-1.1,2,0,3.3,1.3,4.8c0.7,0.8,0.8,2,0.9,3.1
	c0,0.3-1,0.8-1.6,0.9c-0.3,0-0.8-0.7-1.1-1.2c-0.7-1.1-1.2-2.2-2-3.2c-1.3-1.5-2.6-3.1-4.1-4.4c-0.9-0.8-2.4-1.6-3.5-1.4
	c-0.9,0.1-2.4,1.6-2.3,2.5c0.1,1.4,0.8,3,1.9,4.1c2.1,2.3,4.6,4.2,6.8,6.4c0.2,0.2,0,0.8,0,1.5c-0.7-0.1-1.2-0.1-1.6-0.2
	c-3.3-0.7-5.2,1-4.4,4.1c0.6,2.4,1,4-2.3,4.9c-2.2,0.6-1.4,2.7-0.4,4.1c2.9,3.8,2.8,4.1-0.1,7.5c-0.8,0.9-0.5,2.8-0.5,4.2
	c0,1.1,0.4,2.2,0.7,3.3c0.6,1.7,0,2.8-1.6,3.8c-0.9,0.6-1.4,1.9-2.1,2.8c1.3,0.2,2.5,0.5,3.8,0.6c0.4,0,0.8-0.4,1.1-0.3
	c2.3,0.4,4.8,0.4,6.7,1.4c1.4,0.7,0.5,5.6-0.9,7.6c-1.5,2.1-2.9,4.4-4.3,6.6c0.3,0.3,0.6,0.6,0.8,1c1.2-0.5,2.4-0.8,3.5-1.4
	c0.8-0.4,1.4-1.1,2.1-1.7c4.6-3.9,4.6-3.9,9,0c0.6,0.5,1.5,0.9,2.3,1.1c2.9,0.7,5.8,1.5,8.7,2c1.3,0.2,2.9,0.3,3.9-0.3
	c2.5-1.4,4-1.5,5.8,0.6c2.7,3.1,2.7,3.1,5.6,0.1c2-2.1,3.3-1.9,4.5,0.7c0.3,0.7,0.9,1.2,1.8,2.5c-0.2-3.9-0.3-7-0.4-9.4
	c2.6,0.1,4.4,0.3,6.2,0c0.3,0,0.2-2.2,0.2-3.5c0.5-1.3,1.1-3,1.8-4.5c0.3-0.6,1-1.5,1.3-1.4c3.8,0.9,3.3-2.1,4.1-3.9
	c0.3-0.7,0.4-1.7,1-2.1c1.1-0.7,1.8-1.3,2-2.1C-27.2,397.1-26,396.9-25.1,396.4z"/>
<radialGradient id="SVGID_30_" cx="-179.1072" cy="352.6" r="5.5323" gradientUnits="userSpaceOnUse">
	<stop  offset="0" style="stop-color:#A62126"/>
	<stop  offset="1" style="stop-color:#821D22"/>
</radialGradient>
<path class="st29" d="M-172.3,351.5c0.3-0.5,0.2-1.3,0.3-1.9c-3.5,0-6.8-0.6-9.7,0.2c-1.8,0.5-3.1,2.9-4.6,4.5
	c-0.1,0.1,0.6,1,1.1,1.2C-183,356.5-173.3,353.4-172.3,351.5z"/>
<radialGradient id="SVGID_31_" cx="-12.4813" cy="239.9861" r="4.9298" gradientUnits="userSpaceOnUse">
	<stop  offset="0" style="stop-color:#A62126"/>
	<stop  offset="1" style="stop-color:#821D22"/>
</radialGradient>
<path class="st30" d="M-17.8,239.8c0.9,1.7,3.2,2.8,5.4,4.5c2.2-1.7,3.8-3,5.5-4.3c-1.6-1.5-3-3.7-4.9-4.2
	C-14.5,235-18.7,238.2-17.8,239.8z"/>
<radialGradient id="SVGID_32_" cx="-153.5841" cy="366.5251" r="4.7916" gradientUnits="userSpaceOnUse">
	<stop  offset="0" style="stop-color:#A62126"/>
	<stop  offset="1" style="stop-color:#821D22"/>
</radialGradient>
<path class="st31" d="M-151.8,361.9c-3,0.1-5.5,1.2-6.5,3.7c-1.5,3.6,4.1,2.7,3.9,5.4c2.3-1.7,4-2.9,5.8-4.2
	C-150.6,366.1-147.2,361.8-151.8,361.9z"/>
<radialGradient id="SVGID_33_" cx="163.7936" cy="326.7688" r="12.4623" gradientUnits="userSpaceOnUse">
	<stop  offset="0" style="stop-color:#A62126"/>
	<stop  offset="1" style="stop-color:#821D22"/>
</radialGradient>
<path class="st32" d="M160.5,327.9c-3.6-0.2-12.9,3.5-11.9,5.5c0.7,1.4,8.4,1.7,10.3,2.1c2.2,0.5,13.6-1.6,13.5-5.1
	c-0.2-0.1-1.9-0.6-4-1c3.6-3.6,7.1-7.2,10.7-10.8c-0.2-0.2-0.5-0.4-0.7-0.6c-3.7,3.7-7.5,7.5-11.2,11.2
	C164.3,328.5,161.1,328,160.5,327.9z"/>
<radialGradient id="SVGID_34_" cx="-186.3769" cy="338.4094" r="4.6794" gradientUnits="userSpaceOnUse">
	<stop  offset="0" style="stop-color:#A62126"/>
	<stop  offset="1" style="stop-color:#821D22"/>
</radialGradient>
<path class="st33" d="M-184,336.2c-1.6-1.8-4.9-2.5-6.9-1.1c-0.5,0.4-0.5,1.3-0.7,2c0,0.1,0.1,0.2,0.2,0.3c2.6,6.4,4.7,6.7,10.3,1.4
	C-182.2,337.8-183.2,337.1-184,336.2z"/>
<radialGradient id="SVGID_35_" cx="28.8863" cy="170.6783" r="4.1194" gradientUnits="userSpaceOnUse">
	<stop  offset="0" style="stop-color:#A62126"/>
	<stop  offset="1" style="stop-color:#821D22"/>
</radialGradient>
<path class="st34" d="M31,174.3c2.4-3.3,1.4-6.5-2.6-8.4c-3.7,3.8-3.8,4.9-0.8,8.5C28.9,175.8,30,175.7,31,174.3z"/>
<radialGradient id="SVGID_36_" cx="176.9683" cy="269.1374" r="3.7949" gradientUnits="userSpaceOnUse">
	<stop  offset="0" style="stop-color:#A62126"/>
	<stop  offset="1" style="stop-color:#821D22"/>
</radialGradient>
<path class="st35" d="M180.8,268.9c0-2.3-1.4-3.3-3.6-3.5c-2.3-0.2-4,1.5-4,5c0.8,0.6,2,2,3.6,2.5
	C178.6,273.4,180.7,271,180.8,268.9z"/>
<radialGradient id="SVGID_37_" cx="-58.5282" cy="438.1811" r="4.0268" gradientUnits="userSpaceOnUse">
	<stop  offset="0" style="stop-color:#A62126"/>
	<stop  offset="1" style="stop-color:#821D22"/>
</radialGradient>
<path class="st36" d="M-63.2,438.4c0.2,3.1,3.4,2.5,5.2,3c0.9,0.2,2.4-2.1,4.2-3.9c-1.7-1.2-2.6-2.3-3.6-2.4
	C-60.1,434.7-63.4,436.6-63.2,438.4z"/>
<radialGradient id="SVGID_38_" cx="-44.8906" cy="480.7839" r="3.8982" gradientUnits="userSpaceOnUse">
	<stop  offset="0" style="stop-color:#A62126"/>
	<stop  offset="1" style="stop-color:#821D22"/>
</radialGradient>
<path class="st37" d="M-43.5,476.8c-0.7,0.7-1.3,1.2-2,1.8c-0.7,0.6-1.5,1.1-2.2,1.8c-1.8,1.8-1.1,4.1,1.4,4.4
	c1.2,0.1,3.3-0.5,3.6-1.3C-40.9,479.3-40,478.6-43.5,476.8z"/>
<radialGradient id="SVGID_39_" cx="-48.686" cy="92.2552" r="3.5974" gradientUnits="userSpaceOnUse">
	<stop  offset="0" style="stop-color:#A62126"/>
	<stop  offset="1" style="stop-color:#821D22"/>
</radialGradient>
<path class="st38" d="M-45.2,90.3c0.1-0.6-0.1-1.2-0.2-1.7c-1.9,0.3-3.9,0.5-5.6,1.1c-0.7,0.3-1.3,1.8-1.3,2.7
	c0.1,1.1,0.9,2.2,1.5,3.4C-47.7,95-45.7,93.3-45.2,90.3z"/>
<radialGradient id="SVGID_40_" cx="-5.0857" cy="176.1631" r="3.4513" gradientUnits="userSpaceOnUse">
	<stop  offset="0" style="stop-color:#A62126"/>
	<stop  offset="1" style="stop-color:#821D22"/>
</radialGradient>
<path class="st39" d="M-8.9,178.6c1.9,0,3.8,0.1,5.6-0.4c1-0.3,1.6-1.7,2.4-2.6c-1-0.5-2.1-1.1-3.6-1.9c-1.7,1.2-3.3,2.2-4.8,3.4
	C-9.4,177.3-9,178.6-8.9,178.6z"/>
<radialGradient id="SVGID_41_" cx="-22.5412" cy="412.7243" r="3.604158e-02" gradientUnits="userSpaceOnUse">
	<stop  offset="0" style="stop-color:#A62126"/>
	<stop  offset="1" style="stop-color:#821D22"/>
</radialGradient>
<path class="st40" d="M-22.6,412.7C-22.6,412.8-22.5,412.8-22.6,412.7C-22.5,412.7-22.5,412.7-22.6,412.7L-22.6,412.7z"/>
<radialGradient id="SVGID_42_" cx="-17.7385" cy="415.6346" r="3.9358" gradientUnits="userSpaceOnUse">
	<stop  offset="0" style="stop-color:#A62126"/>
	<stop  offset="1" style="stop-color:#821D22"/>
</radialGradient>
<path class="st41" d="M-13,417.9c-2.4-3.3-5.6-4.7-9.5-5.1C-22.5,416.8-17.3,419.9-13,417.9z"/>
<radialGradient id="SVGID_43_" cx="-162.6811" cy="281.3255" r="3.269" gradientUnits="userSpaceOnUse">
	<stop  offset="0" style="stop-color:#A62126"/>
	<stop  offset="1" style="stop-color:#821D22"/>
</radialGradient>
<path class="st42" d="M-159.3,283.4c0.5-0.3,0.7-1.7,0.4-2.2c-1.9-3.2-3.5-3.2-7.5-0.1C-165.2,283.3-161.3,284.7-159.3,283.4z"/>
<radialGradient id="SVGID_44_" cx="28.4703" cy="192.2774" r="2.979" gradientUnits="userSpaceOnUse">
	<stop  offset="0" style="stop-color:#A62126"/>
	<stop  offset="1" style="stop-color:#821D22"/>
</radialGradient>
<path class="st43" d="M29.7,194.9c0.4,0.1,2-1.2,2-2c0.2-2-1-3.3-4-3.3c-0.9,0.9-1.7,1.8-2.6,2.7C26.7,193.2,28.1,194.3,29.7,194.9z
	"/>
<radialGradient id="SVGID_45_" cx="-212.0262" cy="42.4014" r="3.0499" gradientUnits="userSpaceOnUse">
	<stop  offset="0" style="stop-color:#A62126"/>
	<stop  offset="1" style="stop-color:#821D22"/>
</radialGradient>
<path class="st44" d="M-211.9,39.3c-1,1-2.1,1.9-3.1,2.9c1,0.9,2.1,1.9,3.8,3.4c1.1-1.5,2.4-2.7,2.1-3.2
	C-209.6,41.1-210.9,40.3-211.9,39.3z"/>
<radialGradient id="SVGID_46_" cx="-228.3185" cy="162.9987" r="2.8753" gradientUnits="userSpaceOnUse">
	<stop  offset="0" style="stop-color:#A62126"/>
	<stop  offset="1" style="stop-color:#821D22"/>
</radialGradient>
<path class="st45" d="M-231.1,164.6c2.7,2.4,3.6-1,6.1-1.5c-2.1-2.4-4-3.4-6-1.8C-231.7,161.8-231.7,164.1-231.1,164.6z"/>
<radialGradient id="SVGID_47_" cx="-222.5803" cy="372.3528" r="3.0884" gradientUnits="userSpaceOnUse">
	<stop  offset="0" style="stop-color:#A62126"/>
	<stop  offset="1" style="stop-color:#821D22"/>
</radialGradient>
<path class="st46" d="M-226.2,372c2.3,1.2,3.8,2.2,5.4,2.8c0.4,0.1,1.2-0.9,1.8-1.5c-1.4-1.1-2.7-2.4-4.2-3.3
	C-223.4,369.8-224.6,370.9-226.2,372z"/>
<radialGradient id="SVGID_48_" cx="-207.3181" cy="402.077" r="2.7362" gradientUnits="userSpaceOnUse">
	<stop  offset="0" style="stop-color:#A62126"/>
	<stop  offset="1" style="stop-color:#821D22"/>
</radialGradient>
<path class="st47" d="M-206.9,399.7c-0.9,0-1.9,1.4-3.5,2.9c1.9,0.9,3.1,2,4.1,1.8c0.8-0.1,2.2-1.8,2-2.4
	C-204.5,401-206,399.7-206.9,399.7z"/>
<radialGradient id="SVGID_49_" cx="46.035" cy="186.9355" r="2.6407" gradientUnits="userSpaceOnUse">
	<stop  offset="0" style="stop-color:#A62126"/>
	<stop  offset="1" style="stop-color:#821D22"/>
</radialGradient>
<path class="st48" d="M47.7,188.9c0.7-0.1,1.7-1.6,1.5-2.2c-1.3-3.5-3.9-0.6-6.2-1.2C43.8,188,45.2,189.4,47.7,188.9z"/>
<radialGradient id="SVGID_50_" cx="-230.3724" cy="131.0818" r="2.7168" gradientUnits="userSpaceOnUse">
	<stop  offset="0" style="stop-color:#A62126"/>
	<stop  offset="1" style="stop-color:#821D22"/>
</radialGradient>
<path class="st49" d="M-232.7,130.8c-0.2,0.7,1.1,1.8,2.1,3.4c1.3-1.6,2.6-2.6,2.4-3.3c-0.2-1.1-1.5-1.9-2.3-2.9
	C-231.2,128.9-232.4,129.8-232.7,130.8z"/>
<radialGradient id="SVGID_51_" cx="-215.6295" cy="71.5667" r="2.3476" gradientUnits="userSpaceOnUse">
	<stop  offset="0" style="stop-color:#A62126"/>
	<stop  offset="1" style="stop-color:#821D22"/>
</radialGradient>
<path class="st50" d="M-214.5,73.6c0.8-0.3,1.6-2.2,1.3-2.9c-1.1-2-2.9-1.4-4.9-0.1C-217.1,72.1-217.2,74.5-214.5,73.6z"/>
<radialGradient id="SVGID_52_" cx="69.8022" cy="323.8337" r="2.6799" gradientUnits="userSpaceOnUse">
	<stop  offset="0" style="stop-color:#A62126"/>
	<stop  offset="1" style="stop-color:#821D22"/>
</radialGradient>
<path class="st51" d="M72.1,325c-0.6-1.4-1.4-2.8-2.1-4.1c-0.8,1.2-1.6,2.5-2.6,4c2.1,0.8,3.3,1.3,4.8,1.9
	C72.2,326,72.3,325.4,72.1,325z"/>
<radialGradient id="SVGID_53_" cx="-217.732" cy="12.4486" r="2.481" gradientUnits="userSpaceOnUse">
	<stop  offset="0" style="stop-color:#A62126"/>
	<stop  offset="1" style="stop-color:#821D22"/>
</radialGradient>
<path class="st52" d="M-214.8,12.5c-0.8-0.7-1.5-1.7-2.3-1.9c-0.8-0.1-1.8,0.7-3.6,1.6c1.8,1.1,2.7,2.2,3.5,2.1
	C-216.4,14.2-215.6,13.1-214.8,12.5z"/>
<radialGradient id="SVGID_54_" cx="-190.4966" cy="18.3547" r="2.3922" gradientUnits="userSpaceOnUse">
	<stop  offset="0" style="stop-color:#A62126"/>
	<stop  offset="1" style="stop-color:#821D22"/>
</radialGradient>
<path class="st53" d="M-188,17.9c0.1-0.5-1.4-1.9-1.7-1.8c-1,0.4-1.8,1.3-3.3,2.4c1.5,1,2.3,1.5,3.2,2.1
	C-189.2,19.7-188.2,18.9-188,17.9z"/>
<radialGradient id="SVGID_55_" cx="-36.1132" cy="186.882" r="2.3995" gradientUnits="userSpaceOnUse">
	<stop  offset="0" style="stop-color:#A62126"/>
	<stop  offset="1" style="stop-color:#821D22"/>
</radialGradient>
<path class="st54" d="M-38.9,187.1c1.6,0.9,2.6,1.8,3.5,1.8c0.8-0.1,2-1.2,2.1-1.9c0-0.7-1.3-2.1-1.9-2
	C-36.2,185-37.2,186-38.9,187.1z"/>
<radialGradient id="SVGID_56_" cx="11.9579" cy="237.6291" r="2.3276" gradientUnits="userSpaceOnUse">
	<stop  offset="0" style="stop-color:#A62126"/>
	<stop  offset="1" style="stop-color:#821D22"/>
</radialGradient>
<path class="st55" d="M9.2,237.9c1.5,0.7,2.4,1.6,3.3,1.5c0.7,0,1.4-1.1,2.2-1.7c-0.9-0.7-1.7-1.8-2.7-2
	C11.5,235.7,10.5,236.9,9.2,237.9z"/>
<radialGradient id="SVGID_57_" cx="205.454" cy="267.4629" r="2.0968" gradientUnits="userSpaceOnUse">
	<stop  offset="0" style="stop-color:#A62126"/>
	<stop  offset="1" style="stop-color:#821D22"/>
</radialGradient>
<path class="st56" d="M207.8,267.5c-1.3-0.9-2.1-2-2.7-1.9c-0.7,0.1-1.9,1.1-1.9,1.8c0,0.6,1.1,1.7,1.9,1.8
	C205.7,269.4,206.5,268.4,207.8,267.5z"/>
<radialGradient id="SVGID_58_" cx="-21.2645" cy="181.0517" r="2.0955" gradientUnits="userSpaceOnUse">
	<stop  offset="0" style="stop-color:#A62126"/>
	<stop  offset="1" style="stop-color:#821D22"/>
</radialGradient>
<path class="st57" d="M-21.4,183c1-0.6,1.6-1.6,2.4-2.5c-0.5-0.5-1-0.9-1.5-1.4c-1,0.9-2,1.8-2.9,2.7
	C-22.8,182.2-21.7,183.1-21.4,183z"/>
<radialGradient id="SVGID_59_" cx="-4.51" cy="315.4401" r="43.6705" gradientUnits="userSpaceOnUse">
	<stop  offset="0" style="stop-color:#A62126"/>
	<stop  offset="1" style="stop-color:#821D22"/>
</radialGradient>
<path class="st58" d="M18.1,352.8c-4-2.4-4.3-5.1-1.3-8.4c2.8-3.1,5.6-6.2,8.9-9.8c4.1,4.3,7.8,8.1,11.5,11.9c0.5-0.5,1.1-1,1.6-1.5
	c-2.4-2.5-4.7-5.1-7.4-7.4c-2.9-2.6-3.5-4.6-0.1-7.5c4.2-3.6,5.9-8.4,5.8-13.8c0-2.2,0.9-4.4,1.4-6.5c-3,1-4.2-1-5.3-4.8
	c-1-3.6-3.5-7.1-6.1-10c-2.3-2.7-4.6-4.8-1.8-8c-2.4,0.3-4.7,0.9-6.8,0.7c-0.5,0-0.7-2.7-1-4c-2.2-0.5-5.1-0.5-7.2-1.7
	c-2-1.2-3.1-3.6-4.7-5.5c-5.2,4.7-12.8,2.8-17.9-5.2c0.2,2,0.3,4,0.6,6.8c-4.3,1.4-9.1,4.3-13.3,3.8c-4.1-0.5-7.6-4.7-11.4-7.2
	c-0.4,0.5-0.9,1.1-1.3,1.6c1.9,1.4,3.8,2.9,5.8,4.1c4,2.4,4.9,5.1,1.5,8.7c-1.3,1.4-2.2,3.2-3.6,4.4c-1.7,1.4-3.8,2.2-6.3,3.6
	c0-0.2,0.2,0.9,0.7,3c-2.8-1.3-4.7-2.2-6.7-3.2c-0.5,0.4-0.9,0.9-1.4,1.3c1.6,1.2,3.2,2.3,4.8,3.4c-0.3,4.9-0.7,9.9-1.1,15.3
	c-1.3,0-2.9,0-3.4,0c0.8,2.8,2.4,5.5,2.3,8.1c-0.2,4.8,3.5,7.5,5.7,11c2.5,3.8,2,5.9-2.3,8c-6.2,3-6.8,5-4,10.7
	c2.3-2.8,4.1-5.5,6.6-7.5c1.9-1.6,4.5-2.4,6.9-3.5c0.5,2,1,4.1,1.5,6.2c8.2-1,9.9-0.1,10.6,6.6c4.5-5.1,12.9-3.2,19.5,2.8
	c-0.4-1.8-0.6-3-0.9-4.7c2.9-1.1,6-2,8.8-3.3c3.4-1.6,5.8-0.6,8.2,1.7c2.1,2,4.5,3.8,6.7,5.7c0.5-0.6,1-1.1,1.6-1.7
	C21.8,355.7,20.1,354.1,18.1,352.8z"/>
<radialGradient id="SVGID_60_" cx="-46.4284" cy="70.7902" r="14.3891" gradientUnits="userSpaceOnUse">
	<stop  offset="0" style="stop-color:#A62126"/>
	<stop  offset="1" style="stop-color:#821D22"/>
</radialGradient>
<path class="st59" d="M-58.9,75.6c1.6,2,3.8,3.5,6.3,5.7c-1.6,1.1-2.7,1.8-3.8,2.6c2.4-0.6,4.5-1.8,6.2-1.4c2.2,0.6,4.2,1.4,6.5,0.4
	c0.4-0.2,0.8-0.1,1.3-0.1c2.7,0.1,4.8-1,6.5-3.3c1.4,1.1,2.8,2.2,4.2,3.4c0.3-0.3,0.6-0.5,0.9-0.8c-1.1-1.2-2.2-2.4-3.3-3.7
	c1.1-2.2,2.2-4.6,3-6.1c-0.5-1.5-0.9-2.1-1-2.8c-0.4-2.2-1.2-3.8-3.1-5.5c-2.3-2.1-4.2-4.2-7.5-4.9c-0.5-0.1-0.8-1.2-0.9-1.3
	c-1.5,0.5-2.8,1.3-4.1,1.2c-3.2-0.2-5,1.9-7.8,3.2c-1.1-1-2.4-2.1-3.6-3.2c-0.2,0.2-0.3,0.3-0.5,0.5c1,1.2,2.1,2.3,3.1,3.5
	c-1.8,2.2-3.4,4.3-5.4,6.9C-61.2,71.3-60.4,73.7-58.9,75.6z"/>
<radialGradient id="SVGID_61_" cx="201.4106" cy="298.9213" r="11.91" gradientUnits="userSpaceOnUse">
	<stop  offset="0" style="stop-color:#A62126"/>
	<stop  offset="1" style="stop-color:#821D22"/>
</radialGradient>
<path class="st60" d="M188.2,308.6c0.2,0.3,0.5,0.5,0.7,0.8c3.9-2.5,8.6-3.9,11.4-8c0.8-1.2,2.3-2.1,3.5-3c3.4-2.5,6.9-4.9,10.2-7.4
	c0.5-0.4,0.3-1.6,0.5-2.4c-0.9,0-1.8-0.3-2.5-0.1c-0.8,0.2-1.3,1-2,1.5c-3.8,3.2-7.5,6.3-11.3,9.5
	C195.3,302.6,191.8,305.6,188.2,308.6z"/>
<radialGradient id="SVGID_62_" cx="132.5302" cy="46.9127" r="2.165" gradientUnits="userSpaceOnUse">
	<stop  offset="0" style="stop-color:#A62126"/>
	<stop  offset="1" style="stop-color:#821D22"/>
</radialGradient>
<path class="st61" d="M133.9,44.6c-1.1,0.2-2.7,0.1-3,0.6c-0.5,0.9-0.4,2.4,0,3.4c0.2,0.4,1.9,0.3,3.8,0.5
	C134.3,47.2,134.1,45.9,133.9,44.6z"/>
<radialGradient id="SVGID_63_" cx="-264.6656" cy="176.5059" r="2.5954" gradientUnits="userSpaceOnUse">
	<stop  offset="0" style="stop-color:#A62126"/>
	<stop  offset="1" style="stop-color:#821D22"/>
</radialGradient>
<path class="st62" d="M-262.8,178.7c-1.6-0.6-3.2-1.3-4.8-1.9c0.5-0.8,1-1.7,1.6-2.5c1.4,0.9,2.8,1.8,4.3,2.7
	C-262.1,177.6-262.4,178.2-262.8,178.7z"/>
<radialGradient id="SVGID_64_" cx="-264.8874" cy="198.5668" r="2.4551" gradientUnits="userSpaceOnUse">
	<stop  offset="0" style="stop-color:#A62126"/>
	<stop  offset="1" style="stop-color:#821D22"/>
</radialGradient>
<path class="st63" d="M-262.6,200.8c-1.6-0.6-3.3-1.2-4.9-1.8c0.5-0.9,0.8-2.3,1.5-2.5c3.1-0.8,3.1,1.8,3.9,3.4
	C-262.4,200.2-262.5,200.5-262.6,200.8z"/>
<radialGradient id="SVGID_65_" cx="-265.9095" cy="157.8681" r="2.5126" gradientUnits="userSpaceOnUse">
	<stop  offset="0" style="stop-color:#A62126"/>
	<stop  offset="1" style="stop-color:#821D22"/>
</radialGradient>
<path class="st64" d="M-266,159.9c-1.3-1.1-2.8-1.7-2.8-2.4c-0.1-2.7,2.4-1.1,3.6-1.5c0.6-0.1,1.5,0.9,2.3,1.4
	C-263.8,158.1-264.7,158.8-266,159.9z"/>
<radialGradient id="SVGID_66_" cx="-265.1208" cy="190.3609" r="2.6242" gradientUnits="userSpaceOnUse">
	<stop  offset="0" style="stop-color:#A62126"/>
	<stop  offset="1" style="stop-color:#821D22"/>
</radialGradient>
<path class="st65" d="M-262.5,188.4c-1.6,0.5-2.7,0.9-3.8,1.3c0,0.2,0,0.3,0,0.5c1,0,2,0,2.9,0c-0.1,1-0.1,1.9-0.2,2.8
	c-1.1,0-2.3,0-3.6,0C-267.3,190.4-269.9,186-262.5,188.4z"/>
<radialGradient id="SVGID_67_" cx="-265.2094" cy="184.6286" r="2.2263" gradientUnits="userSpaceOnUse">
	<stop  offset="0" style="stop-color:#A62126"/>
	<stop  offset="1" style="stop-color:#821D22"/>
</radialGradient>
<path class="st66" d="M-262.7,183.8c-0.4,0.9-0.7,1.9-1.1,2.8c-0.9-0.5-1.8-1-2.7-1.5c-0.2,0.3-0.4,0.6-0.9,1.3
	c-0.2-0.6-0.5-1.2-0.3-1.2c1.2-0.8,2.5-1.6,3.8-2.4C-263.5,183-263.1,183.4-262.7,183.8z"/>
<radialGradient id="SVGID_68_" cx="-265.9903" cy="133.5749" r="2.3034" gradientUnits="userSpaceOnUse">
	<stop  offset="0" style="stop-color:#A62126"/>
	<stop  offset="1" style="stop-color:#821D22"/>
</radialGradient>
<path class="st67" d="M-268.9,134.6c-0.8-2.7,1.8-1.9,3.3-2.1c2.1-0.3,2.9,0.7,2.7,2.1C-265,134.6-266.9,134.6-268.9,134.6z"/>
</svg>
