<?xml version="1.0" encoding="utf-8"?>
<!-- Generator: Adobe Illustrator 23.0.3, SVG Export Plug-In . SVG Version: 6.00 Build 0)  -->
<svg version="1.1" id="レイヤー_1" xmlns="http://www.w3.org/2000/svg" xmlns:xlink="http://www.w3.org/1999/xlink" x="0px"
	 y="0px" viewBox="0 0 233.5 274" style="enable-background:new 0 0 233.5 274;" xml:space="preserve">
<style type="text/css">
	.st0{fill:url(#SVGID_1_);}
	.st1{fill:url(#SVGID_2_);}
	.st2{fill:url(#SVGID_3_);}
	.st3{fill:url(#SVGID_4_);}
	.st4{fill:url(#SVGID_5_);}
	.st5{fill:url(#SVGID_6_);}
	.st6{fill:url(#SVGID_7_);}
	.st7{fill:url(#SVGID_8_);}
	.st8{fill:url(#SVGID_9_);}
	.st9{fill:url(#SVGID_10_);}
	.st10{fill:url(#SVGID_11_);}
	.st11{fill:url(#SVGID_12_);}
	.st12{fill:url(#SVGID_13_);}
	.st13{fill:url(#SVGID_14_);}
	.st14{fill:url(#SVGID_15_);}
</style>
<radialGradient id="SVGID_1_" cx="197.7889" cy="220.6077" r="34.1977" gradientUnits="userSpaceOnUse">
	<stop  offset="0" style="stop-color:#A62126"/>
	<stop  offset="1" style="stop-color:#821D22"/>
</radialGradient>
<path class="st0" d="M228.3,237c0.9-0.5,2-0.9,2.7-1.6c0.9-0.8,1.5-1.9,2.2-2.9c-1.4-0.7-2.7-1.9-4.2-2.1c-1.2-0.2-2.6,0.7-4.4,1.2
	c-0.4-3.6-1-7.1-1-10.5c0.1-2.7,1.3-3.2,4.8-2.8c0,2,0,4.1,0,6.3c3-0.1,4.9-0.9,4.8-3.9c-0.1-3.7-1.9-5.8-4.8-5.9
	c-1.6-0.1-4-0.4-4.5-1.3c-0.6-1,0.6-2.9,1.1-4.4c0.2-0.7,0.9-1.2,1-1.9c0.3-1.5,0.9-3.3,0.3-4.4c-0.5-0.9-2.7-1-4.1-1.4
	c-0.6-0.1-1.2,0-2.6,0.1c0.7-1.2,1.2-1.8,1.5-2.6c1-2.2,2.4-4.3,2.9-6.6c0.6-2.8-2.1-5.1-4.7-4.3c-3.8,1.3-7.4,2.8-11.1,4.3
	c-0.1,0-0.2,0.1-0.3,0.1c-3.8,2.4-8.7,1.1-14.1-0.7c-1.3-0.4-2,5.2-3.4,6.2c-2.9,1.9-3.2,7.4-9.6,2.8c-3.1-2.2-8.1,0.4-11.6,1.8
	c-5-6.4-10.5-13.3-3.9,6c-1,2.3-1.4,4.9-1.8,7.4c-0.2,1.2,0.2,2.4,0.3,3.6c0,1.7-0.1,3.3-0.1,5c-0.1,4,0.7,7.7,3.9,10.5
	c3.1,2.7,5.8,6,10.7,6.1c0.9,0,2.1,1.6,2.6,2.6c2.1,4.3,4.1,5.6,8.9,4.5c3.4-0.7,6.1,0.3,9,1.5c2,0.8,4.3,0.9,6.5,1.2
	c1.5,0.2,3,0.1,4.5-0.1c2.5-0.4,5.3-0.6,7.2-1.9c2.4-1.6,3.2-0.5,4.3,1c0.4,0.5,0.3,1.4,0.7,1.7c1.1,0.6,2.3,1,3.5,1.5
	c0.3-1,1-2,0.8-2.9c-0.2-1.1-1-2.2-1.9-3c-1.6-1.5-3.5-2.7-5.1-4.3c-1.4-1.4-2.3-3-0.4-4.9c1.8-1.8,3.6-1.6,5.4-0.2
	c1.5,1.3,2.9,2.7,4.3,4.1c0.6,0.6,1.2,1.4,1.9,1.5c0.9,0.1,2.1-0.2,2.8-0.7c0.3-0.2,0-1.7-0.5-2.2
	C231.7,239.5,230.2,238.5,228.3,237z"/>
<radialGradient id="SVGID_2_" cx="62.2566" cy="14.803" r="14.8831" gradientUnits="userSpaceOnUse">
	<stop  offset="0" style="stop-color:#A62126"/>
	<stop  offset="1" style="stop-color:#821D22"/>
</radialGradient>
<path class="st1" d="M50.9,7.1c-2.8,4.7-5.3,9.7-2,15.3c1.5,2.6,3.2,4.7,6.6,5.3c1.8,0.3,3.5,1,5.2,1.6c3,1.1,7.4,0,9.5-2.2
	c1.4-1.4,3-2.7,4.1-4.3c1.9-2.9,4.3-5.7,2.1-9.5c-0.9-1.5-1.1-3.3-1.4-5C73.4,1.5,70,0.5,62.5,0C58.4,1,53.5,2.6,50.9,7.1z"/>
<radialGradient id="SVGID_3_" cx="126.8431" cy="259.2277" r="14.8831" gradientUnits="userSpaceOnUse">
	<stop  offset="0" style="stop-color:#A62126"/>
	<stop  offset="1" style="stop-color:#821D22"/>
</radialGradient>
<path class="st2" d="M139.5,252.6c-1.5-6.6-4.9-7.7-12.4-8.1c-4.1,1-9,2.6-11.6,7.1c-2.8,4.7-5.3,9.7-2,15.3
	c1.5,2.6,3.2,4.7,6.6,5.3c1.8,0.3,3.5,1,5.2,1.6c3,1.1,7.4,0,9.5-2.2c1.4-1.4,3-2.7,4.1-4.3c1.9-2.9,4.3-5.7,2.1-9.5
	C140,256.1,139.8,254.3,139.5,252.6z"/>
<radialGradient id="SVGID_4_" cx="11.9037" cy="225.2649" r="12.2441" gradientUnits="userSpaceOnUse">
	<stop  offset="0" style="stop-color:#A62126"/>
	<stop  offset="1" style="stop-color:#821D22"/>
</radialGradient>
<path class="st3" d="M4.2,213.4c-1.7,0.9-3.2,2.2-4.2,2.9c0.2,2.2,0.2,4.2,0.5,6.2c0.3,1.8,0.9,3.5,1.5,5.2c0.6,1.7,1.4,3.4,1.8,5.1
	c0.6,2.7,5.2,6,7.8,4.8c3.5-1.6,7.1-3.3,10.2-5.5c1.3-0.9,2-3.1,2-4.7c0.2-4.5-2-8.2-5.3-11.3C15.6,213.3,7.6,211.7,4.2,213.4z"/>
<radialGradient id="SVGID_5_" cx="87.0835" cy="42.1422" r="12.0814" gradientUnits="userSpaceOnUse">
	<stop  offset="0" style="stop-color:#A62126"/>
	<stop  offset="1" style="stop-color:#821D22"/>
</radialGradient>
<path class="st4" d="M81.1,31.4c-0.9,0.3-2.1,1-2.4,1.8c-1.5,4-3.2,8-4,12.1c-0.4,2.3,0.7,4.8,4.1,5.5c2,0.4,3.9,1.4,5.8,2.3
	c3.5,1.8,6.8-0.2,9.8-1.1c2.2-0.7,3.5-3.7,5.2-5.7c-0.5-0.2-1-0.5-1.5-0.7c-0.1-1.3-0.2-2.7-0.3-4c-0.1-1.2-0.3-2.4-0.5-3.6
	c-0.1-0.5-0.6-0.8-0.9-1.3C92.9,31,87.7,29.1,81.1,31.4z"/>
<radialGradient id="SVGID_6_" cx="158.732" cy="27.9179" r="9.3872" gradientUnits="userSpaceOnUse">
	<stop  offset="0" style="stop-color:#A62126"/>
	<stop  offset="1" style="stop-color:#821D22"/>
</radialGradient>
<path class="st5" d="M152.6,20.3c-4.5,2.3-5.1,6.9-1.6,10.9c0.9,1,1.6,2.2,2.5,3.2c0.6,0.7,1.3,1.4,2.2,1.7
	c4.5,1.9,11.2-1.5,12.2-6.1c0.2-1.1,0.7-2.1,1-2.6c-1.1-1.4-2.2-2.5-3.1-3.8C162.9,19.4,157.1,18,152.6,20.3z"/>
<radialGradient id="SVGID_7_" cx="142.4229" cy="11.1217" r="8.2895" gradientUnits="userSpaceOnUse">
	<stop  offset="0" style="stop-color:#A62126"/>
	<stop  offset="1" style="stop-color:#821D22"/>
</radialGradient>
<path class="st6" d="M150.3,9.7c-3.1-1.8-2.8-7.4-8.3-6.5c-1.6,0.2-3.3,0.1-4.8,0.6c-1.1,0.3-2.5,1.1-2.9,2.1
	c-2,4.2,2.4,11.4,7.1,12.9c4.1,1.3,9.8-3.2,9.6-7.5C151,10.8,150.8,10,150.3,9.7z"/>
<radialGradient id="SVGID_8_" cx="123.902" cy="30.5329" r="4.933" gradientUnits="userSpaceOnUse">
	<stop  offset="0" style="stop-color:#A62126"/>
	<stop  offset="1" style="stop-color:#821D22"/>
</radialGradient>
<path class="st7" d="M124.3,35.4c2,0.1,4.7-2.8,4.6-5.1c0-1.8-3.2-4.6-5.3-4.6c-2.4,0-4.7,2.1-4.7,4.1
	C118.9,32.4,121.7,35.3,124.3,35.4z"/>
<radialGradient id="SVGID_9_" cx="76.7503" cy="204.7134" r="36.5578" gradientUnits="userSpaceOnUse">
	<stop  offset="0" style="stop-color:#A62126"/>
	<stop  offset="1" style="stop-color:#821D22"/>
</radialGradient>
<path class="st8" d="M113.6,213.1c0.5-0.3,0.4-2.3-0.1-3.3c-1-2.2-2.7-3.4-4.5-3.8c1.4-0.5,2.6-0.9,3.8-1.3c-0.3-0.2-0.7-0.3-1-0.5
	c0.2-1.6,0.6-3.3,0.4-4.9c-0.1-1-1.1-1.9-2-3.3c0.7-1.7,1.8-4.1-1.8-5.6c-0.4-0.2-0.1-2.2,0-3.3c0.1-1.2,0.8-3.1,0.2-3.5
	c-1.5-1-3-0.4-4,1.2c-0.3,0.4-0.9,0.6-1.9,0.6c0.2-0.6,0.5-1.2,0.7-1.8c0.2-1,0.3-2,0.5-3c-1.1,0.1-2.1,0.3-3.2,0.4
	c-0.3,0-0.5,0.2-0.9,0.4c-2.6-2.1-4.7-4.2-3.9-7.9c0.4-1.8-1.1-1.7-2.4-1.5c-2.8,0.4-5.7,1.1-8.5,1.2c-1.3,0-3-0.7-4-1.5
	c-1.4-1.1-2.3-1.6-3.8-0.2c-2.3,2.1-7.6,1.8-9.6-0.5c-3.3-3.7-9.7-3.1-12.1,1.2c-1.1,2,0,3.3,1.3,4.8c0.7,0.8,0.8,2,0.9,3.1
	c0,0.3-1,0.8-1.6,0.9c-0.3,0-0.8-0.7-1.1-1.2c-0.7-1.1-1.2-2.2-2-3.2c-1.3-1.5-2.6-3.1-4.1-4.4c-0.9-0.8-2.4-1.6-3.5-1.4
	c-0.9,0.1-2.4,1.6-2.3,2.5c0.1,1.4,0.8,3,1.9,4.1c2.1,2.3,4.6,4.2,6.8,6.4c0.2,0.2,0,0.8,0,1.5c-0.7-0.1-1.2-0.1-1.6-0.2
	c-3.3-0.7-5.2,1-4.4,4.1c0.6,2.4,1,4-2.3,4.9c-2.2,0.6-1.4,2.7-0.4,4.1c2.9,3.8,2.8,4.1-0.1,7.5c-0.8,0.9-0.5,2.8-0.5,4.2
	c0,1.1,0.4,2.2,0.7,3.3c0.6,1.7,0,2.8-1.6,3.8c-0.9,0.6-1.4,1.9-2.1,2.8c1.3,0.2,2.5,0.5,3.8,0.6c0.4,0,0.8-0.4,1.1-0.3
	c2.3,0.4,4.8,0.4,6.7,1.4c1.4,0.7,0.5,5.6-0.9,7.6c-1.5,2.1-2.9,4.4-4.3,6.6c0.3,0.3,0.6,0.6,0.8,1c1.2-0.5,2.4-0.8,3.5-1.4
	c0.8-0.4,1.4-1.1,2.1-1.7c4.6-3.9,4.6-3.9,9,0c0.6,0.5,1.5,0.9,2.3,1.1c2.9,0.7,5.8,1.5,8.7,2c1.3,0.2,2.9,0.3,3.9-0.3
	c2.5-1.4,4-1.5,5.8,0.6c2.7,3.1,2.7,3.1,5.6,0.1c2-2.1,3.3-1.9,4.5,0.7c0.3,0.7,0.9,1.2,1.8,2.5c-0.2-3.9-0.3-7-0.4-9.4
	c2.6,0.1,4.4,0.3,6.2,0c0.3,0,0.2-2.2,0.2-3.5c0.5-1.3,1.1-3,1.8-4.5c0.3-0.6,1-1.5,1.3-1.4c3.8,0.9,3.3-2.1,4.1-3.9
	c0.3-0.7,0.4-1.7,1-2.1c1.1-0.7,1.8-1.3,2-2.1C111.5,213.8,112.7,213.6,113.6,213.1z"/>
<radialGradient id="SVGID_10_" cx="126.2124" cy="56.6745" r="4.9298" gradientUnits="userSpaceOnUse">
	<stop  offset="0" style="stop-color:#A62126"/>
	<stop  offset="1" style="stop-color:#821D22"/>
</radialGradient>
<path class="st9" d="M120.9,56.5c0.9,1.7,3.2,2.8,5.4,4.5c2.2-1.7,3.8-3,5.5-4.3c-1.6-1.5-3-3.7-4.9-4.2
	C124.2,51.7,120,54.9,120.9,56.5z"/>
<radialGradient id="SVGID_11_" cx="80.1655" cy="254.8695" r="4.0268" gradientUnits="userSpaceOnUse">
	<stop  offset="0" style="stop-color:#A62126"/>
	<stop  offset="1" style="stop-color:#821D22"/>
</radialGradient>
<path class="st10" d="M75.4,255.1c0.2,3.1,3.4,2.5,5.2,3c0.9,0.2,2.4-2.1,4.2-3.9c-1.7-1.2-2.6-2.3-3.6-2.4
	C78.6,251.3,75.3,253.3,75.4,255.1z"/>
<radialGradient id="SVGID_12_" cx="116.1525" cy="229.4127" r="3.604158e-02" gradientUnits="userSpaceOnUse">
	<stop  offset="0" style="stop-color:#A62126"/>
	<stop  offset="1" style="stop-color:#821D22"/>
</radialGradient>
<path class="st11" d="M116.1,229.4C116.1,229.4,116.2,229.4,116.1,229.4C116.2,229.4,116.2,229.4,116.1,229.4L116.1,229.4z"/>
<radialGradient id="SVGID_13_" cx="120.9552" cy="232.3229" r="3.9358" gradientUnits="userSpaceOnUse">
	<stop  offset="0" style="stop-color:#A62126"/>
	<stop  offset="1" style="stop-color:#821D22"/>
</radialGradient>
<path class="st12" d="M125.7,234.6c-2.4-3.3-5.6-4.7-9.5-5.1C116.2,233.5,121.4,236.5,125.7,234.6z"/>
<radialGradient id="SVGID_14_" cx="150.6516" cy="54.3175" r="2.3276" gradientUnits="userSpaceOnUse">
	<stop  offset="0" style="stop-color:#A62126"/>
	<stop  offset="1" style="stop-color:#821D22"/>
</radialGradient>
<path class="st13" d="M147.9,54.6c1.5,0.7,2.4,1.6,3.3,1.5c0.7,0,1.4-1.1,2.2-1.7c-0.9-0.7-1.7-1.8-2.7-2
	C150.1,52.3,149.2,53.6,147.9,54.6z"/>
<radialGradient id="SVGID_15_" cx="134.1837" cy="132.1284" r="43.6705" gradientUnits="userSpaceOnUse">
	<stop  offset="0" style="stop-color:#A62126"/>
	<stop  offset="1" style="stop-color:#821D22"/>
</radialGradient>
<path class="st14" d="M156.7,169.5c-4-2.4-4.3-5.1-1.3-8.4c2.8-3.1,5.6-6.2,8.9-9.8c4.1,4.3,7.8,8.1,11.5,11.9
	c0.5-0.5,1.1-1,1.6-1.5c-2.4-2.5-4.7-5.1-7.4-7.4c-2.9-2.6-3.5-4.6-0.1-7.5c4.2-3.6,5.9-8.4,5.8-13.8c0-2.2,0.9-4.4,1.4-6.5
	c-3,1-4.2-1-5.3-4.8c-1-3.6-3.5-7.1-6.1-10c-2.3-2.7-4.6-4.8-1.8-8c-2.4,0.3-4.7,0.9-6.8,0.7c-0.5,0-0.7-2.7-1-4
	c-2.2-0.5-5.1-0.5-7.2-1.7c-2-1.2-3.1-3.6-4.7-5.5c-5.2,4.7-12.8,2.8-17.9-5.2c0.2,2,0.3,4,0.6,6.8c-4.3,1.4-9.1,4.3-13.3,3.8
	c-4.1-0.5-7.6-4.7-11.4-7.2c-0.4,0.5-0.9,1.1-1.3,1.6c1.9,1.4,3.8,2.9,5.8,4.1c4,2.4,4.9,5.1,1.5,8.7c-1.3,1.4-2.2,3.2-3.6,4.4
	c-1.7,1.4-3.8,2.2-6.3,3.6c0-0.2,0.2,0.9,0.7,3c-2.8-1.3-4.7-2.2-6.7-3.2c-0.5,0.4-0.9,0.9-1.4,1.3c1.6,1.2,3.2,2.3,4.8,3.4
	c-0.3,4.9-0.7,9.9-1.1,15.3c-1.3,0-2.9,0-3.4,0c0.8,2.8,2.4,5.5,2.3,8.1c-0.2,4.8,3.5,7.5,5.7,11c2.5,3.8,2,5.9-2.3,8
	c-6.2,3-6.8,5-4,10.7c2.3-2.8,4.1-5.5,6.6-7.5c1.9-1.6,4.5-2.4,6.9-3.5c0.5,2,1,4.1,1.5,6.2c8.2-1,9.9-0.1,10.6,6.6
	c4.5-5.1,12.9-3.2,19.5,2.8c-0.4-1.8-0.6-3-0.9-4.7c2.9-1.1,6-2,8.8-3.3c3.4-1.6,5.8-0.6,8.2,1.7c2.1,2,4.5,3.8,6.7,5.7
	c0.5-0.6,1-1.1,1.6-1.7C160.5,172.4,158.8,170.8,156.7,169.5z"/>
</svg>
