<?xml version="1.0" encoding="utf-8"?>
<!-- Generator: Adobe Illustrator 23.0.2, SVG Export Plug-In . SVG Version: 6.00 Build 0)  -->
<svg version="1.1" id="レイヤー_1" xmlns="http://www.w3.org/2000/svg" xmlns:xlink="http://www.w3.org/1999/xlink" x="0px"
	 y="0px" viewBox="0 0 91.6 73.7" style="enable-background:new 0 0 91.6 73.7;" xml:space="preserve">
<style type="text/css">
	.st0{fill:url(#SVGID_1_);}
</style>
<radialGradient id="SVGID_1_" cx="45.7782" cy="36.8658" r="41.5616" gradientUnits="userSpaceOnUse">
	<stop  offset="0" style="stop-color:#9D2325"/>
	<stop  offset="1" style="stop-color:#7D1D21"/>
</radialGradient>
<path class="st0" d="M91.6,55.7c-1.7-2-3.4-4-5.7-6.6c8.2-5.3,1.1-13.9,3.8-19.9c-6.2-4.4-12.5-8.9-17.9-12.7
	c-2.6,0.7-5.1,1.4-7.6,2.1c-1,0.3-2.4,0.2-3.1,0.8c-2.8,2.4-4.9,1.5-6.6-1.2c-1.6-2.6-5.3-5-1.2-8.4c1.6-1.3,3.2-2.7,4.7-4.1
	c-4.2,1.2-7.8,4.2-11.4,4.1C42.8,9.6,37.4,8,40,0c-5.1,8-9.7,9.3-14.7,5.3c-0.8,4.8-3.3,6.5-8,5.9c-0.7,1.6-1.4,3-2.1,4.4
	c-1.3-0.9-2.8-1.6-3.8-2.8c-1.9-2-3.5-4.3-5.2-6.4C5.7,6.8,5.3,7.2,4.8,7.6c1.9,2.2,3.7,4.5,5.6,6.7c1.9,2.1,1.9,3.7-0.2,5.9
	c-2.2,2.4-4.5,5.3-5.1,8.3c-0.7,3.5-1.9,4.9-5.1,4C2,38.9,4,45,6.2,52c-0.1,0.1-1.1,1.3-3.1,3.7c3.6-0.5,5.8-0.8,8.5-1.2
	c1.6,1.9,3.4,4.2,5.4,6.5c2.6,3,1.8,5.3-1.2,7.5c-1.3,0.9-2.4,2.1-3.6,3.2c4.1-1.1,7.4-4.5,10.9-4.6c2.8-0.1,8.6,0,7.7,6.7
	c5.3-5.2,10-5.9,14.5-2.5c0.6-5.4,2.6-6.6,8-5.4c0.3-1.6,0.7-3.3,1-4.9c1.7,0.9,3.7,1.5,5.2,2.7c1.9,1.6,3.3,3.7,5.2,6
	c2.4-3.8,1-5.8-1.3-7.6c-1.2-0.9-2.7-1.5-3.7-2.5c-0.6-0.5-1-1.8-0.7-2.5c0.3-0.6,1.8-1.3,2.2-1.1c4,2.6,8.3,1.7,12.6,1.2
	c4-0.5,7.3-2.1,10.3-5.6c2,1.7,4.1,3.5,6.2,5.3C90.7,56.5,91.1,56.1,91.6,55.7z"/>
</svg>
