<?xml version="1.0" encoding="utf-8"?>
<!-- Generator: Adobe Illustrator 23.0.3, SVG Export Plug-In . SVG Version: 6.00 Build 0)  -->
<svg version="1.1" xmlns="http://www.w3.org/2000/svg" xmlns:xlink="http://www.w3.org/1999/xlink" x="0px" y="0px"
	 viewBox="0 0 1600 1200" style="enable-background:new 0 0 1600 1200;" xml:space="preserve">
<style type="text/css">
	.st0{fill:none;stroke:#000000;}
	.st1{fill:none;stroke:#000000;stroke-width:0.9586;}
	.st2{fill:url(#SVGID_1_);stroke:#000000;stroke-width:17.0079;}
	.st3{fill:url(#SVGID_2_);stroke:#000000;stroke-width:17.0079;}
	.st4{fill:url(#SVGID_3_);stroke:#000000;stroke-width:17.0079;}
	.st5{fill:none;stroke:#000000;stroke-width:28.3464;}
	.st6{fill:url(#SVGID_4_);stroke:#000000;stroke-width:17.0079;}
	.st7{fill:url(#SVGID_5_);}
	.st8{fill:none;stroke:#000000;stroke-width:17.0079;}
	.st9{fill:url(#SVGID_6_);}
	.st10{fill:url(#SVGID_7_);}
	.st11{clip-path:url(#SVGID_10_);fill:url(#SVGID_11_);stroke:#000000;stroke-width:17.0079;}
	.st12{clip-path:url(#SVGID_10_);fill:url(#SVGID_12_);stroke:#000000;stroke-width:17.0079;}
	.st13{fill:url(#SVGID_13_);stroke:#000000;stroke-width:17.0079;}
	.st14{fill:url(#SVGID_14_);stroke:#000000;stroke-width:17.0079;}
	.st15{fill:url(#SVGID_15_);stroke:#000000;stroke-width:17.0079;}
	.st16{fill:url(#SVGID_16_);stroke:#000000;stroke-width:17.0079;}
</style>
<g id="アートボードのガイド">
</g>
<g id="背景">
	<g>
		<g>
			<polyline class="st0" points="3.9,-33.6 5.8,-33.6 5.8,-25.8 			"/>
			<path class="st0" d="M13.9-32.2c0-2.3-4.9-3-4.9,0.3c0,3.3,0,4.3,0,4.3c0,2.8,4.8,2.4,4.8-0.2c0-2.7,0-1,0-1s0,2.7,0-0.2
				c0-2.9-4.8-2.6-4.8,0.5"/>
			<path class="st1" d="M21.2-30c0,2.2-1.3,4-2.8,4c-1.6,0-2.8-1.8-2.8-4c0-2.2,1.3-4,2.8-4C20-34,21.2-32.2,21.2-30z"/>
			<path class="st1" d="M28.2-30c0,2.2-1.3,4-2.8,4s-2.8-1.8-2.8-4c0-2.2,1.3-4,2.8-4S28.2-32.2,28.2-30z"/>
		</g>
		<g>
			<polyline class="st0" points="38.9,-33.6 40.9,-33.6 40.9,-25.8 			"/>
			<path class="st1" d="M55.7-30c0,2.2-1.3,4-2.8,4S50-27.8,50-30c0-2.2,1.3-4,2.8-4S55.7-32.2,55.7-30z"/>
			<path class="st1" d="M62.7-30c0,2.2-1.3,4-2.8,4s-2.8-1.8-2.8-4c0-2.2,1.3-4,2.8-4S62.7-32.2,62.7-30z"/>
			<path class="st0" d="M43.6-31.8c0-2.9,4.7-3.2,4.7-0.4s-1.4,2.8-2.5,2.8c-1,0-2.4,0.7-2.4,3H49"/>
		</g>
		<g>
			<line class="st0" x1="30.3" y1="-33" x2="36.8" y2="-26.5"/>
			<line class="st0" x1="30.2" y1="-26.4" x2="36.9" y2="-33.1"/>
		</g>
	</g>
</g>
<g id="塗り">
</g>
<g id="線">
</g>
<g id="カメラ">
	<g>
		
			<linearGradient id="SVGID_1_" gradientUnits="userSpaceOnUse" x1="1089.1646" y1="1821.1161" x2="1089.1646" y2="1922.3271" gradientTransform="matrix(1 0 0 1 71.656 -1591.2299)">
			<stop  offset="0" style="stop-color:#727171"/>
			<stop  offset="1" style="stop-color:#000000"/>
		</linearGradient>
		<path class="st2" d="M1077.9,306.2c0,0,44.8-76.3,102.9-76.3c9.4,0,23.3,0,31.7,0c34.8,0,47.9,30.8,0,30.8
			c-47.2,0-75.9,33.7-100,70.4L1077.9,306.2z"/>
		
			<linearGradient id="SVGID_2_" gradientUnits="userSpaceOnUse" x1="1032.46" y1="1846.4014" x2="1032.46" y2="2064.9561" gradientTransform="matrix(1 0 0 1 71.656 -1591.2299)">
			<stop  offset="0" style="stop-color:#727171"/>
			<stop  offset="1" style="stop-color:#000000"/>
		</linearGradient>
		<path class="st3" d="M1034.6,255.2c0,0,163.9,15.9,135.7,218.6h-126.9L1034.6,255.2z"/>
		
			<linearGradient id="SVGID_3_" gradientUnits="userSpaceOnUse" x1="1082.1716" y1="1804.4668" x2="1082.1716" y2="2654.7141" gradientTransform="matrix(1 0 0 1 71.656 -1591.2299)">
			<stop  offset="0" style="stop-color:#727171"/>
			<stop  offset="1" style="stop-color:#000000"/>
		</linearGradient>
		<path class="st4" d="M1348.3,697.4c165.7,347.3,18.1,327.7-32.5,327.7s-45.8,0-105.8,0c-43.3,13.7-43.1,40.9-72.2,38.2
			c-42.4-4-17.8-78.1-32.3-168.7c-20.3-122.7-56.9-245.1-222.6-240.2l0-119.5l111.9,0V213.2c0,0,16.7,0,28.7,0
			c12,0,24.1,3.1,25.8,25.8c29.8,140.1,102.7,210.3,191.9,252.4C1279.9,545.2,1316.8,621.6,1348.3,697.4z"/>
		<path d="M772.6,548.8c0,22.4,43.9,100.8-15.8,137.1c-9.6,5.8-9.5,29.6,27.1,10.2c24.8-13.1,36.4-31.8,37.3-100.8
			c29.5,0,56-8.3,55.6-14.8c-0.1-2.1,0-31.7,0-31.7H772.6z"/>
		<g>
			<path class="st5" d="M882.9,688.7c0,31.2-25.2,52.5-55.9,47.4l-140.3-23.4c-30.8-5.1-55.9-34.8-55.9-66v-64.4
				c0-31.2,25.5-56.7,56.7-56.7l138.8,0c31.2,0,56.7,25.5,56.7,56.7V688.7z"/>
		</g>
		
			<linearGradient id="SVGID_4_" gradientUnits="userSpaceOnUse" x1="442.7976" y1="1935.8153" x2="442.7976" y2="1980.2803" gradientTransform="matrix(1 0 0 1 71.656 -1591.2299)">
			<stop  offset="0" style="stop-color:#727171"/>
			<stop  offset="1" style="stop-color:#000000"/>
		</linearGradient>
		<rect x="274.1" y="344.6" class="st6" width="480.6" height="44.5"/>
		<g>
			<g>
				
					<linearGradient id="SVGID_5_" gradientUnits="userSpaceOnUse" x1="382.7573" y1="1795.9639" x2="382.7573" y2="2151.7295" gradientTransform="matrix(1 0 0 1 423.6676 -1582.7261)">
					<stop  offset="0" style="stop-color:#727171"/>
					<stop  offset="1" style="stop-color:#000000"/>
				</linearGradient>
				<path class="st7" d="M593.2,213.2V569l426.5,0l0-355.8H593.2z M642.8,495.2V238.1H970l0,257.2L642.8,495.2z"/>
			</g>
			<g>
				<path class="st8" d="M593.2,213.2V569l426.5,0l0-355.8H593.2z M642.8,495.2V238.1H970l0,257.2L642.8,495.2z"/>
			</g>
		</g>
		<g>
			<g>
				<g>
					
						<linearGradient id="SVGID_6_" gradientUnits="userSpaceOnUse" x1="-88.0576" y1="1775.8857" x2="-88.0576" y2="1976.7391" gradientTransform="matrix(1 0 0 1 423.6676 -1582.7261)">
						<stop  offset="0" style="stop-color:#727171"/>
						<stop  offset="1" style="stop-color:#000000"/>
					</linearGradient>
					<path class="st9" d="M260.7,193.3c-6.1-1.1-11.2,3.1-11.2,9.4l0,180c0,6.2,5.1,11.3,11.3,11.3h29c6.2,0,11.3-5.1,11.3-11.3
						l0-148.2c0-6.2,5.1-11.3,11.3-11.3h104.4c6.2,0,6.3-0.9,0.2-2L260.7,193.3z"/>
					
						<linearGradient id="SVGID_7_" gradientUnits="userSpaceOnUse" x1="-88.0576" y1="1775.8857" x2="-88.0576" y2="1976.7391" gradientTransform="matrix(1 0 0 1 423.6676 -1582.7261)">
						<stop  offset="0" style="stop-color:#727171"/>
						<stop  offset="1" style="stop-color:#000000"/>
					</linearGradient>
					<path class="st10" d="M260.7,193.3c-6.1-1.1-11.2,3.1-11.2,9.4l0,180c0,6.2,5.1,11.3,11.3,11.3h29c6.2,0,11.3-5.1,11.3-11.3
						l0-148.2c0-6.2,5.1-11.3,11.3-11.3h104.4c6.2,0,6.3-0.9,0.2-2L260.7,193.3z"/>
				</g>
			</g>
			<g>
				<g>
					<path class="st8" d="M260.7,193.3c-6.1-1.1-11.2,3.1-11.2,9.4l0,180c0,6.2,5.1,11.3,11.3,11.3h29c6.2,0,11.3-5.1,11.3-11.3
						l0-148.2c0-6.2,5.1-11.3,11.3-11.3h104.4c6.2,0,6.3-0.9,0.2-2L260.7,193.3z"/>
					<path class="st8" d="M260.7,193.3c-6.1-1.1-11.2,3.1-11.2,9.4l0,180c0,6.2,5.1,11.3,11.3,11.3h29c6.2,0,11.3-5.1,11.3-11.3
						l0-148.2c0-6.2,5.1-11.3,11.3-11.3h104.4c6.2,0,6.3-0.9,0.2-2L260.7,193.3z"/>
				</g>
			</g>
		</g>
		<g>
			<g>
				<defs>
					<rect id="SVGID_8_" x="667.7" y="257.9" width="277.5" height="217.4"/>
				</defs>
				
					<linearGradient id="SVGID_9_" gradientUnits="userSpaceOnUse" x1="734.7688" y1="1849.1454" x2="734.7688" y2="2066.5908" gradientTransform="matrix(1 0 0 1 71.656 -1591.2299)">
					<stop  offset="0" style="stop-color:#727171"/>
					<stop  offset="0.75" style="stop-color:#000000"/>
				</linearGradient>
				<use xlink:href="#SVGID_8_"  style="overflow:visible;fill:url(#SVGID_9_);"/>
				<clipPath id="SVGID_10_">
					<use xlink:href="#SVGID_8_"  style="overflow:visible;"/>
				</clipPath>
				
					<linearGradient id="SVGID_11_" gradientUnits="userSpaceOnUse" x1="686.822" y1="1890.2079" x2="686.822" y2="1839.5751" gradientTransform="matrix(1 0 0 1 71.656 -1591.2299)">
					<stop  offset="0" style="stop-color:#727171"/>
					<stop  offset="0.5" style="stop-color:#000000"/>
				</linearGradient>
				<path class="st11" d="M667.7,248.3c100.3,0,181.6,11.3,181.6,25.3c0,14-81.3,25.3-181.6,25.3V248.3z"/>
				
					<linearGradient id="SVGID_12_" gradientUnits="userSpaceOnUse" x1="686.821" y1="2025.8837" x2="686.821" y2="2076.5186" gradientTransform="matrix(1 0 0 1 71.656 -1591.2299)">
					<stop  offset="0" style="stop-color:#727171"/>
					<stop  offset="0.5" style="stop-color:#000000"/>
				</linearGradient>
				<path class="st12" d="M667.7,434.7c100.3,0,181.6,11.3,181.6,25.3c0,14-81.3,25.3-181.6,25.3L667.7,434.7z"/>
				<use xlink:href="#SVGID_8_"  style="overflow:visible;fill:none;stroke:#000000;stroke-width:17.0079;"/>
			</g>
			
				<linearGradient id="SVGID_13_" gradientUnits="userSpaceOnUse" x1="686.8215" y1="1924.9247" x2="686.8215" y2="1990.8114" gradientTransform="matrix(1 0 0 1 71.656 -1591.2299)">
				<stop  offset="0" style="stop-color:#727171"/>
				<stop  offset="0.75" style="stop-color:#000000"/>
			</linearGradient>
			<path class="st13" d="M667.7,333.7c100.3,0,181.6,14.8,181.6,32.9c0,18.2-81.3,32.9-181.6,32.9L667.7,333.7z"/>
			
				<linearGradient id="SVGID_14_" gradientUnits="userSpaceOnUse" x1="851.1613" y1="1849.1454" x2="851.1613" y2="2066.5889" gradientTransform="matrix(1 0 0 1 71.656 -1591.2299)">
				<stop  offset="0" style="stop-color:#727171"/>
				<stop  offset="1" style="stop-color:#000000"/>
			</linearGradient>
			<rect x="900.4" y="257.9" class="st14" width="44.8" height="217.4"/>
		</g>
		
			<linearGradient id="SVGID_15_" gradientUnits="userSpaceOnUse" x1="349.7102" y1="1814.3954" x2="349.7102" y2="1921.1005" gradientTransform="matrix(1 0 0 1 71.656 -1591.2299)">
			<stop  offset="0" style="stop-color:#727171"/>
			<stop  offset="1" style="stop-color:#000000"/>
		</linearGradient>
		<rect x="249.5" y="223.2" class="st15" width="343.6" height="106.7"/>
		
			<linearGradient id="SVGID_16_" gradientUnits="userSpaceOnUse" x1="978.3562" y1="2398.0735" x2="1308.5754" y2="2398.0735" gradientTransform="matrix(1 0 0 1 71.656 -1591.2299)">
			<stop  offset="0" style="stop-color:#727171"/>
			<stop  offset="1" style="stop-color:#000000"/>
		</linearGradient>
		<path class="st16" d="M1099,619.2H1239c56,0,50.8,19.3,61.3,47.3c10.5,28,63,194.4,71.8,222.4c8.8,28,19.3,87.6-21,105.1l-169.9,0
			c0,0-38.5,12.3-38.5-59.5c0,0,14-150.6-85.8-271.4C1028,613.1,1099,619.2,1099,619.2z"/>
	</g>
</g>
<g id="扇">
</g>
</svg>
