<?xml version="1.0" encoding="utf-8"?>
<!-- Generator: Adobe Illustrator 23.0.2, SVG Export Plug-In . SVG Version: 6.00 Build 0)  -->
<svg version="1.1" id="レイヤー_1" xmlns="http://www.w3.org/2000/svg" xmlns:xlink="http://www.w3.org/1999/xlink" x="0px"
	 y="0px" viewBox="0 0 132.5 28" style="enable-background:new 0 0 132.5 28;" xml:space="preserve">
<style type="text/css">
	.st0{fill:#8E111A;}
	.st1{fill:#8E111A;stroke:#FFFFFF;stroke-width:0.7778;stroke-miterlimit:10;}
	.st2{fill:#FFFFFF;}
</style>
<rect x="0" y="0" transform="matrix(-1 -1.111734e-10 1.111734e-10 -1 132.4566 28)" class="st0" width="132.5" height="28"/>
<rect x="3.1" y="3.1" transform="matrix(-1 -1.101547e-10 1.101547e-10 -1 132.4566 28)" class="st1" width="126.2" height="21.8"/>
<g>
	<path class="st2" d="M14.4,13.6c0,0-0.1-0.1-0.3-0.2s-0.3-0.3-0.5-0.4c-0.2-0.2-0.4-0.3-0.6-0.5c-0.2-0.2-0.4-0.4-0.5-0.5
		c-0.2-0.2-0.3-0.3-0.4-0.4C12,11.4,12,11.4,12,11.3c0,0,0,0,0-0.1c0,0,0,0,0.1-0.1c0.1-0.1,0.1-0.1,0.1-0.1s0,0,0,0c0,0,0,0,0,0
		c-0.1,0-0.2,0-0.2,0c0,0-0.1,0-0.2,0.1V11c0-0.1,0.1-0.2,0.2-0.2c0.1,0,0.2,0,0.3,0c0.2,0,0.5,0,0.8,0s0.6,0.1,1,0.2
		s0.6,0.2,0.9,0.3c0.3,0.1,0.5,0.3,0.6,0.5c-0.2,0-0.3,0.2-0.3,0.3c0,0.2-0.1,0.3-0.1,0.5c0,0.2-0.1,0.3-0.1,0.5
		c-0.1,0.1-0.2,0.2-0.4,0.2l-0.1,0c0,0,0,0-0.1,0c0,0-0.1,0-0.1-0.1c0,0-0.1,0-0.1-0.1s-0.1,0-0.1,0s0,0,0,0c0,0,0,0,0,0
		c0,0,0,0,0,0.1s0,0.1,0,0.1c0,0,0.1,0.1,0.2,0.2C14.4,13.6,14.5,13.6,14.4,13.6L14.4,13.6z M23.6,10C23.6,10,23.6,10,23.6,10
		c0.1,0.1,0.2,0.2,0.2,0.2c-0.1,0-0.2,0-0.3,0c-0.1,0.1-0.1,0.2-0.1,0.3c0,0.1,0,0.2,0,0.2s0,0.1,0,0.2c0,0.2-0.1,0.4-0.2,0.7
		c-0.2,0.3-0.4,0.6-0.6,0.9c-0.3,0.3-0.5,0.6-0.9,1c-0.3,0.3-0.6,0.6-0.9,0.9c-0.3,0.3-0.6,0.5-0.8,0.8c-0.2,0.2-0.4,0.4-0.6,0.5
		c0-0.1,0-0.2,0-0.2c-0.1,0-0.1-0.1-0.2-0.1c-0.1,0-0.3,0-0.4,0.1c-0.1,0.1-0.3,0.1-0.4,0.1c-0.1,0-0.1,0-0.2-0.1
		c0-0.1-0.1-0.2-0.1-0.2c0-0.1,0-0.2-0.1-0.3s-0.1-0.2-0.1-0.2c0,0,0,0-0.1,0c-0.1,0-0.1,0-0.2,0.1s-0.1,0.2-0.1,0.2v0.1
		c0.1,0.1,0.2,0.2,0.2,0.3s0.2,0.2,0.2,0.3s0.1,0.2,0.2,0.4s0.1,0.3,0.1,0.4c0,0,0,0,0,0c-0.2,0.1-0.4,0.3-0.7,0.6
		c-0.3,0.3-0.6,0.5-1,0.7c-0.3,0.2-0.7,0.5-1,0.7c-0.3,0.2-0.6,0.3-0.9,0.3c0,0-0.1,0-0.1,0c-0.1,0-0.1,0-0.1,0l-0.1-0.1
		c0,0,0.1-0.1,0.2-0.1s0.1-0.1,0.2-0.2c0,0-0.1,0-0.1-0.1s-0.1-0.1-0.2-0.1c-0.1,0-0.1-0.1-0.2-0.1c-0.1,0-0.1-0.1-0.1-0.1h0
		c-0.1,0-0.2,0-0.3,0.1c-0.1,0.1-0.1,0.1-0.2,0.2c0,0,0,0,0,0c-0.1,0-0.1,0-0.2-0.1s-0.2-0.1-0.3-0.2c-0.1-0.1-0.2-0.2-0.2-0.3
		c-0.1-0.1-0.1-0.2-0.1-0.2c0,0,0,0,0-0.1c0-0.1,0-0.1,0-0.1c0,0,0-0.1,0-0.1c0-0.1,0-0.1,0-0.1c0,0,0,0,0,0s0,0,0,0
		c0,0,0,0.1,0,0.1c0,0.1,0,0.1,0,0.1c-0.1-0.2-0.2-0.4-0.2-0.6c0-0.2-0.1-0.4-0.1-0.6l0-0.4c0,0,0-0.1,0.1-0.1s0.1,0,0.1,0
		c0.1,0,0.2,0,0.3,0.1s0.2,0.2,0.3,0.3c0.1,0.1,0.2,0.2,0.3,0.3c0.1,0.1,0.3,0.1,0.4,0.1c0.4,0,0.8-0.1,1.2-0.2
		c0.4-0.2,0.9-0.4,1.4-0.6c0.5-0.3,1-0.6,1.4-0.9c0.5-0.3,0.9-0.7,1.4-1c0.4-0.3,0.8-0.7,1.2-1c0.4-0.3,0.7-0.6,0.9-0.8
		c0.1-0.1,0.2-0.2,0.4-0.4c0.2-0.2,0.4-0.3,0.6-0.5c0.2-0.2,0.4-0.4,0.6-0.5c0.2-0.2,0.3-0.3,0.4-0.4L23.6,10L23.6,10z M12.8,11.4
		c-0.1,0-0.1,0-0.2,0c-0.1,0-0.1,0.1-0.1,0.1s0,0.1,0.1,0.2c0.1,0,0.1,0.1,0.2,0.1c0.1,0,0.1,0,0.2-0.1c0.1-0.1,0.1-0.1,0.1-0.2
		c0-0.1,0-0.1-0.1-0.1C12.9,11.4,12.8,11.4,12.8,11.4z M13.7,8.3c-0.1-0.1-0.1-0.1-0.2-0.1c0,0,0-0.1,0-0.1c0-0.1,0.1-0.2,0.2-0.3
		l0.7,0c0.2,0,0.4,0,0.7,0s0.5,0,0.7,0.1c0.2,0,0.5,0.1,0.7,0.2c0.2,0.1,0.4,0.2,0.6,0.3c0.2,0.1,0.3,0.3,0.4,0.5
		c0.1,0.2,0.2,0.4,0.2,0.7c0,0.1,0,0.2,0,0.4c0,0.1-0.1,0.2-0.2,0.3c-0.1,0.1-0.2,0.2-0.3,0.3c-0.1,0.1-0.2,0.1-0.4,0.1
		c-0.1,0-0.3,0-0.5-0.1c-0.2,0-0.3-0.1-0.5-0.2c0-0.1-0.1-0.2-0.3-0.3s-0.3-0.3-0.5-0.4c-0.2-0.1-0.3-0.3-0.5-0.4
		C14.7,9.1,14.6,9,14.5,9c0,0-0.1-0.1-0.2-0.1c-0.1-0.1-0.2-0.1-0.3-0.2s-0.2-0.1-0.3-0.2C13.8,8.4,13.7,8.3,13.7,8.3z M13.7,18.4
		C13.7,18.4,13.8,18.4,13.7,18.4c0.1,0.2,0,0.2,0,0.2C13.6,18.6,13.6,18.5,13.7,18.4C13.6,18.4,13.6,18.4,13.7,18.4z M13.9,17.6
		h-0.1c0,0,0,0.1,0,0.2c0,0.1,0,0.1,0.1,0.1V17.6z M14.6,13.8C14.6,13.8,14.5,13.8,14.6,13.8c-0.1-0.2,0-0.2,0-0.2
		S14.7,13.7,14.6,13.8C14.7,13.8,14.7,13.8,14.6,13.8z M15.5,13.3C15.5,13.3,15.6,13.3,15.5,13.3c0.2-0.1,0.2-0.2,0.2-0.2
		c0,0,0,0,0,0c0-0.1,0-0.2-0.1-0.2c0-0.1-0.1-0.1-0.1-0.2c0-0.2,0-0.3,0-0.4c0-0.1,0-0.2,0.1-0.4c0.1,0.1,0.3,0.3,0.3,0.4
		c0.1,0.2,0.1,0.3,0.1,0.5c0,0.2,0,0.4-0.1,0.5c-0.1,0.1-0.2,0.3-0.4,0.4c0,0,0-0.1-0.1-0.2C15.5,13.4,15.5,13.4,15.5,13.3z
		 M16.1,16.5c0.2,0,0.3,0,0.4-0.1c0.1-0.1,0.1-0.2,0.1-0.4l0-0.2c-0.1,0-0.1-0.1-0.1-0.1c0,0-0.1,0-0.1,0c-0.1,0-0.1,0-0.2,0
		S16,15.8,16,15.8c-0.1,0-0.1,0.1-0.2,0.2c0,0.1-0.1,0.1-0.1,0.2c0,0.1,0,0.2,0.1,0.3S16,16.5,16.1,16.5z M16.2,9.4c0,0-0.1,0-0.2,0
		C16,9.4,16,9.5,16,9.6c0,0.1,0,0.1,0,0.2c0,0,0.1,0.1,0.1,0.1s0.1,0,0.2-0.1c0.1-0.1,0.1-0.1,0.1-0.2c0-0.1,0-0.1-0.1-0.1
		C16.3,9.4,16.3,9.4,16.2,9.4z M18.9,16.1c-0.1,0.1-0.1,0.2-0.2,0.2s-0.2,0.1-0.2,0.2c-0.1,0-0.1,0-0.1-0.1s0-0.1,0-0.1
		c0-0.1,0-0.2,0.1-0.2c0.1,0,0.1,0,0.2,0H18.9z M20.5,9.7c0,0-0.1-0.1-0.3-0.2c-0.1-0.2-0.3-0.3-0.4-0.5s-0.3-0.4-0.4-0.6
		c-0.1-0.2-0.2-0.3-0.2-0.4c0-0.1,0-0.2,0.1-0.2s0.2,0,0.3,0c0.2,0,0.4,0,0.7,0.1s0.5,0.2,0.7,0.4c0.2,0.2,0.4,0.4,0.6,0.6
		s0.2,0.4,0.2,0.7c0,0.2-0.1,0.4-0.2,0.5c-0.1,0.1-0.3,0.2-0.6,0.2c0-0.1,0-0.2,0.1-0.3c0.1-0.1,0.1-0.2,0.2-0.3h-0.1
		c0,0-0.1,0-0.1,0c-0.1,0-0.1,0-0.2,0s-0.2,0-0.2,0S20.6,9.7,20.5,9.7L20.5,9.7z M21.6,8c-0.1-0.1-0.3-0.3-0.5-0.5
		c-0.2-0.2-0.3-0.4-0.4-0.5c0.1,0,0.2,0,0.2,0c0,0,0,0,0,0c0,0,0,0,0,0s0,0,0-0.1l-0.1,0l-0.2,0.1V6.8c0-0.1,0-0.2,0.1-0.2
		c0.1,0,0.2,0,0.3,0c0.1,0,0.3,0,0.5,0.1c0.2,0.1,0.5,0.1,0.7,0.2c0.2,0.1,0.5,0.2,0.6,0.4s0.3,0.3,0.3,0.5v0.1c-0.1,0-0.1,0-0.2,0
		c0,0-0.1,0-0.1,0c0,0-0.1,0-0.1,0c0,0,0,0,0,0s0,0,0,0c-0.2-0.1-0.3-0.2-0.5-0.3c-0.2-0.2-0.3-0.3-0.3-0.4h-0.2V8z M20.8,12.8
		c-0.1,0-0.1,0-0.2,0.1h0.2V12.8z M21.7,9.5C21.7,9.5,21.7,9.5,21.7,9.5C21.6,9.5,21.6,9.5,21.7,9.5C21.6,9.6,21.6,9.6,21.7,9.5
		C21.7,9.6,21.7,9.6,21.7,9.5z M23.2,8.5c0,0.2-0.1,0.3-0.2,0.3c-0.1,0-0.3,0-0.4,0c-0.1,0-0.2,0-0.3-0.1c-0.1,0-0.2-0.1-0.3-0.2
		c-0.1-0.1-0.2-0.2-0.2-0.2s-0.1-0.2-0.1-0.3c0.2,0,0.5,0,0.8,0.1C22.8,8.3,23,8.4,23.2,8.5L23.2,8.5z"/>
	<path class="st2" d="M31.3,12c0.3,0,0.5,0,0.8-0.1c0.3-0.1,0.5-0.2,0.8-0.3c0.3-0.1,0.5-0.2,0.8-0.3c0.3-0.1,0.5-0.1,0.8-0.1
		c0.2,0,0.4,0.1,0.6,0.2s0.4,0.2,0.6,0.4s0.3,0.4,0.4,0.6s0.2,0.4,0.2,0.6c0,0.1-0.1,0.1-0.2,0.2c-0.1,0.1-0.2,0.2-0.4,0.3
		c-0.2,0.1-0.3,0.3-0.5,0.4s-0.4,0.2-0.5,0.4c-0.2,0.1-0.3,0.2-0.4,0.3c-0.1,0.1-0.2,0.1-0.2,0.1c-0.1-0.1-0.1-0.3-0.2-0.4
		c-0.1-0.2-0.2-0.2-0.3-0.2c-0.1,0-0.2,0-0.2,0.1s0,0.1,0,0.2c0,0,0,0,0,0.1c0,0,0,0,0,0.1l0.5,0.5c-0.1,0.2-0.3,0.3-0.5,0.4
		s-0.4,0.1-0.6,0.1v-0.3c0.1-0.2,0.2-0.4,0.3-0.6c0.1-0.2,0.2-0.3,0.3-0.5c0.1-0.2,0.1-0.3,0.2-0.5s0.1-0.3,0.1-0.5h-0.7
		c0-0.1,0-0.2,0.1-0.3s0.1-0.2,0.1-0.3c0,0-0.1,0-0.3,0.1c-0.1,0.1-0.3,0.2-0.4,0.3c-0.1,0.1-0.3,0.3-0.4,0.4s-0.2,0.2-0.2,0.3
		l0,0.2l0.6,2.2l-0.1,0.1c0.1,0,0.2,0.1,0.2,0.2s0,0.2,0,0.3h-0.2c0,0.1,0.1,0.2,0.2,0.2s0.2,0.1,0.2,0.2c-0.1,0-0.2,0-0.2,0.1
		c0,0.1,0,0.2,0,0.3l0.1,0c0,0,0.1,0,0.1,0c0,0,0.1,0,0.1,0c0.1,0.2,0.1,0.3,0.1,0.5c0,0.2,0,0.3,0,0.5c0,0.3-0.1,0.5-0.2,0.6
		C32.4,19,32.2,19,31.9,19c-0.2,0-0.3,0-0.4-0.1s-0.1-0.1-0.1-0.1c0-0.1,0-0.1,0-0.2s-0.1-0.1-0.2-0.1c0,0,0,0.1,0,0.1
		c0,0,0,0.1-0.1,0.1h0c-0.1,0-0.2-0.1-0.2-0.2c-0.1-0.1-0.1-0.2-0.1-0.3h0.4c0-0.2,0-0.3,0-0.4c0-0.1-0.1-0.1-0.1-0.2
		c-0.1-0.1-0.1-0.1-0.2-0.2c-0.1-0.1-0.2-0.2-0.3-0.3c0,0,0-0.2,0-0.3s0-0.4-0.1-0.6c0-0.2-0.1-0.5-0.1-0.8c0-0.3-0.1-0.5-0.1-0.8
		c0-0.2-0.1-0.4-0.2-0.6c-0.1-0.2-0.1-0.2-0.2-0.2c-0.2,0-0.3,0-0.5,0.1s-0.3,0.2-0.4,0.3c-0.1,0.1-0.3,0.2-0.4,0.3
		c-0.1,0.1-0.3,0.1-0.5,0.1c-0.2,0-0.4,0-0.6-0.1c-0.2-0.1-0.3-0.2-0.5-0.4c-0.1-0.2-0.2-0.3-0.3-0.5c-0.1-0.2-0.1-0.4-0.1-0.6
		l0-0.3c0,0,0-0.1,0.1-0.1s0.1,0,0.1,0c0.2,0,0.4,0,0.5,0.1s0.3,0.1,0.5,0.1c0.1,0,0.2,0,0.4,0s0.4,0,0.6,0c0.2,0,0.4-0.1,0.5-0.2
		c0.1-0.1,0.2-0.2,0.2-0.3c0-0.3-0.1-0.5-0.2-0.7c-0.1-0.2-0.3-0.4-0.5-0.6s-0.3-0.3-0.5-0.4s-0.2-0.2-0.2-0.3
		c0-0.1,0.1-0.2,0.2-0.3c0.1-0.1,0.3-0.1,0.4-0.1s0.3,0,0.5,0c0.1,0,0.2,0,0.3,0c0.1,0,0.2,0,0.4,0c0.2,0,0.4,0,0.6,0.1
		c0.2,0,0.4,0.1,0.5,0.2c0.2,0.1,0.2,0.2,0.2,0.3V12z M27.1,13.2C27.2,13.2,27.2,13.1,27.1,13.2C27.2,13.1,27.2,13.1,27.1,13.2
		C27.1,13.1,27.1,13.1,27.1,13.2C27.1,13.1,27.1,13.2,27.1,13.2z M27.7,13.7c-0.1,0-0.1,0-0.2,0.1s-0.1,0.1-0.1,0.2
		c0,0.1-0.1,0.2-0.1,0.2c0,0.1,0,0.1,0,0.2c0.1,0,0.1,0,0.2-0.1c0.1-0.1,0.1-0.1,0.1-0.2c0-0.1,0.1-0.2,0.1-0.2
		C27.7,13.8,27.7,13.8,27.7,13.7z M30,11.7c0.1-0.1,0.1-0.2,0.2-0.3c0-0.1,0.1-0.2,0.1-0.2c0-0.1,0-0.1,0-0.1c0-0.1,0-0.1-0.1-0.2
		s-0.1,0-0.2,0c0,0-0.1,0-0.1,0.1c-0.1,0.1-0.1,0.1-0.2,0.2c-0.1,0.1-0.1,0.2-0.1,0.2c0,0.1-0.1,0.1-0.1,0.2v0L30,11.7L30,11.7z
		 M29.7,10.2C29.8,10.2,29.8,10.2,29.7,10.2C29.8,10.1,29.8,10.1,29.7,10.2C29.7,10.1,29.7,10.1,29.7,10.2
		C29.7,10.2,29.7,10.2,29.7,10.2z M31.3,14.5c0-0.1-0.1-0.2-0.2-0.2c-0.1,0-0.3,0-0.4,0.1s-0.3,0.1-0.4,0.1c0.1,0.1,0.1,0.2,0.2,0.3
		s0.2,0,0.3,0c0.1,0,0.2,0,0.3,0C31.3,14.7,31.3,14.6,31.3,14.5z M30.7,18.3C30.6,18.3,30.6,18.3,30.7,18.3c-0.1-0.2,0-0.2,0-0.2
		S30.7,18.1,30.7,18.3C30.7,18.3,30.7,18.3,30.7,18.3z M30.9,16.2L30.9,16.2l0.2,0.1L30.9,16.2z M34,11.7
		C34.1,11.7,34.1,11.6,34,11.7c0.1-0.2,0-0.2,0-0.2C34,11.5,34,11.5,34,11.7C34,11.6,34,11.7,34,11.7z M34.4,13.1
		C34.4,13.1,34.4,13,34.4,13.1c-0.1,0-0.1,0-0.2,0s-0.1,0-0.1,0s-0.1,0,0,0c0,0,0.1,0,0.2,0C34.3,13.1,34.4,13.1,34.4,13.1z
		 M35.1,11.6c-0.1,0-0.3,0-0.4,0.1c-0.1,0.1-0.2,0.1-0.4,0.1c0,0,0,0,0,0.1c0,0,0,0,0,0c0,0,0,0.1,0,0.1c0,0,0,0.1,0,0.1
		c0,0,0,0,0,0c0,0,0,0,0.1,0c0,0,0.1,0,0.2-0.1c0.1,0,0.1-0.1,0.2-0.1c0.1,0,0.1-0.1,0.2-0.1s0.1,0,0.1,0V11.6z"/>
	<path class="st2" d="M40.4,8.3C40.4,8.3,40.4,8.3,40.4,8.3c0.1-0.1,0.1-0.2,0.1-0.2c0,0,0.1,0,0.3,0s0.2,0,0.3,0
		c0.2,0,0.5,0,0.8,0.1s0.6,0.1,0.9,0.2c0.3,0.1,0.6,0.2,0.9,0.3s0.6,0.3,0.8,0.5c0.2,0.2,0.4,0.4,0.6,0.7c0.1,0.2,0.2,0.5,0.2,0.8
		c0,0.2,0,0.4-0.1,0.5c-0.1,0.1-0.2,0.1-0.4,0.1c0,0,0,0,0,0.1v0.1c0,0,0,0,0,0.1c0,0.1,0,0.1,0,0.1c0,0.1,0,0.1-0.1,0.2
		c-0.1,0-0.1,0.1-0.2,0.1c-0.1,0-0.2,0-0.3,0c-0.1,0-0.2,0-0.2,0c-0.2,0-0.4-0.1-0.7-0.2c-0.2-0.1-0.5-0.3-0.7-0.5
		c-0.2-0.2-0.5-0.4-0.7-0.7c-0.2-0.3-0.4-0.5-0.6-0.8c-0.2-0.3-0.4-0.5-0.6-0.7C40.7,8.7,40.5,8.5,40.4,8.3L40.4,8.3z M40.5,15.2
		C40.5,15.2,40.5,15.1,40.5,15.2c0.1-0.1,0.1-0.1,0.2-0.1c0.1,0,0.1,0,0.2,0.1s0.1,0.1,0.2,0.2s0.1,0.1,0.2,0.2
		c0.1,0.1,0.1,0.1,0.1,0.2c-0.1-0.1-0.3,0-0.4,0c-0.1,0.1-0.2,0.2-0.2,0.4c0,0.2,0.1,0.4,0.2,0.5s0.3,0.3,0.5,0.3c0,0,0.1,0,0.2-0.1
		c0.1,0,0.2-0.1,0.3-0.2c0.1-0.1,0.2-0.1,0.3-0.2c0.1-0.1,0.1-0.1,0.1-0.2c0-0.1,0-0.1-0.1-0.2c-0.1,0-0.1-0.1-0.2-0.1
		c-0.1,0-0.1,0-0.2-0.1s-0.1,0-0.2,0c0.6,0,1.2-0.2,1.8-0.4c0.6-0.2,1.2-0.5,1.8-0.8c0.6-0.3,1.2-0.7,1.8-1.1
		c0.6-0.4,1.1-0.9,1.7-1.3c0.5-0.5,1-0.9,1.5-1.4c0.5-0.5,0.9-0.9,1.3-1.3c0,0,0,0,0,0c0,0,0,0,0.1,0c0,0,0.1,0,0.1,0s0.1,0,0.1,0
		l0,0c-0.2,0-0.3,0.1-0.4,0.2c-0.1,0.1-0.2,0.3-0.3,0.4c-0.1,0.2-0.2,0.3-0.2,0.5c-0.1,0.2-0.1,0.3-0.1,0.5l0.1,0.2c0,0,0,0,0,0
		s0,0,0,0c0,0.1-0.1,0.3-0.3,0.6c-0.2,0.3-0.4,0.6-0.8,0.9c-0.3,0.3-0.7,0.7-1.1,1.1c-0.4,0.4-0.8,0.8-1.3,1.2
		c-0.4,0.4-0.9,0.8-1.4,1.1s-0.9,0.7-1.3,1c-0.4,0.3-0.7,0.5-1,0.7c-0.3,0.2-0.5,0.2-0.7,0.2c-0.1,0-0.2,0-0.3,0c-0.1,0-0.2,0-0.4,0
		s-0.2-0.1-0.3-0.1s-0.1-0.1-0.1-0.2v-0.3c0,0,0,0,0,0s0,0,0,0c0,0,0,0,0,0c0,0,0,0,0,0.1c0,0,0,0.1,0,0.1c0,0,0,0-0.1,0
		c0,0,0,0,0,0c-0.3-0.3-0.6-0.6-0.8-0.9c-0.2-0.3-0.3-0.7-0.3-1.2V15.2z M41.5,15.8C41.5,15.7,41.5,15.7,41.5,15.8
		C41.6,15.7,41.6,15.7,41.5,15.8C41.6,15.8,41.6,15.8,41.5,15.8C41.5,15.8,41.5,15.8,41.5,15.8z M44.5,9.6c-0.1,0-0.1,0-0.3,0
		c-0.1,0-0.2,0-0.3,0.1c-0.1,0-0.2,0.1-0.3,0.2c-0.1,0.1-0.1,0.1-0.1,0.2c0,0.1,0,0.2,0.1,0.2c0.1,0.1,0.1,0.1,0.2,0.1c0,0,0,0,0,0
		s0,0,0,0c0,0,0.1-0.1,0.2-0.2c0.1-0.1,0.1-0.1,0.2-0.2c0.1-0.1,0.1-0.2,0.2-0.2S44.5,9.7,44.5,9.6L44.5,9.6z M45.5,15.4
		C45.5,15.4,45.6,15.4,45.5,15.4c0.1-0.1,0.2-0.1,0.2-0.1c-0.1-0.1-0.2-0.1-0.3-0.1C45.4,15.2,45.4,15.3,45.5,15.4
		C45.4,15.4,45.5,15.4,45.5,15.4z M46.5,15.4c0.2,0,0.3,0,0.5-0.1c0.2-0.1,0.2-0.2,0.2-0.4c0-0.2-0.1-0.4-0.3-0.5
		c-0.2-0.1-0.4-0.1-0.6-0.1c0,0.1,0,0.2,0,0.3c0,0.1-0.1,0.2-0.1,0.2S46.1,15,46.1,15c0,0.1,0,0.1,0,0.2s0.1,0.1,0.2,0.1
		S46.4,15.4,46.5,15.4z M49.8,11.7c0-0.1,0-0.1-0.1-0.1c0,0-0.1,0-0.1,0s-0.1,0-0.2,0c-0.1,0-0.1,0.1-0.2,0.1
		c-0.1,0-0.1,0.1-0.2,0.2S49,12,49,12c0,0.1,0,0.2,0.1,0.2s0.2,0.1,0.2,0.1h0c0,0,0-0.1,0.1-0.1c0-0.1,0.1-0.1,0.1-0.2
		c0-0.1,0.1-0.1,0.1-0.2S49.8,11.8,49.8,11.7L49.8,11.7z M51.7,9.6L51.7,9.6L51.7,9.6z"/>
	<path class="st2" d="M58.9,10.3c-0.1,0.1-0.1,0.1-0.1,0.2s0,0.1,0,0.2c0,0.2,0,0.3,0.1,0.4c0,0.1,0.1,0.2,0.2,0.4
		c0.3-0.1,0.5-0.1,0.7,0c0.2,0.1,0.4,0.2,0.6,0.5c0.1,0,0.1-0.1,0.2-0.1s0-0.1,0-0.2c0,0-0.1-0.1-0.2-0.2c-0.1-0.1-0.3-0.3-0.5-0.4
		c-0.2-0.2-0.3-0.3-0.5-0.4c-0.1-0.1-0.2-0.2-0.3-0.2c0.1,0,0.2-0.1,0.4-0.2c0.2-0.1,0.4-0.1,0.7-0.2c0.3-0.1,0.5-0.2,0.8-0.2
		c0.3-0.1,0.6-0.1,0.9-0.2c0.3-0.1,0.5-0.1,0.7-0.2s0.4-0.1,0.4-0.1c0.2,0,0.4,0,0.6,0.1c0.2,0.1,0.4,0.1,0.6,0.3
		c0.2,0.1,0.3,0.2,0.5,0.4c0.1,0.2,0.2,0.4,0.2,0.6c0,0,0,0.1,0,0.2c0,0.1-0.1,0.2-0.1,0.2s-0.1,0.1-0.2,0.2
		c-0.1,0.1-0.1,0.1-0.2,0.1h-2.7c-0.1,0-0.2,0-0.3,0.1c-0.1,0-0.1,0-0.2,0.1c-0.1,0-0.1,0.1-0.1,0.1c0,0,0,0,0,0
		c0,0.1,0.1,0.1,0.2,0.2c0.1,0.1,0.1,0.1,0.2,0.2s0.1,0.2,0.2,0.3c0.1,0.1,0.1,0.2,0.1,0.3c0,0.3-0.1,0.6-0.4,1.1s-0.6,0.9-1,1.4
		c-0.4,0.5-0.9,1-1.4,1.4c-0.5,0.5-1.1,0.9-1.6,1.3c-0.5,0.4-1,0.7-1.5,0.9c-0.5,0.2-0.8,0.4-1.1,0.4c-0.1,0-0.1,0-0.2,0
		s-0.1-0.1-0.1-0.2c0,0,0.1-0.1,0.3-0.3s0.5-0.5,0.8-0.8c0.3-0.3,0.7-0.7,1-1.1c0.4-0.4,0.7-0.8,1.1-1.2c0.3-0.4,0.6-0.9,0.9-1.3
		c0.2-0.4,0.4-0.8,0.5-1.2c0,0,0-0.1,0-0.2c0-0.1,0-0.2,0-0.3s0-0.2,0-0.3c0-0.1,0-0.2,0-0.2c-0.2,0-0.4,0-0.5,0s-0.3,0-0.5,0
		c-0.2,0-0.3,0-0.3-0.1c-0.1-0.1-0.1-0.1-0.1-0.3l-0.1,0l-0.4,0.1c-0.1,0.1-0.2,0.2-0.3,0.3s-0.3,0.3-0.5,0.4s-0.3,0.3-0.5,0.4
		c-0.2,0.1-0.3,0.2-0.3,0.3c-0.1,0.1-0.3,0.3-0.5,0.4s-0.4,0.3-0.6,0.5c-0.2,0.2-0.4,0.3-0.7,0.4c-0.2,0.1-0.4,0.2-0.6,0.2h0
		L53,14.4v-0.1l0.1-0.2c0.3-0.4,0.7-0.8,1.1-1.3c0.4-0.5,0.8-0.9,1.2-1.4c0.4-0.5,0.7-1,0.9-1.6s0.4-1.1,0.4-1.6
		c0-0.1,0-0.2-0.1-0.3c-0.1-0.1-0.1-0.2-0.2-0.3c-0.1-0.1-0.1-0.2-0.2-0.3S56.1,7.1,56.1,7c0-0.1,0-0.2,0.1-0.2c0.1,0,0.2,0,0.2,0
		c0.2,0,0.5,0,0.8,0.1c0.3,0.1,0.6,0.2,0.9,0.4s0.6,0.3,0.8,0.6s0.3,0.5,0.3,0.7c0,0.1,0,0.2-0.1,0.3c-0.1,0.1-0.1,0.2-0.2,0.3
		c-0.1,0.1-0.2,0.2-0.3,0.3c-0.1,0.1-0.2,0.2-0.2,0.2c-0.2-0.1-0.3-0.3-0.4-0.4c-0.1-0.1-0.1-0.3-0.1-0.5c0-0.2,0.1-0.4,0.2-0.5
		c0.1-0.1,0.3-0.2,0.5-0.3V7.8c-0.3,0-0.6,0.1-0.9,0.2c-0.3,0.1-0.6,0.2-0.9,0.2V9c0,0.1,0.1,0.2,0.2,0.3c0.2,0.1,0.3,0.2,0.5,0.3
		s0.4,0.2,0.5,0.3s0.2,0.3,0.2,0.4H58.9z M53.9,13.8V14c0.1,0,0.1,0,0.2-0.1L53.9,13.8z M54.8,18.9C54.8,18.8,54.8,18.8,54.8,18.9
		L54.8,18.9C54.8,18.9,54.8,18.9,54.8,18.9L54.8,18.9z M55.5,12.9c0-0.1,0-0.1-0.1-0.2c-0.1,0-0.1,0.1-0.1,0.2H55.5z M56.1,11.6
		c0-0.1,0-0.2,0-0.2c0-0.1-0.1-0.1-0.2-0.1c0,0.1,0,0.2,0,0.2C55.9,11.6,56,11.6,56.1,11.6z M57.4,7.3c-0.1,0-0.2,0-0.3,0
		c-0.1,0-0.1-0.1-0.2-0.1c-0.1,0-0.1-0.1-0.2-0.1c-0.1,0-0.1,0-0.2,0c0,0.1,0,0.2,0.1,0.3c0,0.1,0.1,0.2,0.3,0.2c0.1,0,0.2,0,0.3,0
		C57.3,7.5,57.4,7.4,57.4,7.3z M60.3,15c0.1,0,0.2,0,0.2-0.1c0-0.1,0.1-0.2,0.1-0.3c-0.1,0-0.2,0-0.2,0.1C60.3,14.9,60.2,15,60.3,15
		L60.3,15z M63.8,9.9c-0.1,0-0.2,0-0.3,0.1s-0.3,0.1-0.4,0.2c-0.1,0.1-0.2,0.1-0.4,0.2c-0.1,0.1-0.2,0.2-0.2,0.2
		c0,0.1,0,0.1,0.1,0.2c0.1,0,0.1,0,0.2,0c0.3,0,0.5-0.1,0.7-0.2C63.7,10.4,63.8,10.1,63.8,9.9z"/>
	<path class="st2" d="M68.4,8.3C68.4,8.3,68.4,8.3,68.4,8.3c0.1-0.1,0.1-0.2,0.1-0.2c0,0,0.1,0,0.3,0s0.2,0,0.3,0
		c0.2,0,0.5,0,0.8,0.1s0.6,0.1,0.9,0.2c0.3,0.1,0.6,0.2,0.9,0.3s0.6,0.3,0.8,0.5c0.2,0.2,0.4,0.4,0.6,0.7c0.1,0.2,0.2,0.5,0.2,0.8
		c0,0.2,0,0.4-0.1,0.5c-0.1,0.1-0.2,0.1-0.4,0.1c0,0,0,0,0,0.1v0.1c0,0,0,0,0,0.1c0,0.1,0,0.1,0,0.1c0,0.1,0,0.1-0.1,0.2
		c-0.1,0-0.1,0.1-0.2,0.1c-0.1,0-0.2,0-0.3,0c-0.1,0-0.2,0-0.2,0c-0.2,0-0.4-0.1-0.7-0.2c-0.2-0.1-0.5-0.3-0.7-0.5
		c-0.2-0.2-0.5-0.4-0.7-0.7c-0.2-0.3-0.4-0.5-0.6-0.8c-0.2-0.3-0.4-0.5-0.6-0.7C68.7,8.7,68.5,8.5,68.4,8.3L68.4,8.3z M68.5,15.2
		C68.5,15.2,68.5,15.1,68.5,15.2c0.1-0.1,0.1-0.1,0.2-0.1c0.1,0,0.1,0,0.2,0.1s0.1,0.1,0.2,0.2s0.1,0.1,0.2,0.2
		c0.1,0.1,0.1,0.1,0.1,0.2c-0.1-0.1-0.3,0-0.4,0c-0.1,0.1-0.2,0.2-0.2,0.4c0,0.2,0.1,0.4,0.2,0.5s0.3,0.3,0.5,0.3c0,0,0.1,0,0.2-0.1
		c0.1,0,0.2-0.1,0.3-0.2c0.1-0.1,0.2-0.1,0.3-0.2c0.1-0.1,0.1-0.1,0.1-0.2c0-0.1,0-0.1-0.1-0.2c-0.1,0-0.1-0.1-0.2-0.1
		c-0.1,0-0.1,0-0.2-0.1s-0.1,0-0.2,0c0.6,0,1.2-0.2,1.8-0.4c0.6-0.2,1.2-0.5,1.8-0.8c0.6-0.3,1.2-0.7,1.8-1.1
		c0.6-0.4,1.1-0.9,1.7-1.3c0.5-0.5,1-0.9,1.5-1.4c0.5-0.5,0.9-0.9,1.3-1.3c0,0,0,0,0,0c0,0,0,0,0.1,0c0,0,0.1,0,0.1,0s0.1,0,0.1,0
		l0,0c-0.2,0-0.3,0.1-0.4,0.2c-0.1,0.1-0.2,0.3-0.3,0.4c-0.1,0.2-0.2,0.3-0.2,0.5c-0.1,0.2-0.1,0.3-0.1,0.5l0.1,0.2c0,0,0,0,0,0
		s0,0,0,0c0,0.1-0.1,0.3-0.3,0.6c-0.2,0.3-0.4,0.6-0.8,0.9c-0.3,0.3-0.7,0.7-1.1,1.1c-0.4,0.4-0.8,0.8-1.3,1.2
		c-0.4,0.4-0.9,0.8-1.4,1.1s-0.9,0.7-1.3,1c-0.4,0.3-0.7,0.5-1,0.7c-0.3,0.2-0.5,0.2-0.7,0.2c-0.1,0-0.2,0-0.3,0c-0.1,0-0.2,0-0.4,0
		s-0.2-0.1-0.3-0.1s-0.1-0.1-0.1-0.2v-0.3c0,0,0,0,0,0s0,0,0,0c0,0,0,0,0,0c0,0,0,0,0,0.1c0,0,0,0.1,0,0.1c0,0,0,0-0.1,0
		c0,0,0,0,0,0c-0.3-0.3-0.6-0.6-0.8-0.9c-0.2-0.3-0.3-0.7-0.3-1.2V15.2z M69.5,15.8C69.5,15.7,69.5,15.7,69.5,15.8
		C69.6,15.7,69.6,15.7,69.5,15.8C69.6,15.8,69.6,15.8,69.5,15.8C69.5,15.8,69.5,15.8,69.5,15.8z M72.5,9.6c-0.1,0-0.1,0-0.3,0
		c-0.1,0-0.2,0-0.3,0.1c-0.1,0-0.2,0.1-0.3,0.2c-0.1,0.1-0.1,0.1-0.1,0.2c0,0.1,0,0.2,0.1,0.2c0.1,0.1,0.1,0.1,0.2,0.1c0,0,0,0,0,0
		s0,0,0,0c0,0,0.1-0.1,0.2-0.2c0.1-0.1,0.1-0.1,0.2-0.2c0.1-0.1,0.1-0.2,0.2-0.2S72.5,9.7,72.5,9.6L72.5,9.6z M73.5,15.4
		C73.5,15.4,73.6,15.4,73.5,15.4c0.1-0.1,0.2-0.1,0.2-0.1c-0.1-0.1-0.2-0.1-0.3-0.1C73.4,15.2,73.4,15.3,73.5,15.4
		C73.4,15.4,73.5,15.4,73.5,15.4z M74.5,15.4c0.2,0,0.3,0,0.5-0.1c0.2-0.1,0.2-0.2,0.2-0.4c0-0.2-0.1-0.4-0.3-0.5
		c-0.2-0.1-0.4-0.1-0.6-0.1c0,0.1,0,0.2,0,0.3c0,0.1-0.1,0.2-0.1,0.2S74.1,15,74.1,15c0,0.1,0,0.1,0,0.2s0.1,0.1,0.2,0.1
		S74.4,15.4,74.5,15.4z M77.8,11.7c0-0.1,0-0.1-0.1-0.1c0,0-0.1,0-0.1,0s-0.1,0-0.2,0c-0.1,0-0.1,0.1-0.2,0.1
		c-0.1,0-0.1,0.1-0.2,0.2S77,12,77,12c0,0.1,0,0.2,0.1,0.2s0.2,0.1,0.2,0.1h0c0,0,0-0.1,0.1-0.1c0-0.1,0.1-0.1,0.1-0.2
		c0-0.1,0.1-0.1,0.1-0.2S77.8,11.8,77.8,11.7L77.8,11.7z M79.7,9.6L79.7,9.6L79.7,9.6z"/>
	<path class="st2" d="M90.4,7.7c0.1,0,0.2-0.1,0.4-0.2c0.1-0.1,0.2-0.3,0.3-0.4c0.1-0.2,0.2-0.3,0.3-0.5c0.1-0.2,0.2-0.3,0.3-0.3
		c0,0,0.2,0,0.4,0.2s0.4,0.3,0.7,0.5c0.2,0.2,0.4,0.4,0.6,0.5c0.2,0.2,0.3,0.3,0.3,0.3c0,0-0.1,0-0.1,0s-0.1,0-0.1,0.1
		c0,0,0,0.1-0.1,0.2c0,0.1,0,0.2,0,0.2h-4.1l0.1,0.1c0,0,0.1,0,0.2,0c0.1,0,0.2,0,0.3,0c0.1,0,0.2,0,0.3,0c0.1,0,0.2,0,0.2,0
		c0.1,0,0.2,0,0.2,0c0,0,0.1,0.1,0.1,0.1c0,0.1,0,0.2-0.1,0.3c-0.1,0.1-0.2,0.2-0.2,0.2v2c0.2,0,0.4-0.1,0.5-0.2
		c0.1-0.1,0.2-0.3,0.3-0.5c0.1-0.2,0.2-0.4,0.3-0.5c0.1-0.2,0.2-0.3,0.4-0.4c0.1,0,0.2,0,0.3,0.1c0.1,0.1,0.2,0.2,0.4,0.3
		c0.1,0.1,0.2,0.2,0.3,0.3c0.1,0.1,0.2,0.2,0.2,0.2h-0.1c0,0.1,0,0.1,0,0.3c0,0.1,0,0.3,0,0.4c0,0.1,0.1,0.2,0.1,0.3
		c0.1,0.1,0.2,0.1,0.3,0.1c-0.5,0.3-1,0.5-1.4,0.7c-0.4,0.2-0.9,0.4-1.5,0.5l-0.1,0.1v0.7c0,0,0,0-0.1,0.1c0,0-0.1,0-0.1,0
		c0,0,0,0-0.1,0c-0.1,0-0.1,0-0.1,0h-0.2c0,0.1,0.1,0.1,0.1,0.2S89.9,14,90,14c0.1,0.1,0.1,0.1,0.1,0.2c0,0.1,0.1,0.2,0.1,0.2v2.4
		H92c0.1,0,0.3-0.1,0.3-0.2c0.1-0.1,0.1-0.2,0.2-0.4c0.1-0.1,0.1-0.3,0.1-0.5c0-0.2,0.1-0.3,0.1-0.5c0-0.1,0.1-0.3,0.1-0.4
		c0.1-0.1,0.1-0.2,0.3-0.2c0,0,0.1,0,0.1,0c0,0,0.1,0.1,0.1,0.1c0,0-0.1,0.1-0.2,0.3c-0.1,0.2-0.2,0.4-0.3,0.6
		c-0.1,0.2-0.3,0.5-0.4,0.7c-0.1,0.2-0.2,0.4-0.3,0.5v0c0,0.1,0,0.3,0.1,0.3c0.1,0.1,0.2,0.1,0.2,0.2c0.1,0,0.2,0.1,0.3,0.1
		c0.1,0.1,0.1,0.1,0.1,0.2c0,0.1,0,0.2,0,0.3c0,0.1,0,0.1,0,0.2c0,0.1,0,0.1,0.1,0.2c0,0.1,0.1,0.1,0.2,0.2
		c-0.3,0.1-0.7,0.2-1.1,0.2s-0.7,0-1.1,0c-0.1,0-0.4,0-0.6,0c-0.3,0-0.5,0-0.8,0s-0.5,0-0.7-0.1c-0.2,0-0.4-0.1-0.4-0.3
		c0.1-0.1,0.2-0.2,0.2-0.4c0-0.1,0-0.1-0.1-0.1c0,0-0.1,0-0.2,0s-0.1,0-0.2,0c0,0-0.1,0.1-0.1,0.2c-0.1,0-0.1-0.1-0.1-0.2
		c0-0.1-0.1-0.2-0.1-0.2s0-0.2-0.1-0.2c0-0.1,0-0.1,0-0.2v-6.3c-0.1,0-0.2,0-0.2,0.1s-0.1,0.1-0.1,0.2c0,0.1,0,0.2-0.1,0.2
		c0,0.1,0,0.2-0.1,0.3c0,0-0.1,0-0.1,0c-0.1,0-0.1,0-0.1,0c-0.1,0-0.3,0-0.4-0.1c-0.1-0.1-0.2-0.1-0.3-0.2s-0.2-0.2-0.3-0.2
		c-0.1-0.1-0.2-0.1-0.4-0.1c-0.1,0-0.2,0-0.3,0c-0.1,0-0.1,0.1-0.1,0.2c0,0.1,0,0.2,0.1,0.3c0.1,0.1,0.1,0.2,0.1,0.3
		c0,0.1,0,0.1,0,0.2s0,0.1,0,0.2v0l0.2,0.2h0c0.1,0,0.1,0,0.1-0.1s0.1-0.1,0.1-0.2c0-0.1,0.1-0.1,0.1-0.2c0-0.1,0.1-0.1,0.2-0.1
		s0.2,0,0.2,0.1s0.1,0.1,0.1,0.2c0,0.1,0,0.2-0.1,0.3c-0.1,0.1-0.1,0.2-0.2,0.3c-0.1,0.1-0.1,0.2-0.2,0.3c-0.1,0.1-0.1,0.2-0.1,0.3
		V14c0,0,0,0.1,0.1,0.1c0,0,0,0,0,0c0,0,0,0,0,0c0.1-0.1,0.1-0.2,0.1-0.3c0-0.1,0.1-0.1,0.1-0.2s0.1-0.1,0.2-0.1
		c0.1,0,0.1-0.1,0.2-0.2c0,0.1-0.1,0.3-0.2,0.6c-0.1,0.3-0.2,0.6-0.4,0.8c-0.1,0.3-0.3,0.5-0.4,0.8c-0.1,0.2-0.3,0.4-0.4,0.4
		c0,0,0,0-0.1,0s-0.1,0-0.1,0h-0.1c0,0-0.1,0-0.1,0.1c0,0,0.1,0.1,0.1,0.1c0,0.1,0.1,0.1,0.1,0.2c0,0.1-0.1,0.3-0.2,0.5
		c-0.2,0.2-0.4,0.4-0.7,0.7c-0.3,0.2-0.6,0.5-1,0.7c-0.4,0.2-0.7,0.5-1.1,0.7c-0.3,0.2-0.7,0.4-0.9,0.5c-0.3,0.1-0.5,0.2-0.6,0.2h0
		c0,0-0.1,0-0.1-0.1s-0.1-0.1-0.1-0.1c0.1-0.2,0.3-0.3,0.5-0.5c0.2-0.2,0.5-0.4,0.7-0.7c0.3-0.2,0.5-0.5,0.8-0.7s0.5-0.5,0.7-0.8
		s0.4-0.5,0.5-0.8c0.1-0.3,0.2-0.5,0.2-0.8c0-0.1,0-0.2-0.1-0.2c-0.1,0-0.2-0.1-0.3-0.1c-0.1,0-0.2,0-0.3-0.1
		c-0.1,0-0.1-0.1-0.1-0.2h0.3c-0.1-0.2-0.2-0.2-0.3-0.2c-0.1,0-0.2,0-0.3,0.1c0,0,0-0.1,0-0.2c0-0.1,0-0.2,0-0.4s-0.1-0.2-0.1-0.4
		s-0.1-0.2-0.2-0.2c-0.2,0-0.4,0.1-0.6,0.2s-0.3,0.3-0.5,0.5c-0.2,0.2-0.3,0.4-0.5,0.5c-0.2,0.2-0.4,0.2-0.6,0.2
		c0-0.2,0.1-0.4,0.2-0.8c0.1-0.3,0.3-0.7,0.5-1c0.2-0.4,0.4-0.7,0.6-1.1s0.3-0.6,0.5-0.8c0.1,0,0.2,0.1,0.3,0.3
		c0.1,0.1,0.2,0.2,0.3,0.4c0.1,0.1,0.2,0.2,0.2,0.3c0.1,0.1,0.1,0.1,0.2,0.1c0,0,0.1,0,0.1-0.1s0.1-0.1,0.1-0.2
		c0-0.1,0.1-0.1,0.1-0.2c0-0.1,0-0.1,0-0.2c0,0-0.1-0.1-0.2-0.2c-0.1-0.1-0.2-0.2-0.4-0.3c-0.1-0.1-0.3-0.2-0.4-0.3
		c-0.1-0.1-0.2-0.1-0.3-0.1c0-0.2,0-0.3,0.1-0.5c0-0.2,0.1-0.3,0.1-0.5c0.1-0.2,0.1-0.3,0.1-0.5c0-0.2,0.1-0.3,0.1-0.5
		c0-0.1,0-0.1,0-0.2c0,0,0-0.1,0-0.1c0,0,0-0.1-0.1-0.1h-2c0,0,0,0,0-0.1c0-0.1,0-0.1,0-0.1c0,0,0-0.1,0-0.2s0-0.1,0-0.2H90.4z
		 M81.5,19.1c0.1,0,0.1-0.1,0.1-0.2C81.6,18.9,81.5,19,81.5,19.1L81.5,19.1z M83.2,14.6C83.2,14.6,83.1,14.5,83.2,14.6
		c-0.1-0.2,0-0.2,0-0.2S83.3,14.4,83.2,14.6C83.3,14.5,83.3,14.6,83.2,14.6z M83.5,17.9C83.5,17.9,83.5,17.9,83.5,17.9
		C83.4,18,83.4,18,83.5,17.9C83.4,18,83.5,18,83.5,17.9C83.5,18,83.5,18,83.5,17.9z M84.2,11c-0.1,0-0.1,0-0.2,0.1
		c-0.1,0.1-0.2,0.2-0.2,0.3c-0.1,0.1-0.1,0.2-0.2,0.4c0,0.1-0.1,0.2-0.1,0.3c0,0.1,0.1,0.1,0.2,0.2c0.1,0.1,0.2,0.1,0.4,0.2
		c0.1,0.1,0.3,0.1,0.4,0.1c0.1,0,0.2,0.1,0.3,0.1c0.1-0.1,0.2-0.2,0.2-0.3c0.1-0.2,0.1-0.3,0.1-0.5c0-0.2,0-0.4,0-0.5
		c0-0.2,0-0.3,0-0.4H84.2z M87.8,8.3H86c-0.1-0.2-0.1-0.3-0.2-0.4c-0.1-0.1-0.2-0.1-0.3-0.1c-0.1,0-0.2,0-0.3,0.1
		C85.1,8,85,8,84.8,8c-0.1,0-0.1,0-0.2,0c0,0-0.1,0-0.1-0.1c0,0-0.1-0.1-0.1-0.1s-0.1,0-0.2,0c-0.1,0-0.2,0-0.4,0.1
		c-0.1,0.1-0.2,0.2-0.2,0.3v0c0.3,0,0.5,0.1,0.7,0.3c0.1,0.2,0.2,0.4,0.3,0.7c0.1-0.1,0.2-0.1,0.2-0.3C85,9,85,8.9,85,8.7
		c0-0.1,0-0.2,0.1-0.3c0-0.1,0.1-0.1,0.3-0.1v0.1l-0.6,1.5v0.4c0.2,0,0.3,0,0.4-0.1s0.2-0.1,0.3-0.2c0.1-0.1,0.2-0.2,0.3-0.3
		s0.2-0.2,0.4-0.4h0.1c0.1,0,0.2,0.1,0.4,0.2c0.1,0.1,0.2,0.2,0.3,0.4s0.2,0.2,0.3,0.3c0.1,0.1,0.2,0.1,0.4,0.1V8.3z M84.3,14.3
		c-0.1,0-0.2,0-0.2,0.1c-0.1,0.1-0.1,0.1-0.1,0.2c0.1,0,0.2,0,0.2-0.1C84.2,14.4,84.3,14.3,84.3,14.3z M84.3,9.8
		C84.3,9.8,84.3,9.8,84.3,9.8C84.4,9.9,84.4,9.9,84.3,9.8c0.2,0.1,0.2,0.1,0.3,0c0,0,0-0.1,0-0.2s0-0.1,0-0.1L84.3,9.8z M85.8,15.1
		c0-0.1,0-0.1-0.1-0.1c0,0-0.1,0-0.1,0c0,0,0,0.1,0,0.2c0,0.1,0,0.1,0.1,0.1C85.8,15.2,85.8,15.2,85.8,15.1L85.8,15.1z M87,13.2
		C87,13.2,87,13.1,87,13.2C87,13,87,13,87,13S87.1,13,87,13.2C87.1,13.1,87.1,13.2,87,13.2z M87.5,11.1c0-0.1-0.1-0.2-0.2-0.2
		s-0.2-0.1-0.3-0.1c0,0,0,0.1,0,0.1s0.1,0.1,0.1,0.2c0,0.1,0.1,0.1,0.1,0.2c0,0.1,0.1,0.1,0.1,0.1c0.1,0,0.1,0,0.1-0.1
		C87.5,11.2,87.5,11.2,87.5,11.1z M87.1,12.8C87.1,12.8,87.1,12.8,87.1,12.8C87.1,12.7,87.1,12.7,87.1,12.8
		C87.2,12.7,87.2,12.7,87.1,12.8C87.2,12.8,87.2,12.8,87.1,12.8z M87.2,12.5C87.2,12.5,87.2,12.5,87.2,12.5c0-0.2,0-0.2,0-0.2
		C87.3,12.3,87.3,12.4,87.2,12.5C87.3,12.5,87.3,12.5,87.2,12.5z M89.5,11.9c-0.2-0.1-0.3-0.2-0.4-0.3c-0.1-0.1-0.2-0.2-0.3-0.3
		c-0.1-0.1-0.2-0.1-0.3-0.2c-0.1,0-0.3-0.1-0.5-0.1v0.1c0.1,0,0.2,0.1,0.3,0.1s0.2,0.1,0.3,0.1c0.1,0.1,0.2,0.1,0.2,0.2
		c0.1,0.1,0.1,0.2,0.1,0.3c0,0.2-0.1,0.4-0.2,0.5c-0.1,0.1-0.3,0.2-0.5,0.2c0,0,0.1,0.1,0.2,0.1c0.1,0,0.2,0.1,0.3,0.1
		c0.1,0,0.2,0,0.3,0.1c0.1,0,0.1,0,0.1,0h0.1c0,0,0.1-0.1,0.2-0.2c0.1-0.1,0.1-0.1,0.1-0.1V11.9z M88,15.3c0,0.1,0,0.2,0.1,0.4
		c0.1,0.1,0.2,0.2,0.3,0.2c0,0,0-0.1,0-0.2s0-0.2,0-0.2c0-0.1,0-0.1-0.1-0.2c0-0.1-0.1-0.1-0.2-0.1c0,0,0,0,0,0
		C88,15.1,88,15.2,88,15.3L88,15.3z M88.3,18.9C88.3,18.9,88.3,18.8,88.3,18.9L88.3,18.9c-0.1-0.1-0.2-0.1-0.2-0.2
		c0-0.1,0-0.1,0.1-0.1c0,0,0.1,0,0.1,0.1h0C88.4,18.7,88.4,18.7,88.3,18.9C88.4,18.8,88.4,18.9,88.3,18.9z M89,16.8
		c0-0.1,0-0.1-0.1-0.2c0-0.1-0.1-0.1-0.1-0.1c0,0.1-0.1,0.1-0.1,0.2s-0.1,0.1-0.2,0.2c-0.1,0.1-0.1,0.1-0.1,0.2
		c0,0.1-0.1,0.1-0.1,0.2c0,0,0,0.1,0,0.1c0,0,0.1-0.1,0.1-0.1c0-0.1,0.1-0.1,0.2-0.2s0.1-0.1,0.2-0.2C88.9,16.8,88.9,16.8,89,16.8z
		 M88.8,16h-0.2l0.2,0.3V16z M89.6,18.7C89.5,18.6,89.5,18.6,89.6,18.7l-0.2-0.1l-0.2,0.1H89.6L89.6,18.7z M89.8,17h-0.2
		c0,0.1,0.1,0.2,0.2,0.2V17z M89.9,11.6C90,11.6,90,11.5,89.9,11.6c0.1-0.2,0-0.2,0-0.2C89.9,11.4,89.9,11.4,89.9,11.6
		C89.9,11.5,89.9,11.6,89.9,11.6z M90.5,12.4L90.5,12.4v0.2V12.4L90.5,12.4z M91.4,7.3c-0.1,0-0.2,0-0.3,0.1S91,7.5,91,7.6
		c0,0.1,0,0.2,0,0.2C91,7.9,91.1,8,91.1,8c0.1,0,0.1,0,0.1-0.1c0-0.1,0-0.1,0.1-0.2c0-0.1,0-0.1,0-0.2C91.4,7.4,91.4,7.4,91.4,7.3z
		 M91.8,11.9L91.8,11.9l-0.1,0.2h0.1V11.9z M93.2,10.8C93.2,10.8,93.2,10.8,93.2,10.8c-0.1-0.1-0.2-0.2-0.2-0.2c0,0,0,0,0.1,0
		c0,0,0,0,0,0C93.1,10.7,93.2,10.7,93.2,10.8C93.3,10.8,93.3,10.8,93.2,10.8L93.2,10.8z M93.4,11C93.3,11,93.3,11,93.4,11
		c-0.1-0.2,0-0.2,0-0.2C93.4,10.8,93.5,10.9,93.4,11C93.5,11,93.4,11,93.4,11z M93.5,17c-0.1,0-0.1-0.1-0.1-0.2v-0.1L93.5,17
		L93.5,17z M93.9,11.5L93.5,11h0.1c0,0,0.1,0.1,0.2,0.2C93.9,11.3,93.9,11.4,93.9,11.5L93.9,11.5z M93.9,17.2
		C93.9,17.2,93.9,17.2,93.9,17.2c0.1,0.2,0,0.2,0,0.2C93.8,17.4,93.8,17.3,93.9,17.2L93.9,17.2c-0.1,0.1-0.2,0.1-0.2,0h0
		c0,0-0.1,0-0.1-0.1s0-0.1,0.1-0.1c0.1,0,0.1,0,0.1,0.1L93.9,17.2C93.8,17.1,93.8,17.1,93.9,17.2L93.9,17.2z M93.8,7.8
		C93.8,7.9,93.8,7.9,93.8,7.8C93.9,7.9,93.9,8,93.9,8c0,0,0,0,0,0c0,0,0,0.1-0.1,0.1V7.8z M93.9,17.5C93.9,17.5,93.9,17.5,93.9,17.5
		c-0.1-0.2,0-0.2,0-0.2C94,17.4,94,17.4,93.9,17.5C94,17.5,94,17.5,93.9,17.5z"/>
	<path class="st2" d="M105.9,6.3c0.2,0.1,0.3,0.2,0.4,0.3c0.1,0.1,0.2,0.2,0.4,0.3s0.2,0.2,0.3,0.2c0.1,0,0.1,0.1,0.2,0.1
		s0.2,0.1,0.2,0.2c0.1,0.1,0.1,0.1,0.2,0.2s0.1,0.2,0.1,0.3c-0.1,0-0.3,0-0.4-0.1c-0.1-0.1-0.2-0.1-0.3-0.2c0,0,0,0.1,0,0.1
		c0,0.1,0,0.1-0.1,0.2c0,0.1,0,0.1,0,0.2c0,0.1,0,0.1,0,0.1c0,0,0,0.1,0,0.1s0,0.1,0,0.1c0.1,0,0.1,0,0.1,0c0,0,0.1,0,0.1,0v9.9
		c0,0.2-0.1,0.4-0.2,0.6c-0.1,0.2-0.3,0.3-0.5,0.4c-0.2,0.1-0.4,0.2-0.7,0.3c-0.2,0.1-0.5,0.1-0.6,0.1c-0.1,0-0.2,0-0.3-0.1
		c-0.1-0.1-0.1-0.2-0.1-0.3s0-0.2,0-0.4c0-0.1,0-0.3,0-0.4c0-0.1,0-0.2-0.1-0.3s-0.1-0.1-0.2-0.1h-0.1c-0.2,0.3-0.5,0.5-0.7,0.7
		s-0.6,0.2-0.9,0.2c-0.1,0-0.2-0.1-0.3-0.2c0-0.2-0.1-0.3-0.2-0.5c-0.1-0.2-0.2-0.4-0.3-0.5s-0.4-0.2-0.7-0.2c0,0,0,0,0,0s0,0,0,0h0
		l-2.4,1.2c0,0,0,0-0.1,0.1c0,0-0.1,0.1-0.1,0.1c-0.1,0-0.1,0.1-0.1,0.1c0,0-0.1,0.1-0.1,0.1h-0.1c-0.1,0-0.2,0-0.2-0.1
		c-0.1-0.1-0.1-0.2-0.1-0.3c0-0.1-0.1-0.2-0.1-0.3c0-0.1-0.1-0.1-0.2-0.1h0c0,0.3,0,0.5-0.1,0.7c-0.1,0.2-0.3,0.3-0.5,0.5
		c-0.2,0.1-0.4,0.2-0.7,0.2c-0.3,0-0.5,0.1-0.7,0.1c0,0-0.1,0-0.1,0c0,0-0.1,0-0.1-0.1v-3.2c0,0,0.1,0.1,0.1,0.1
		c0.1,0,0.1,0.1,0.2,0.1c0.1,0.1,0.2,0.1,0.2,0.1c0.1,0,0.1,0.1,0.2,0.1c0,0,0-0.1,0-0.3c0-0.1,0-0.2,0-0.3c0,0,0-0.1,0-0.1
		c0,0,0,0,0,0h-0.7v-3.8h0.3c0-0.1,0-0.1,0-0.2s-0.1,0-0.2,0v-1.8c0.1,0,0.3,0,0.4,0c0.1,0,0.2,0.1,0.3,0.1c0.1,0,0.2,0.1,0.3,0.1
		c0.1,0,0.2,0,0.4,0l0.4,0c0.1,0,0.1-0.1,0.1-0.1s0-0.1,0-0.2c-0.3,0-0.6,0-0.9-0.1c-0.3-0.1-0.6-0.1-0.9-0.1V6.4
		c0.1,0,0.3,0,0.5,0.1c0.2,0.1,0.3,0.1,0.5,0.2c0.2,0.1,0.3,0.1,0.4,0.2C96.7,7,96.8,7,96.9,7.1h1.8l0.8-0.7c0,0,0,0,0.1,0
		c0,0,0,0,0.1,0c0,0,0,0,0.1,0c0.1,0,0.2,0.1,0.3,0.2s0.3,0.2,0.4,0.3c0.1,0.1,0.3,0.2,0.4,0.3c0.1,0.1,0.2,0.2,0.3,0.2h0.2V6.5h0.4
		l1.3,0.6h1.9L105.9,6.3L105.9,6.3z M95.3,6.9C95.3,6.9,95.3,6.9,95.3,6.9C95.3,6.8,95.3,6.8,95.3,6.9C95.2,6.8,95.2,6.8,95.3,6.9
		C95.2,6.9,95.2,6.9,95.3,6.9z M95.9,7.7C95.9,7.8,95.9,7.8,95.9,7.7c0,0.2,0,0.2,0,0.3c0,0.1-0.1,0.1-0.1,0.2
		c0,0.1-0.1,0.1-0.1,0.2s0,0.1,0,0.2c0,0.1,0,0.1,0.1,0.2S95.9,9,96,9.1c0.1,0.1,0.2,0.2,0.3,0.2c0.1,0.1,0.1,0.1,0.2,0.1
		c0.1,0,0.1,0,0.1-0.1c0-0.1,0-0.1,0-0.2c0-0.1,0-0.2-0.1-0.3c-0.1-0.1-0.1-0.2-0.1-0.3c0-0.2,0-0.4,0.1-0.6
		c0.1-0.2,0.1-0.4,0.1-0.6c0,0,0-0.1,0-0.1c0,0,0-0.1-0.1-0.1l-0.3,0c-0.1,0-0.3,0-0.4,0c-0.1,0-0.2,0.1-0.3,0.2L95.9,7.7z
		 M95.7,18.1C95.7,18.1,95.8,18.1,95.7,18.1C95.8,18.1,95.8,18,95.7,18.1c0.1-0.2,0-0.3-0.1-0.3c0,0,0,0.1,0,0.2
		C95.6,18,95.7,18.1,95.7,18.1z M96.7,17.6c0,0,0.1,0,0.2,0c0.1,0,0.1,0,0.1-0.1c0,0,0-0.1-0.1-0.1c0,0-0.1,0-0.1,0c0,0-0.1,0-0.1,0
		V17.6z M97.5,13.8c0.1,0,0.3-0.1,0.4-0.2c0.1-0.1,0.2-0.2,0.3-0.4c0,0,0-0.1-0.1-0.1s-0.1,0-0.1,0l-0.1,0c0,0-0.1,0.1-0.2,0.2
		s-0.2,0.2-0.2,0.2c0,0,0-0.1,0-0.2s0-0.2,0-0.3c0-0.1,0-0.2,0-0.3c0-0.1,0-0.1,0-0.2l-0.1-0.2l-0.1,0.4l0,1.2c0,0.5,0,1.1,0,1.6
		c0,0.5,0,1.1,0.1,1.6h0.2c0,0,0.1,0,0.1,0c0.1,0,0.1,0,0.2,0c0.1,0,0.1,0,0.1,0s0.1,0,0.1-0.1v-0.1c0,0,0-0.1,0-0.2s0-0.2,0-0.3
		s0-0.2,0-0.3s0-0.2,0-0.2c0,0-0.1-0.1-0.1-0.1s-0.1,0-0.2-0.1c-0.1,0-0.1,0-0.1,0s-0.1,0-0.1-0.1V13.8z M97.2,8.7h1.4V7.9h-0.5V7.6
		c-0.1,0-0.1,0-0.2,0.1c-0.1,0.1-0.1,0.1-0.1,0.2h-0.7V8.7z M97.2,10.2h1.3c0,0,0,0,0.1,0s0.1,0,0.1,0c0,0,0,0,0,0s0,0,0,0l0.1,0
		c0.1,0,0.2,0,0.2-0.1c0-0.1,0.1-0.2,0.1-0.3c0,0-0.1,0-0.1,0l-0.1,0c0,0-0.1,0-0.2,0c-0.1,0-0.2,0-0.2,0c0-0.1,0-0.3-0.1-0.4
		c0-0.1-0.1-0.2-0.1-0.2c-0.1,0-0.1-0.1-0.2-0.1c-0.1,0-0.2,0-0.4,0c0,0-0.1,0-0.1,0c-0.1,0-0.1,0-0.2,0c-0.1,0-0.1,0-0.2,0
		c-0.1,0-0.1,0-0.1,0c0,0,0,0-0.1,0c0,0,0,0,0,0V10.2z M102.5,11.4L102.5,11.4c-0.1-0.1-0.2-0.1-0.3-0.1s-0.2,0-0.3,0
		c-0.1,0-0.2,0-0.3,0c-0.1,0-0.1,0-0.2,0c-0.1,0-0.1,0-0.2,0c0,0,0-0.1,0-0.1c0-0.1,0-0.2,0.1-0.3c0.1-0.1,0.1-0.2,0.2-0.4
		c0.1-0.1,0.1-0.2,0.2-0.4c0.1-0.1,0.1-0.2,0.1-0.3c0-0.1,0-0.1,0-0.1c0,0-0.1,0-0.2-0.1c0,0-0.1,0-0.1-0.1c0,0-0.1-0.1-0.1-0.1
		c0,0-0.1-0.1-0.2-0.1V7.9c-0.1,0-0.2,0-0.3,0.1s-0.2,0.1-0.2,0.2v2.5c0,0,0,0-0.1,0c0,0-0.1,0-0.1,0h0c-0.1,0-0.2,0-0.3-0.1
		s-0.1-0.1-0.2-0.1c-0.1-0.1-0.1-0.1-0.2-0.1c-0.1,0-0.1-0.1-0.2-0.1c0,0.1,0,0.2,0.1,0.3c0,0.1,0.1,0.2,0.1,0.3
		c0,0.1,0,0.1-0.1,0.2c-0.1,0-0.1,0.1-0.2,0.1c-0.1,0-0.2,0-0.3,0c-0.1,0-0.2,0-0.2,0c-0.1,0-0.1,0-0.2-0.1s-0.1-0.1-0.1-0.2
		s0-0.1-0.1-0.2c0-0.1-0.1-0.1-0.1-0.1h-1.3v1h2.2c0.1,0,0.2,0,0.3-0.1c0.1-0.1,0.1-0.2,0.2-0.3c0.1-0.1,0.1-0.2,0.2-0.3
		c0.1-0.1,0.2-0.1,0.3-0.1c0.1,0,0.2,0,0.3,0.1c0.1,0.1,0.3,0.2,0.4,0.3c0.1,0.1,0.3,0.2,0.4,0.4c0.1,0.1,0.2,0.2,0.2,0.3v0.1
		c0,0.1-0.1,0.1-0.2,0.2c-0.1,0-0.2,0.1-0.3,0.1c-0.1,0-0.2,0-0.3,0c-0.1,0-0.2,0-0.2,0c0,0,0,0,0,0.1c0,0.1,0,0.1,0.1,0.2
		c0.1,0.1,0.1,0.1,0.2,0.1h1.5V11.4z M98,12.7C98,12.8,98,12.8,98,12.7c0.2,0.2,0.4,0.2,0.6,0.3c0.2,0.1,0.4,0.1,0.6,0.1
		c0.1,0,0.2,0,0.4-0.1c0.1-0.1,0.2-0.2,0.2-0.3c0-0.1,0-0.1,0-0.1c0,0-0.1-0.1-0.2,0l-0.7,0c-0.1,0-0.1,0-0.2,0c-0.1,0-0.2,0-0.3,0
		c-0.1,0-0.2,0-0.3,0C98.2,12.6,98.1,12.7,98,12.7C98,12.7,98,12.7,98,12.7z M100.2,15.6c0,0-0.1,0-0.2-0.1c-0.1,0-0.2-0.1-0.3-0.1
		c-0.1,0-0.2-0.1-0.3-0.1c-0.1,0-0.2-0.1-0.2-0.1c0,0,0,0-0.1,0c-0.1,0-0.1,0-0.1,0s0,0,0,0c0,0,0,0-0.1,0c0,0-0.1,0-0.2,0
		s-0.1,0.1-0.2,0.1c-0.1,0-0.1,0.1-0.1,0.1c0,0-0.1,0.1-0.1,0.1v0c0,0,0,0.1,0.1,0.1h0c0.1,0,0.2,0,0.4-0.1s0.2-0.1,0.4-0.1
		c0.1,0,0.2,0,0.3,0c-0.1,0-0.1,0-0.2,0s-0.2,0-0.3,0c-0.1,0-0.2,0.1-0.2,0.1c-0.1,0-0.1,0.1-0.1,0.2c0,0.1,0,0.1,0,0.2
		c0,0,0,0.1,0.1,0.1h-0.1c0,0-0.1,0-0.1,0c-0.1,0-0.1,0-0.1,0s0,0,0,0c0,0,0,0,0,0.1c0,0-0.1,0.1-0.1,0.1c0,0,0,0.1,0,0.1
		c0,0,0,0,0,0c0,0,0,0,0.1,0c0,0,0.1,0,0.3,0.1c0.1,0,0.2,0,0.2,0c0,0,0.1,0,0.1-0.1c0-0.1,0.1-0.1,0.1-0.1c0,0,0.1,0,0.2,0.1
		c0.1,0.1,0.2,0.1,0.2,0.1c0,0,0-0.1,0.1-0.1c0,0,0-0.1,0-0.1c0,0,0-0.1,0-0.2c0-0.1,0-0.2,0-0.2c0-0.1,0-0.2,0-0.3
		c0-0.1,0-0.1,0-0.2c0.1,0,0.2,0.1,0.3,0.1c0.1,0,0.2,0.1,0.3,0.1V15.6z M99,14.7C99,14.8,99,14.8,99,14.7
		C99,14.8,99.1,14.8,99,14.7l0.4,0.1c0.1,0,0.2,0,0.3,0c0.1,0,0.1-0.1,0.1-0.3c0.2,0,0.4,0.1,0.5,0.1c0.1,0.1,0.2,0.2,0.3,0.2
		s0.2,0.2,0.3,0.2c0.1,0.1,0.2,0.1,0.3,0.1c-0.1,0.1-0.2,0.2-0.2,0.3c-0.1,0.1-0.1,0.2-0.1,0.3c0,0,0,0,0,0.1c0,0.1,0.1,0.1,0.2,0.2
		c0.1,0,0.2,0,0.2,0c0,0,0,0,0,0c0,0,0.1-0.1,0.1-0.1c0.1-0.1,0.1-0.1,0.1-0.1c0.1,0.1,0.1,0.2,0.2,0.2c0.1,0,0.1,0.1,0.2,0.1
		c0.1,0,0.1,0,0.2-0.1c0,0,0.1-0.1,0.1-0.1c0-0.1,0-0.1,0-0.2c0-0.1,0-0.1,0-0.2c0-0.1,0-0.2-0.1-0.3s-0.1-0.2-0.2-0.3
		s-0.2-0.2-0.2-0.3c-0.1-0.1-0.2-0.2-0.2-0.2c0,0.2,0,0.3,0,0.4c-0.1,0.1-0.1,0.2-0.2,0.3c0-0.2-0.1-0.4-0.1-0.6
		c-0.1-0.2-0.2-0.3-0.5-0.4h-0.1c-0.1,0-0.2,0-0.3,0.1c-0.1,0.1-0.2,0.1-0.3,0.1c-0.1,0-0.2,0-0.2-0.1c-0.1-0.1-0.2-0.1-0.3-0.2
		s-0.2-0.2-0.3-0.2c-0.1-0.1-0.2-0.1-0.3-0.1c-0.1,0-0.1,0-0.1,0c0,0.1,0.1,0.1,0.2,0.2c0.1,0.1,0.1,0.1,0.2,0.1V14.7z M99,16.1
		C99,16.1,99.1,16.2,99,16.1c0.1,0.2,0,0.2,0,0.2C98.9,16.3,98.9,16.3,99,16.1C98.9,16.2,98.9,16.1,99,16.1z M99,8.8L99,8.8L99,8.8
		L99,8.8z M99.3,17.1L99.3,17.1L99.3,17.1L99.3,17.1z M99.9,17.9c0-0.1,0-0.2-0.1-0.3c-0.1-0.1-0.1-0.2-0.1-0.3c0-0.1,0-0.2,0.1-0.3
		s0.1-0.2,0.1-0.3c0-0.1,0.1-0.2,0.1-0.3s0.1-0.2,0.1-0.3l0-0.3c-0.1,0.1-0.2,0.2-0.3,0.3s-0.2,0.3-0.3,0.5s-0.2,0.3-0.2,0.5
		s-0.1,0.3-0.1,0.3c0,0.1,0,0.2,0.1,0.2s0.1,0.1,0.2,0.1c0.1,0,0.1,0,0.2,0C99.8,17.9,99.9,17.9,99.9,17.9z M99.5,9.6l0.4,0.1h0.1
		c0,0,0.1,0,0.2-0.1s0.1-0.1,0.2-0.2c0.1-0.1,0.1-0.1,0.2-0.2c0.1-0.1,0.1-0.1,0.1-0.2s0-0.1,0-0.1c0,0,0-0.1-0.1-0.1
		C100.3,9,100.1,9,100,9.1c-0.1,0.1-0.3,0.1-0.4,0.2S99.5,9.5,99.5,9.6L99.5,9.6z M100.2,7.6C100.2,7.6,100.2,7.6,100.2,7.6
		c0,0.1,0,0.1,0,0.2c0,0,0.1,0,0.1,0c0,0,0.1,0,0.1,0c0,0,0.1-0.1,0.1-0.1c0,0,0,0,0,0c0,0,0,0-0.1-0.1c0,0-0.1,0-0.1,0
		C100.4,7.5,100.3,7.5,100.2,7.6C100.2,7.5,100.2,7.5,100.2,7.6z M100.3,11.4C100.2,11.4,100.2,11.4,100.3,11.4
		c-0.1,0.2,0,0.2,0,0.2C100.3,11.6,100.4,11.5,100.3,11.4C100.4,11.4,100.3,11.4,100.3,11.4z M102.5,17.1c0-0.4-0.1-0.6-0.2-0.7
		c-0.2-0.1-0.4-0.2-0.8-0.2c-0.1,0-0.1,0-0.2,0.1c-0.1,0-0.2,0.1-0.3,0.1c-0.1,0.1-0.2,0.1-0.2,0.2c-0.1,0.1-0.1,0.1-0.2,0.2h0.8
		l0.3,0.3L102.5,17.1z M101,13.8c0,0,0-0.1,0-0.2c0-0.1,0-0.2-0.1-0.2c-0.1,0-0.1,0.1-0.1,0.2c0,0.1,0,0.2,0,0.2H101z M101,11.9
		c0,0-0.1,0-0.1,0c0,0-0.1,0.1-0.1,0.1c0,0,0,0.1,0.1,0.1c0,0,0.1,0,0.1,0V11.9z M101.2,15.1C101.2,15.1,101.1,15.2,101.2,15.1
		c-0.1,0.1-0.1,0.1-0.1,0.1h0.1V15.1z M101.4,14c0.1,0.1,0.3,0.2,0.5,0.3c0.2,0.1,0.3,0.2,0.5,0.3c0.1,0,0.1-0.1,0.1-0.2
		c0-0.1,0-0.1,0-0.2v-0.2c0,0,0-0.1,0-0.1s0,0-0.1,0L101.4,14L101.4,14z M102.6,7.7C102.6,7.7,102.7,7.7,102.6,7.7
		C102.7,7.7,102.7,7.7,102.6,7.7C102.7,7.6,102.7,7.6,102.6,7.7C102.6,7.6,102.6,7.6,102.6,7.7z M104,15c-0.1,0-0.3,0-0.5,0.1
		c-0.2,0.1-0.3,0.2-0.4,0.3c0.2,0.1,0.3,0.2,0.4,0.3c0.1,0.1,0.2,0.3,0.2,0.4c0,0.3-0.1,0.4-0.2,0.6c-0.1,0.1-0.2,0.3-0.4,0.4
		c-0.1,0.1-0.3,0.2-0.4,0.3s-0.2,0.3-0.2,0.5c0.2,0,0.4,0,0.6-0.1c0.2-0.1,0.4-0.1,0.6-0.1c-0.1,0-0.1-0.1-0.2-0.2
		c-0.1-0.1-0.1-0.2-0.1-0.3v-0.1c0-0.1,0.1-0.1,0.1-0.1s0.1-0.1,0.2-0.1s0.1-0.1,0.2-0.1c0.1,0,0.1-0.1,0.1-0.1V15z M104.2,12.1
		c0,0,0,0.1,0.1,0.1c0,0,0.1,0.1,0.2,0.1s0.1,0,0.2,0s0.1,0,0.2,0c0,0,0.1,0,0.1,0c0,0,0.1-0.1,0.1-0.1v-0.1c0,0,0-0.1,0-0.2
		s0-0.3,0-0.4c0-0.1,0-0.3,0-0.4s0-0.2,0-0.3h-1.6c-0.1,0-0.1,0-0.2,0.1c-0.1,0.1-0.1,0.1-0.2,0.2c0.3,0.1,0.5,0.1,0.8,0.2
		c0.3,0,0.6,0.1,0.8,0.1c0,0,0,0.1,0,0.1c0,0.1,0,0.1,0,0.2s0,0.1-0.1,0.1c0,0-0.1,0.1-0.1,0.1C104.3,11.9,104.3,12,104.2,12.1
		L104.2,12.1z M103.4,8.7h1.3l0.2-0.1l0-0.2c0,0,0-0.1,0-0.2c0-0.1,0-0.1,0-0.1c0-0.1,0-0.1-0.1-0.1h-1.4V8.7z M103.4,10
		C103.4,10,103.4,10,103.4,10C103.4,10.1,103.5,10.1,103.4,10l1.5,0.1V9.3h-1.4c0,0,0,0,0,0c0,0,0,0,0,0.1V10z M105.5,16.5
		c0-0.2,0-0.4-0.1-0.6c-0.1-0.2-0.1-0.4-0.1-0.6c0,0.1-0.1,0.1-0.1,0.2s-0.1,0.1-0.2,0.2v-1.9c0-0.1,0-0.1-0.1-0.2
		c-0.1,0-0.2,0-0.2,0c0,0-0.1,0-0.2,0s-0.1,0-0.1,0.1v3.4c0,0,0,0.1,0.1,0.1s0.1,0,0.2,0c0.1,0,0.2,0,0.3-0.1
		c0.1-0.1,0.1-0.2,0.2-0.3c0.1,0,0.1,0.1,0.1,0.1c0,0,0.1,0,0.2,0c0,0,0.1,0,0.1,0c0,0,0.1,0,0.1-0.1V16.5z M107,9.2
		c0-0.1,0-0.2-0.1-0.2s-0.2,0-0.3,0c-0.1,0-0.2,0-0.2,0.1s-0.1,0.1-0.2,0.1c0,0-0.1,0.1-0.1,0.1c-0.1,0-0.1,0.1-0.2,0.1
		c-0.1,0-0.2,0-0.3-0.1c-0.1-0.1-0.2-0.1-0.3-0.1c0,0-0.1,0-0.2,0S105,9.2,105,9.3c0,0,0.1,0.1,0.1,0.1c0.1,0.1,0.1,0.1,0.2,0.2
		c0.1,0.1,0.2,0.1,0.2,0.1s0.1,0.1,0.2,0.1c0.1,0,0.2,0,0.3-0.1c0.1,0,0.1-0.1,0.2-0.1c0.1,0,0.1-0.1,0.2-0.1c0.1,0,0.2,0,0.4,0
		c0-0.1,0.1-0.1,0.1-0.2C107,9.3,107,9.3,107,9.2z M106.4,11.7c0,0,0-0.1,0-0.2c0-0.1-0.1-0.1-0.1-0.2s-0.1-0.1-0.2-0.2
		s-0.1-0.1-0.2-0.1c-0.1,0-0.1,0-0.2,0.1c-0.1,0.1-0.1,0.1-0.2,0.2c-0.1,0.1-0.1,0.2-0.2,0.3c0,0.1-0.1,0.2-0.1,0.2c0,0,0,0.1,0,0.1
		c0,0,0.1,0.1,0.1,0.1c0,0,0,0,0,0c0,0,0.1-0.1,0.1-0.1s0.1-0.1,0.1-0.1s0.1,0,0.1,0c0.1,0,0.1,0,0.2,0c0.1,0,0.1,0,0.2,0
		C106.3,11.8,106.3,11.8,106.4,11.7L106.4,11.7z M106.5,18.9c0.1,0,0.2,0,0.3-0.1c0.1-0.1,0.1-0.2,0.2-0.4c0-0.1,0.1-0.3,0.1-0.5
		c0-0.2,0-0.4,0-0.5c0-0.2,0-0.3,0-0.4c0-0.1,0-0.2,0-0.3l0-0.7c0-0.1,0-0.1-0.1-0.1l-0.1,0c0,0.3,0,0.5,0,0.7c0,0.2,0,0.5-0.1,0.7
		c-0.1,0.2-0.1,0.4-0.2,0.6c-0.1,0.2-0.3,0.4-0.4,0.5c0,0,0,0.1,0,0.1c0,0.1,0,0.2,0.1,0.3C106.3,18.9,106.3,18.9,106.5,18.9z
		 M106.2,14.7c0.1,0,0.2,0,0.3,0c0.1,0,0.2,0,0.2,0c0.1,0,0.1-0.1,0.2-0.1c0-0.1,0.1-0.1,0.1-0.2c-0.1,0-0.1,0-0.2,0
		c-0.1,0-0.2,0.1-0.3,0.1c-0.1,0-0.2,0.1-0.2,0.1c-0.1,0-0.1,0.1-0.1,0.1H106.2z M106.9,11.7c0,0.2,0,0.3-0.1,0.4
		c0,0.1-0.1,0.2-0.2,0.3c-0.1,0.1-0.1,0.2-0.2,0.3c0,0.1-0.1,0.2-0.1,0.4c0,0.1,0,0.2,0.1,0.3c0.1,0.1,0.2,0.1,0.3,0.1
		c0,0,0.1,0,0.1,0c0-0.2,0.1-0.4,0.1-0.5c0-0.1,0-0.3,0-0.4c0,0,0,0,0-0.1c0,0,0,0,0-0.1v-0.1c0-0.1,0-0.1,0-0.2c0-0.1,0-0.1,0-0.2
		C107,11.9,106.9,11.8,106.9,11.7L106.9,11.7z"/>
	<path class="st2" d="M121.3,14.3v4.3c0,0.2-0.1,0.3-0.2,0.4c-0.1,0.1-0.3,0.2-0.4,0.3c-0.2,0.1-0.3,0.2-0.5,0.2
		c-0.2,0-0.3,0.1-0.5,0.1c-0.1,0-0.2,0-0.3,0c-0.1,0-0.1-0.1-0.1-0.3h0c-0.2,0-0.4,0-0.5,0.1s-0.4,0.1-0.6,0.1c-0.1,0-0.1,0-0.2-0.1
		c0-0.1-0.1-0.2-0.1-0.3v-2c0.1-0.1,0.2-0.3,0.2-0.4c0.1-0.1,0.1-0.2,0.2-0.4l0-0.1c0-0.1,0-0.2-0.1-0.2c-0.1,0-0.1,0-0.2,0
		c-0.1,0-0.2,0-0.2,0c-0.1,0-0.1-0.1-0.1-0.1c0-0.3,0-0.5,0-0.8c0-0.3-0.1-0.5-0.1-0.8v1.3c-0.2,0.1-0.5,0.1-0.7,0.2
		c-0.2,0.1-0.5,0.2-0.7,0.2v3c0,0.1-0.1,0.1-0.2,0.2c-0.1,0.1-0.3,0.1-0.4,0.2s-0.3,0.1-0.5,0.1c-0.2,0-0.3,0-0.3,0h0l-0.2-0.1V19
		c0-0.1,0-0.2,0-0.4s0-0.3,0-0.5s0-0.3,0-0.4c0-0.1,0-0.2,0-0.2l-0.1-0.1l-1.1,1.1c-0.1,0.1-0.1,0.1-0.2,0.2c0,0-0.1,0.1-0.1,0.1
		c0,0-0.1,0-0.1,0.1c0,0-0.1,0-0.2,0c-0.1,0-0.1,0-0.2,0c-0.1,0-0.1-0.1-0.1-0.1c0,0,0,0,0-0.1c0-0.1,0.1-0.1,0.1-0.3
		s0.1-0.3,0.2-0.4s0.1-0.3,0.2-0.4c0.1-0.1,0.1-0.2,0.1-0.3c0-0.1,0.1-0.1,0.1-0.2c0-0.1,0-0.1,0-0.2c0-0.1,0-0.1-0.1-0.2
		c-0.1-0.1-0.2-0.1-0.3-0.1c-0.1,0-0.2-0.1-0.3-0.1c-0.1,0-0.2,0-0.2,0h-0.1c0,0,0,0-0.1,0c0,0-0.1,0-0.1,0v2.4
		c0,0.1-0.1,0.2-0.2,0.2s-0.3,0.1-0.5,0.1s-0.3,0.1-0.5,0.1c-0.2,0-0.3,0-0.3,0h-0.3c-0.1,0-0.1-0.1-0.1-0.1c0-0.1,0-0.1,0-0.1
		c0-0.1,0-0.2,0.1-0.2c0,0,0.1-0.1,0.2-0.1s0.2,0,0.2,0c0.1,0,0.2,0,0.3,0c0,0,0-0.1,0-0.1c0,0,0-0.1,0-0.1c0,0,0-0.1-0.1-0.1h-0.6
		v-0.7l0.2-0.2l-0.2-0.2v-0.9l-0.1-0.1c-0.1,0.1-0.3,0.2-0.3,0.4c-0.1,0.2-0.2,0.4-0.3,0.6s-0.2,0.4-0.3,0.5
		c-0.1,0.2-0.3,0.2-0.5,0.2c-0.1,0-0.2,0-0.2,0c0,0-0.1-0.1-0.1-0.2c0-0.3,0-0.7,0.1-1s0.1-0.7,0.2-1c0.1-0.3,0.1-0.7,0.2-1
		s0.1-0.7,0.1-1c0-0.1,0-0.2,0-0.3s0-0.2,0-0.3v-0.1c0,0,0.1,0.1,0.1,0.1c0,0.1,0.1,0.1,0.1,0.2s0.1,0.1,0.1,0.2
		c0,0,0.1,0.1,0.1,0.1c0,0,0,0,0,0c0,0,0-0.1,0.1-0.2s0-0.1,0-0.1c0-0.1-0.1-0.2-0.2-0.3c-0.1-0.1-0.1-0.2-0.1-0.3
		c0-0.1,0-0.2,0-0.2c0-0.1,0-0.1,0-0.2s0-0.1-0.1-0.1s-0.1,0-0.2,0l-0.2,0c0,0,0,0-0.1,0s-0.1,0-0.1,0c0,0-0.1,0-0.1,0s0-0.1,0-0.1
		s0-0.1,0-0.2h1.3c0.1,0,0.1,0,0.2-0.1c0.1-0.1,0.2-0.2,0.2-0.3c0.1-0.1,0.1-0.3,0.2-0.4c0-0.1,0.1-0.2,0.1-0.3c0,0-0.1-0.1-0.2-0.1
		c-0.1,0-0.3-0.1-0.4-0.1c-0.2-0.1-0.3-0.1-0.4-0.2c-0.1-0.1-0.2-0.3-0.3-0.4c0-0.1-0.1-0.2-0.1-0.4c-0.1-0.1-0.1-0.3-0.2-0.4
		c-0.1-0.1-0.1-0.3-0.2-0.4c-0.1-0.1-0.1-0.3-0.1-0.4v0c0,0,0.1-0.1,0.1-0.1h0.1c0,0,0,0,0.1,0c0.1,0,0.1,0,0.2,0.1
		c0.1,0,0.1,0,0.2,0.1c0.1,0,0.1,0,0.1,0h0.1c0.1,0,0.2-0.1,0.3-0.2c0.1-0.1,0.1-0.3,0.1-0.4c0-0.2,0-0.4,0-0.6c0-0.2,0-0.4,0-0.6
		s0.1-0.3,0.1-0.4c0.1-0.1,0.1-0.2,0.3-0.2c0.1,0,0.3,0,0.5,0.1c0.3,0,0.5,0.1,0.8,0.2c0.3,0.1,0.5,0.2,0.7,0.3s0.3,0.2,0.3,0.4
		c0,0,0,0.1,0,0.1c-0.2,0.1-0.4,0.2-0.6,0.3c-0.2,0.1-0.4,0.3-0.5,0.5s-0.3,0.4-0.5,0.5s-0.3,0.3-0.4,0.5v0.1c0,0,0,0.1,0,0.2
		c0,0.1,0.1,0.1,0.1,0.2c0,0.1,0.1,0.1,0.1,0.2c0.1,0,0.1,0.1,0.1,0.1c0.1,0,0.2-0.1,0.3-0.3s0.1-0.4,0.1-0.6s0.1-0.4,0.2-0.6
		c0.1-0.2,0.2-0.3,0.3-0.3c0.1,0,0.1,0,0.2,0c0,0,0.1,0,0.2,0.1c0.1,0,0.1,0.1,0.3,0.1c0.1,0.1,0.3,0.1,0.4,0.2s0.3,0.1,0.4,0.2
		c0.1,0.1,0.2,0.1,0.3,0.1c0,0,0.1,0,0.1,0c0.1,0,0.2,0,0.2-0.1s0.1-0.1,0.2-0.1c0.2,0,0.4,0,0.5,0.1c0.2,0.1,0.3,0.1,0.5,0.2
		c0.2,0.1,0.3,0.2,0.5,0.2c0.2,0.1,0.4,0.1,0.5,0.1h2.8c0.1,0,0.2,0,0.3-0.1c0.1-0.1,0.2-0.2,0.2-0.3c0.1-0.1,0.1-0.2,0.2-0.3
		c0.1-0.1,0.2-0.1,0.3-0.2c0.1,0.1,0.3,0.2,0.5,0.3s0.4,0.2,0.6,0.4c0.2,0.1,0.4,0.3,0.5,0.4c0.1,0.1,0.2,0.3,0.2,0.4c0,0,0,0,0,0
		l-0.5,0.5v2.1c0,0.1,0,0.1-0.1,0.1c-0.1,0-0.1,0.1-0.2,0.1c-0.1,0-0.1,0.1-0.2,0.1c-0.1,0-0.1,0.1-0.1,0.2c0,0.1,0.1,0.2,0.2,0.3
		s0.2,0.2,0.4,0.2c0.1,0.1,0.3,0.2,0.4,0.2c0.1,0.1,0.2,0.2,0.2,0.3v0L121.3,14.3z M109.4,17.5c0,0,0-0.1,0-0.2c0-0.1,0-0.2,0-0.3
		c0-0.1,0-0.2-0.1-0.3c0-0.1-0.1-0.1-0.1-0.1c-0.1,0-0.1,0-0.1,0.1c0,0,0,0.1,0,0.1c0,0.1,0,0.1,0,0.1c0,0,0,0.1,0,0.1h-0.3l0.5,0.5
		H109.4z M110.1,14.2c0-0.1,0-0.2,0-0.2c0-0.1-0.1-0.1-0.2-0.1c-0.1,0-0.1,0-0.2,0c-0.1,0-0.1,0.1-0.2,0.1c-0.1,0-0.1,0.1-0.2,0.2
		c-0.1,0.1-0.1,0.1-0.1,0.2c0,0.1,0,0.1,0.1,0.1c0,0,0.1,0,0.2,0.1c0.1,0,0.1,0,0.2,0c0.1,0,0.1,0,0.1,0c0.1,0,0.2,0,0.3,0
		C110.1,14.5,110.1,14.4,110.1,14.2z M110.6,11.3c0.1,0.1,0.1,0.1,0.2,0s0.2-0.2,0.3-0.3s0.2-0.3,0.2-0.4c0.1-0.1,0.1-0.2,0.1-0.2
		c0,0-0.1,0-0.2,0.1c-0.1,0.1-0.2,0.1-0.4,0.2c-0.1,0.1-0.2,0.2-0.3,0.3C110.5,11,110.5,11.1,110.6,11.3L110.6,11.3z M112,11.9
		c0,0,0-0.1,0-0.1c0-0.1,0-0.1,0-0.2s0-0.1-0.1-0.2c0,0-0.1-0.1-0.1-0.1c-0.1,0-0.2,0-0.3,0.1c-0.1,0.1-0.2,0.1-0.2,0.2
		c-0.1,0.1-0.1,0.2-0.2,0.3c0,0.1-0.1,0.2-0.1,0.3c0.1,0,0.1,0,0.2,0s0.2,0,0.3,0c0.1,0,0.2,0,0.3-0.1S112,12,112,11.9z M111.7,17.5
		c0-0.1-0.1-0.1-0.1-0.1c-0.1,0-0.1,0-0.2,0l-0.2,0c0,0.1,0.1,0.1,0.2,0.1C111.5,17.5,111.5,17.5,111.7,17.5
		C111.7,17.5,111.7,17.5,111.7,17.5z M112.2,9c-0.1,0-0.3,0-0.4,0.1c-0.1,0.1-0.3,0.1-0.4,0.2l0.1,0.1c0,0,0.1,0.1,0.2,0.1
		s0.1,0.1,0.1,0.1l0.5-0.5V9z M113.4,15c0.1,0,0.1,0,0.2-0.1c0-0.1,0.1-0.2,0.1-0.3c0-0.1,0-0.2,0-0.3c0-0.1,0-0.2,0-0.2
		c0,0-0.1,0-0.2,0c-0.1,0-0.2,0-0.4,0s-0.3,0-0.4-0.1c-0.1,0-0.2-0.1-0.3-0.2c0,0,0.1,0,0.2-0.1s0.2-0.1,0.3-0.1
		c0.1,0,0.2-0.1,0.3-0.1c0.1,0,0.1-0.1,0.1-0.1v0c-0.1-0.1-0.2-0.2-0.3-0.2c-0.1-0.1-0.2-0.2-0.2-0.3v0c0-0.1,0-0.1,0.1-0.2
		c0-0.1,0.1-0.1,0.1-0.2s0.1-0.1,0.1-0.2c0-0.1,0-0.1,0-0.2c0-0.1,0-0.1-0.1-0.1c-0.1,0-0.1,0-0.2,0c-0.1,0-0.2,0.1-0.3,0.2
		c-0.1,0.1-0.2,0.2-0.3,0.4c-0.1,0.1-0.1,0.3-0.2,0.4s-0.1,0.3-0.1,0.4c0,0.1,0,0.2,0,0.3c0,0.1,0,0.2,0.1,0.3h-0.2
		c0,0.2,0,0.4,0.1,0.5c0.1,0.1,0.1,0.2,0.2,0.3c0.1,0.1,0.2,0.1,0.4,0.2C113,14.8,113.2,14.9,113.4,15L113.4,15z M113.6,11.9
		c0.1,0,0.1-0.1,0.1-0.2s0-0.1,0-0.2s0-0.1,0.1-0.2s0.1-0.1,0.3-0.1c0.1,0,0.2,0,0.2,0.1c0,0,0,0.1,0,0.2c0,0.2,0,0.3-0.1,0.3
		s-0.2,0-0.4,0c0,0,0,0.1,0.1,0.2c0.1,0.1,0.1,0.1,0.2,0.1c0,0,0.1,0,0.1,0c0.1,0,0.1,0,0.2,0c0.1,0,0.1,0,0.2,0c0.1,0,0.1,0,0.1,0
		c0-0.1,0-0.2,0-0.3s0.1-0.1,0.2-0.2c0.1-0.1,0.2-0.1,0.2-0.2s0.1-0.2,0.1-0.3c-0.1,0-0.2,0-0.3,0.1c-0.1,0-0.2,0.1-0.3,0.1
		c-0.1,0-0.2,0-0.3-0.1s-0.1-0.1-0.1-0.3c0-0.1,0-0.2,0.1-0.3s0.2-0.2,0.3-0.4c0.1-0.1,0.2-0.2,0.3-0.3s0.2-0.2,0.3-0.2c0,0,0,0,0,0
		c0,0,0,0,0,0c0,0,0-0.1,0-0.1c0,0,0-0.1,0-0.1c-0.2-0.1-0.5-0.2-0.7-0.3s-0.5-0.1-0.7-0.1v0.3c0.2,0,0.3,0,0.5,0.1s0.3,0.2,0.3,0.4
		c0,0.1,0,0.2-0.1,0.2s-0.1,0.1-0.2,0.1c-0.1,0-0.1,0-0.2,0.1c-0.1,0-0.1,0-0.2,0c0,0.1,0,0.1,0.1,0.2c0,0.1,0.1,0.1,0.1,0.2
		c0,0.1,0,0.3,0,0.4c0,0.1-0.1,0.2-0.3,0.3V9.5c-0.1,0-0.1-0.1-0.1-0.1c0-0.1,0-0.1,0-0.2c0-0.1,0-0.1-0.1-0.1c0,0-0.1-0.1-0.2-0.1
		c0,0.2-0.1,0.4-0.2,0.5c-0.1,0.1-0.3,0.3-0.4,0.4s-0.3,0.3-0.4,0.4c-0.1,0.1-0.2,0.3-0.2,0.5c0,0.1,0.1,0.1,0.2,0.3
		c0.1,0.1,0.3,0.2,0.5,0.4c0.2,0.1,0.3,0.2,0.5,0.3C113.4,11.9,113.5,11.9,113.6,11.9L113.6,11.9z M121.7,7.8
		c-0.1-0.1-0.2-0.3-0.3-0.3c-0.1-0.1-0.1-0.2-0.2-0.2c-0.1-0.1-0.1-0.1-0.2-0.1c-0.1,0-0.2,0-0.3,0c0,0.1,0,0.2,0,0.3s0,0.1,0,0.2
		c0,0,0,0.1,0,0.2c0,0.1,0,0.2,0,0.3h-3.7c0.1-0.2,0.1-0.3,0-0.3c-0.1,0-0.2-0.1-0.3-0.1c-0.2,0-0.4,0.1-0.5,0.4h-2.5
		c-0.1,0-0.1,0-0.1-0.1s-0.1-0.1-0.1-0.2c0-0.1,0-0.1,0-0.2c0-0.1,0-0.1,0-0.1h5.7c0.1,0,0.2-0.1,0.3-0.2c0.1-0.1,0.1-0.3,0.2-0.4
		c0.1-0.1,0.1-0.3,0.2-0.4c0.1-0.1,0.2-0.2,0.3-0.2c0.1,0,0.2,0.1,0.4,0.2c0.2,0.1,0.4,0.3,0.6,0.4s0.4,0.3,0.5,0.5
		c0.2,0.2,0.2,0.3,0.2,0.3V7.8z M114.6,15.4c0,0-0.1,0-0.2,0s-0.1,0-0.2,0c-0.1,0-0.1,0-0.2-0.1c0,0-0.1-0.1-0.1-0.2
		c0-0.1,0-0.1,0-0.2s0.1-0.1,0.1-0.1c0,0,0.1-0.1,0.1-0.1s0-0.1,0-0.2s0-0.1,0-0.1c-0.1,0-0.2,0.1-0.4,0.2s-0.2,0.2-0.2,0.3
		c0,0.1,0,0.2,0,0.3s0.1,0.2,0.1,0.3s0.1,0.2,0.2,0.2c0.1,0.1,0.2,0.1,0.3,0.1c0.1,0,0.1,0,0.2-0.1
		C114.6,15.6,114.6,15.5,114.6,15.4z M115.6,12.3c0-0.1,0-0.1-0.1-0.2s-0.1,0-0.2,0c-0.1,0-0.2,0-0.4,0.1c0.1,0.1,0.1,0.1,0.1,0.2
		c0,0.1,0,0.1,0,0.2c0,0.1-0.1,0.3-0.2,0.4s-0.2,0.2-0.4,0.2l0.1,0.1c0,0,0.1,0.1,0.1,0.1s0.1,0.1,0.2,0.1c0.1,0,0.1,0.1,0.2,0.1
		h0.1c0,0,0.1,0,0.2-0.1c0.1-0.1,0.2-0.1,0.2-0.2c0,0,0,0,0.1,0c0,0,0,0,0,0V12.3z M119,9.9h-1.6L117,9.5c0,0,0,0-0.1,0s0,0,0,0
		c0,0,0,0.1,0,0.2s0,0.1,0.1,0.2h-1.2v1.4c0,0.1,0,0.1,0.1,0.2c0.1,0.1,0.1,0.1,0.2,0.1h2.6c0,0,0,0,0.1,0c0,0,0.1,0,0.1-0.1
		c0,0,0,0,0.1,0c0,0,0,0,0,0V9.9z M119.4,13.3c0.1,0,0.1,0,0.2-0.1s0-0.1,0-0.2c0,0,0-0.1,0-0.1c-0.2,0-0.4-0.1-0.5-0.1
		c-0.1-0.1-0.2-0.2-0.2-0.2s-0.1-0.2-0.1-0.2c0-0.1,0-0.1-0.1-0.1h-1.2c0,0,0,0,0-0.1s-0.1-0.1-0.1-0.1c0,0-0.1,0-0.1,0.1
		s-0.1,0.1-0.1,0.1H116l-0.2,0.2v0.7c0,0,0,0,0,0c0,0,0.1,0,0.1,0c0,0,0.1,0,0.1,0.1s0.1,0,0.1,0H119.4z M116.3,14.2L116.3,14.2
		l-0.1,1.5l0.1,0.1V14.2z M116.4,13.6c0,0.1,0,0.2,0,0.3c0,0.1,0,0.2,0.1,0.3h0.1c0.1,0,0.1,0,0.2-0.1s0.1-0.1,0.1-0.2
		s0.1-0.1,0.1-0.2c0-0.1,0.1-0.1,0.1-0.2H116.4z M117.8,19.1c0,0.1,0,0.1-0.1,0.2c-0.1,0-0.2,0.1-0.3,0.1c-0.1,0-0.2,0-0.3,0
		c-0.1,0-0.2,0-0.2,0c-0.1,0-0.2,0-0.2,0c-0.1,0-0.1,0-0.1,0c0,0-0.1,0-0.1-0.1v-1.9h0.9c0,0,0,0,0,0c0,0,0,0,0,0c0,0,0-0.1,0-0.3
		c0-0.1,0-0.2,0-0.3c-0.2,0-0.4,0-0.5,0.1c-0.1,0.1-0.3,0.1-0.5,0.1c0-0.1,0-0.2,0-0.3c0-0.1,0-0.2,0.1-0.3c0-0.1,0.1-0.2,0.2-0.2
		c0.1-0.1,0.2-0.1,0.3-0.1c0.1,0,0.2,0,0.3,0.1c0.1,0,0.2,0.1,0.3,0.1c0,0,0.1,0,0.1,0c0,0,0.1,0,0.1,0V19.1z M119.4,14.2h-0.1v0.6
		c-0.1,0-0.1,0-0.2,0c-0.1,0-0.2,0-0.3,0c-0.1,0-0.2,0-0.2,0.1c-0.1,0-0.1,0.1-0.1,0.2c0,0.1,0,0.2,0.1,0.3c0,0.1,0.1,0.1,0.3,0.1
		c0.1,0,0.2,0,0.2-0.1c0.1,0,0.1-0.1,0.2-0.2v0.5h0.1V14.2z M119.3,17.7c0,0,0-0.1,0-0.2c0-0.1,0-0.2,0-0.3c0-0.1,0-0.2,0-0.3
		c0-0.1,0-0.2,0-0.2c0,0,0,0,0,0.1c0,0.1,0,0.3,0,0.4c0,0.2,0,0.3,0,0.4C119.3,17.7,119.3,17.8,119.3,17.7z M119.6,11.8h-0.1
		c0,0.1,0,0.1,0.1,0.2V11.8z M121.5,13.9c0-0.1,0-0.1-0.1-0.2c-0.1-0.1-0.1-0.1-0.2-0.1s-0.1-0.1-0.2-0.1c-0.1,0-0.1,0-0.2,0
		c0,0.1,0,0.2,0.1,0.3c0,0.1,0.1,0.2,0.1,0.3c0,0.1,0,0.2-0.1,0.4c-0.1,0.2-0.2,0.3-0.3,0.5c-0.1,0.2-0.2,0.3-0.4,0.4
		c-0.1,0.1-0.3,0.2-0.4,0.2v0.2c0,0.1,0.1,0.1,0.2,0.2c0.1,0,0.2,0.1,0.4,0.1s0.3,0.1,0.4,0.1c0.1,0,0.2,0,0.2,0h0c0,0,0,0,0,0
		c0,0,0,0,0,0c0,0,0,0,0.1,0v-1.8c0,0,0.1-0.1,0.2-0.1C121.4,14,121.5,13.9,121.5,13.9L121.5,13.9z M120,17.4c0,0.1,0,0.1,0.1,0.2
		c0.1,0,0.2,0.1,0.3,0.1c0.1,0,0.3,0.1,0.4,0.1s0.2,0.1,0.3,0.2c0.1,0,0.1-0.1,0.1-0.1c0,0,0-0.1,0-0.1c0-0.1,0-0.1,0-0.2
		s0-0.1-0.1-0.2h-0.7c0,0-0.1,0-0.2-0.1c-0.1,0-0.2,0-0.2,0c0,0,0,0,0,0C120,17.3,120,17.3,120,17.4L120,17.4z M121.4,9.8
		c0,0,0-0.1-0.1-0.1c0,0-0.1-0.1-0.1-0.1c0,0-0.1-0.1-0.1-0.1s-0.1,0-0.1,0h0c-0.1,0-0.1,0-0.2,0.1c0,0.1-0.1,0.2-0.1,0.2
		s0,0.2,0,0.3s0,0.2,0,0.2l0,0.4c0,0,0,0,0.1,0.1s0.1,0.1,0.1,0.1h0.1c0-0.2,0-0.3,0-0.4c0-0.1,0-0.2,0.1-0.2s0.1-0.1,0.2-0.2
		C121.2,10,121.3,9.9,121.4,9.8L121.4,9.8z M120.9,12c0,0,0-0.1,0-0.1s0-0.1-0.1-0.1c0,0-0.1,0-0.1,0.1c0,0-0.1,0.1-0.1,0.1
		c0,0,0,0,0,0c0,0,0,0,0,0.1s0,0,0.1,0.1c0,0.1,0.1,0.1,0.1,0.1c0.1,0,0.1-0.1,0.1-0.1C120.9,12.1,120.9,12,120.9,12z M121.1,18.6
		c-0.1,0-0.1,0-0.2,0.1c-0.1,0.1-0.1,0.1-0.1,0.2c0,0.1,0,0.1,0.1,0.1c0.1,0,0.1-0.1,0.1-0.2C121.1,18.7,121.1,18.6,121.1,18.6
		L121.1,18.6z"/>
</g>
</svg>
